<?xml version="1.0" encoding="utf-8"?>
<!-- Generator: Adobe Illustrator 16.0.0, SVG Export Plug-In . SVG Version: 6.00 Build 0)  -->
<!DOCTYPE svg PUBLIC "-//W3C//DTD SVG 1.1//EN" "http://www.w3.org/Graphics/SVG/1.1/DTD/svg11.dtd">
<svg version="1.1" xmlns="http://www.w3.org/2000/svg" xmlns:xlink="http://www.w3.org/1999/xlink" x="0px" y="0px" width="100%"
	 height="100%" viewBox="0 0 750 500" enable-background="new 0 0 750 500" xml:space="preserve" style="width: 100vw;height: 125vh;overflow: hidden;">
<g id="BACKGROUND">
	<g>
		<linearGradient id="SVGID_1_" gradientUnits="userSpaceOnUse" x1="374.9995" y1="500.0005" x2="374.9995" y2="9.765625e-004">
			<stop  offset="0.6" style="stop-color:#F1D4D0"/>
			<stop  offset="0.7925" style="stop-color:#CBCFD8"/>
			<stop  offset="1" style="stop-color:#9EC8E2"/>
		</linearGradient>
		<rect x="-0.001" y="0" fill="url(#SVGID_1_)" width="750" height="500"/>
		<g>
			<path fill="#FFFFFF" d="M10.733,7.269c0,0.805-0.652,1.457-1.457,1.457S7.819,8.074,7.819,7.269s0.652-1.457,1.457-1.457
				S10.733,6.464,10.733,7.269"/>
			<path fill="#FFFFFF" d="M142.733,63.269c0,0.805-0.652,1.457-1.457,1.457s-1.457-0.652-1.457-1.457
				c0-0.804,0.652-1.457,1.457-1.457S142.733,62.464,142.733,63.269"/>
			<path fill="#FFFFFF" d="M139.819,116.871c0,0.805-0.652,1.457-1.458,1.457c-0.804,0-1.456-0.652-1.456-1.457
				c0-0.804,0.652-1.458,1.456-1.458C139.167,115.413,139.819,116.066,139.819,116.871"/>
			<path fill="#FFFFFF" d="M446.733,26.269c0,0.805-0.652,1.457-1.457,1.457s-1.457-0.652-1.457-1.457
				c0-0.804,0.652-1.457,1.457-1.457S446.733,25.464,446.733,26.269"/>
			<path fill="#FFFFFF" d="M299.732,26.269c0,0.805-0.651,1.457-1.456,1.457s-1.457-0.652-1.457-1.457
				c0-0.804,0.652-1.457,1.457-1.457S299.732,25.464,299.732,26.269"/>
			<path fill="#FFFFFF" d="M281.732,63.269c0,0.805-0.651,1.457-1.456,1.457s-1.457-0.652-1.457-1.457s0.652-1.457,1.457-1.457
				S281.732,62.464,281.732,63.269"/>
			<path fill="#FFFFFF" d="M567.674,106.677c0,0.805-0.652,1.457-1.457,1.457s-1.457-0.652-1.457-1.457
				c0-0.804,0.652-1.457,1.457-1.457S567.674,105.873,567.674,106.677"/>
			<path fill="#FFFFFF" d="M82.732,15.269c0,0.805-0.651,1.457-1.456,1.457s-1.457-0.652-1.457-1.457s0.652-1.457,1.457-1.457
				S82.732,14.464,82.732,15.269"/>
			<path fill="#FFFFFF" d="M250.732,83.269c0,0.805-0.651,1.457-1.456,1.457s-1.457-0.652-1.457-1.457s0.652-1.457,1.457-1.457
				S250.732,82.464,250.732,83.269"/>
			<path fill="#FFFFFF" d="M515.956,212.092c0,0.567,0.461,1.028,1.029,1.028c0.57,0,1.031-0.461,1.031-1.028
				c0-0.568-0.461-1.03-1.031-1.03C516.417,211.062,515.956,211.523,515.956,212.092"/>
			<path fill="#FFFFFF" d="M423.321,111.472c0,0.569,0.461,1.03,1.029,1.03s1.029-0.461,1.029-1.03c0-0.568-0.461-1.029-1.029-1.029
				S423.321,110.904,423.321,111.472"/>
			<path fill="#FFFFFF" d="M187.658,11.336c0,0.569,0.461,1.03,1.03,1.03s1.029-0.461,1.029-1.03c0-0.568-0.46-1.029-1.029-1.029
				S187.658,10.769,187.658,11.336"/>
			<path fill="#FFFFFF" d="M388.142,10.006c0,0.569,0.461,1.03,1.029,1.03s1.031-0.461,1.031-1.03c0-0.568-0.463-1.03-1.031-1.03
				S388.142,9.438,388.142,10.006"/>
			<path fill="#FFFFFF" d="M590.542,1.03c0,0.569,0.461,1.03,1.029,1.03c0.57,0,1.031-0.461,1.031-1.03
				c0-0.568-0.461-1.03-1.031-1.03C591.003,0,590.542,0.462,590.542,1.03"/>
			<path fill="#FFFFFF" d="M203.727,127.696c0,0.568,0.461,1.03,1.03,1.03c0.568,0,1.029-0.462,1.029-1.03
				c0-0.569-0.461-1.03-1.029-1.03C204.188,126.666,203.727,127.127,203.727,127.696"/>
			<path fill="#FFFFFF" d="M221.285,74.006c0,0.569,0.461,1.03,1.03,1.03c0.568,0,1.029-0.461,1.029-1.03
				c0-0.568-0.461-1.03-1.029-1.03C221.746,72.977,221.285,73.438,221.285,74.006"/>
			<path fill="#FFFFFF" d="M127.203,110.269c0,0.569,0.461,1.03,1.029,1.03c0.569,0,1.03-0.461,1.03-1.03
				c0-0.568-0.461-1.03-1.03-1.03C127.664,109.239,127.203,109.701,127.203,110.269"/>
			<path fill="#FFFFFF" d="M60.819,127.091c0,0.568,0.461,1.029,1.029,1.029s1.031-0.461,1.031-1.029s-0.463-1.03-1.031-1.03
				S60.819,126.523,60.819,127.091"/>
			<path fill="#FFFFFF" d="M22.396,153.976c0-0.569-0.461-1.03-1.03-1.03s-1.031,0.461-1.031,1.03c0,0.568,0.462,1.03,1.031,1.03
				S22.396,154.544,22.396,153.976"/>
			<path fill="#FFFFFF" d="M137.965,107.707c0-0.569-0.461-1.03-1.03-1.03c-0.568,0-1.029,0.461-1.029,1.03s0.461,1.03,1.029,1.03
				C137.504,108.737,137.965,108.276,137.965,107.707"/>
			<path fill="#FFFFFF" d="M541.991,146.696c0-0.569-0.463-1.03-1.029-1.03c-0.57,0-1.031,0.461-1.031,1.03
				c0,0.568,0.461,1.03,1.031,1.03C541.528,147.726,541.991,147.264,541.991,146.696"/>
			<path fill="#FFFFFF" d="M11.763,81.812c0-0.569-0.461-1.03-1.028-1.03c-0.57,0-1.031,0.461-1.031,1.03
				c0,0.568,0.461,1.03,1.031,1.03C11.302,82.842,11.763,82.38,11.763,81.812"/>
			<path fill="#FFFFFF" d="M519.407,33.006c0-0.568-0.463-1.03-1.029-1.03c-0.57,0-1.033,0.462-1.033,1.03
				c0,0.569,0.463,1.03,1.033,1.03C518.944,34.037,519.407,33.575,519.407,33.006"/>
			<path fill="#FFFFFF" d="M554.849,177.696c0-0.569-0.463-1.03-1.029-1.03c-0.57,0-1.031,0.461-1.031,1.03
				c0,0.568,0.461,1.03,1.031,1.03C554.386,178.726,554.849,178.264,554.849,177.696"/>
			<path fill="#FFFFFF" d="M290.494,157.33c0-0.568-0.463-1.029-1.029-1.029c-0.57,0-1.031,0.461-1.031,1.029
				c0,0.568,0.461,1.03,1.031,1.03C290.031,158.36,290.494,157.897,290.494,157.33"/>
			<path fill="#FFFFFF" d="M692.313,117.611c0-0.568-0.463-1.029-1.029-1.029c-0.57,0-1.031,0.461-1.031,1.029
				s0.461,1.03,1.031,1.03C691.851,118.641,692.313,118.179,692.313,117.611"/>
			<path fill="#FFFFFF" d="M149.789,213.121c0,0.568,0.461,1.029,1.029,1.029c0.569,0,1.031-0.461,1.031-1.029
				s-0.462-1.031-1.031-1.031C150.25,212.09,149.789,212.553,149.789,213.121"/>
			<path fill="#FFFFFF" d="M701.255,15.597c0,0.569,0.461,1.03,1.029,1.03s1.029-0.461,1.029-1.03c0-0.568-0.461-1.029-1.029-1.029
				S701.255,15.029,701.255,15.597"/>
			<path fill="#FFFFFF" d="M526.142,25.006c0,0.569,0.463,1.03,1.029,1.03c0.57,0,1.031-0.461,1.031-1.03
				c0-0.568-0.461-1.03-1.031-1.03C526.604,23.977,526.142,24.438,526.142,25.006"/>
			<path fill="#FFFFFF" d="M700.542,71.03c0,0.569,0.461,1.03,1.029,1.03c0.57,0,1.031-0.461,1.031-1.03
				c0-0.568-0.461-1.03-1.031-1.03C701.003,70,700.542,70.461,700.542,71.03"/>
			<path fill="#FFFFFF" d="M524.726,122.696c0,0.568,0.463,1.03,1.029,1.03c0.57,0,1.033-0.462,1.033-1.03
				c0-0.569-0.463-1.03-1.033-1.03C525.188,121.666,524.726,122.127,524.726,122.696"/>
			<path fill="#FFFFFF" d="M377.292,74.625c0,0.569,0.461,1.03,1.029,1.03s1.029-0.461,1.029-1.03c0-0.568-0.461-1.03-1.029-1.03
				S377.292,74.057,377.292,74.625"/>
			<path fill="#FFFFFF" d="M266.117,13.667c0,0.569,0.461,1.03,1.03,1.03c0.568,0,1.029-0.461,1.029-1.03
				c0-0.568-0.461-1.03-1.029-1.03C266.578,12.637,266.117,13.099,266.117,13.667"/>
			<path fill="#FFFFFF" d="M246.819,157.091c0,0.568,0.461,1.029,1.029,1.029s1.031-0.461,1.031-1.029s-0.463-1.03-1.031-1.03
				S246.819,156.523,246.819,157.091"/>
			<path fill="#FFFFFF" d="M662.794,56.474c0.258-0.506,0.057-1.127-0.451-1.385c-0.506-0.258-1.127-0.056-1.387,0.451
				c-0.258,0.507-0.055,1.127,0.451,1.385C661.915,57.183,662.536,56.982,662.794,56.474"/>
			<path fill="#FFFFFF" d="M144.233,14.065c0.258-0.507,0.057-1.127-0.451-1.385c-0.506-0.258-1.127-0.056-1.383,0.451
				c-0.259,0.508-0.058,1.127,0.449,1.385C143.356,14.774,143.976,14.572,144.233,14.065"/>
			<path fill="#FFFFFF" d="M624.388,18.78c0.258-0.507,0.055-1.127-0.451-1.384c-0.508-0.259-1.127-0.056-1.387,0.45
				c-0.258,0.507-0.055,1.127,0.451,1.386C623.507,19.488,624.128,19.287,624.388,18.78"/>
			<path fill="#FFFFFF" d="M461.55,26.522c0.258-0.507,0.055-1.127-0.451-1.384c-0.508-0.259-1.127-0.057-1.387,0.45
				c-0.258,0.507-0.055,1.127,0.453,1.385C460.671,27.231,461.29,27.029,461.55,26.522"/>
			<path fill="#FFFFFF" d="M686.7,20.56c0.258-0.506,0.057-1.127-0.449-1.384c-0.51-0.259-1.129-0.056-1.387,0.45
				c-0.258,0.508-0.057,1.127,0.451,1.386C685.823,21.269,686.442,21.068,686.7,20.56"/>
			<path fill="#FFFFFF" d="M228.731,209.117c0.258-0.508,0.057-1.127-0.451-1.385s-1.127-0.057-1.385,0.451
				c-0.258,0.506-0.057,1.127,0.451,1.385C227.853,209.826,228.474,209.623,228.731,209.117"/>
			<path fill="#FFFFFF" d="M727.288,76.122c0.26-0.507,0.057-1.127-0.449-1.385s-1.127-0.056-1.387,0.451
				c-0.256,0.507-0.055,1.127,0.451,1.385C726.411,76.83,727.03,76.628,727.288,76.122"/>
			<path fill="#FFFFFF" d="M746.2,64.596c0.26-0.507,0.057-1.128-0.449-1.385c-0.508-0.258-1.127-0.056-1.387,0.451
				c-0.258,0.507-0.055,1.127,0.451,1.386C745.323,65.305,745.942,65.103,746.2,64.596"/>
			<path fill="#FFFFFF" d="M200.733,126.269c0,0.805-0.652,1.457-1.457,1.457s-1.457-0.652-1.457-1.457s0.652-1.457,1.457-1.457
				S200.733,125.464,200.733,126.269"/>
			<path fill="#FFFFFF" d="M153.732,21.269c0,0.805-0.651,1.457-1.456,1.457s-1.457-0.652-1.457-1.457
				c0-0.804,0.652-1.457,1.457-1.457S153.732,20.464,153.732,21.269"/>
			<path fill="#FFFFFF" d="M495.255,89.597c0,0.569,0.461,1.03,1.029,1.03s1.029-0.461,1.029-1.03s-0.461-1.03-1.029-1.03
				S495.255,89.028,495.255,89.597"/>
			<path fill="#FFFFFF" d="M492.017,97.035c0-0.569-0.463-1.03-1.029-1.03c-0.57,0-1.031,0.461-1.031,1.03
				c0,0.568,0.461,1.03,1.031,1.03C491.554,98.065,492.017,97.603,492.017,97.035"/>
			<path fill="#FFFFFF" d="M556.956,56.091c0,0.569,0.461,1.03,1.029,1.03c0.57,0,1.031-0.461,1.031-1.03
				c0-0.568-0.461-1.03-1.031-1.03C557.417,55.061,556.956,55.523,556.956,56.091"/>
			<path fill="#FFFFFF" d="M307.733,18.269c0,0.805-0.652,1.457-1.457,1.457s-1.457-0.652-1.457-1.457
				c0-0.804,0.652-1.457,1.457-1.457S307.733,17.464,307.733,18.269"/>
			<path fill="#FFFFFF" d="M36.471,84.726c0,0.805-0.651,1.457-1.456,1.457s-1.457-0.652-1.457-1.457s0.652-1.457,1.457-1.457
				S36.471,83.921,36.471,84.726"/>
			<path fill="#FFFFFF" d="M21.792,188.414c0,0.805-0.652,1.457-1.456,1.457c-0.805,0-1.457-0.652-1.457-1.457
				s0.652-1.457,1.457-1.457C21.14,186.957,21.792,187.609,21.792,188.414"/>
			<path fill="#FFFFFF" d="M466.802,201.159c0,0.805-0.652,1.457-1.457,1.457s-1.457-0.652-1.457-1.457
				c0-0.804,0.652-1.457,1.457-1.457S466.802,200.355,466.802,201.159"/>
			<path fill="#FFFFFF" d="M92.976,51.384c0,0.569,0.461,1.03,1.029,1.03c0.569,0,1.03-0.461,1.03-1.03
				c0-0.568-0.461-1.029-1.03-1.029C93.437,50.354,92.976,50.815,92.976,51.384"/>
			<path fill="#FFFFFF" d="M69.142,83.006c0,0.569,0.461,1.03,1.029,1.03s1.031-0.461,1.031-1.03c0-0.568-0.463-1.03-1.031-1.03
				S69.142,82.438,69.142,83.006"/>
			<path fill="#FFFFFF" d="M471.359,61.643c0,0.569,0.461,1.031,1.028,1.031c0.57,0,1.031-0.461,1.031-1.031
				c0-0.568-0.461-1.03-1.031-1.03C471.82,60.613,471.359,61.075,471.359,61.643"/>
			<path fill="#FFFFFF" d="M467.407,155.006c0-0.568-0.463-1.03-1.029-1.03c-0.57,0-1.033,0.462-1.033,1.03
				c0,0.569,0.463,1.03,1.033,1.03C466.944,156.037,467.407,155.576,467.407,155.006"/>
			<path fill="#FFFFFF" d="M46.142,32.006c0,0.569,0.462,1.03,1.029,1.03c0.57,0,1.031-0.461,1.031-1.03
				c0-0.568-0.461-1.03-1.031-1.03C46.604,30.976,46.142,31.438,46.142,32.006"/>
			<path fill="#FFFFFF" d="M421.214,161.16c0,0.569,0.462,1.03,1.03,1.03c0.569,0,1.03-0.461,1.03-1.03
				c0-0.568-0.461-1.03-1.03-1.03C421.676,160.129,421.214,160.591,421.214,161.16"/>
			<path fill="#FFFFFF" d="M693.387,178.781c0.258-0.508,0.056-1.128-0.451-1.385c-0.507-0.258-1.127-0.057-1.385,0.451
				c-0.258,0.506-0.056,1.127,0.451,1.385C692.508,179.489,693.129,179.287,693.387,178.781"/>
			<path fill="#FFFFFF" d="M57.549,90.522c0.258-0.507,0.056-1.127-0.45-1.384c-0.508-0.259-1.128-0.057-1.386,0.45
				s-0.056,1.127,0.452,1.385C56.671,91.231,57.291,91.029,57.549,90.522"/>
			<path fill="#FFFFFF" d="M378.321,159.668c0,0.569,0.461,1.03,1.03,1.03s1.03-0.461,1.03-1.03c0-0.568-0.461-1.029-1.03-1.029
				S378.321,159.1,378.321,159.668"/>
			<path fill="#FFFFFF" d="M535.232,209.298c0-0.568-0.463-1.029-1.029-1.029c-0.57,0-1.031,0.461-1.031,1.029
				s0.461,1.03,1.031,1.03C534.77,210.328,535.232,209.866,535.232,209.298"/>
			<path fill="#FFFFFF" d="M464.655,193.369c0,0.568,0.462,1.029,1.029,1.029c0.57,0,1.032-0.461,1.032-1.029
				s-0.462-1.03-1.032-1.03C465.117,192.339,464.655,192.801,464.655,193.369"/>
			<path fill="#FFFFFF" d="M272.733,183.269c0,0.805-0.652,1.457-1.457,1.457s-1.457-0.652-1.457-1.457s0.652-1.457,1.457-1.457
				S272.733,182.464,272.733,183.269"/>
			<path fill="#FFFFFF" d="M437.726,95.696c0,0.568,0.463,1.03,1.029,1.03c0.57,0,1.033-0.462,1.033-1.03
				c0-0.569-0.463-1.03-1.033-1.03C438.188,94.666,437.726,95.127,437.726,95.696"/>
			<path fill="#FFFFFF" d="M309.788,34.046c0.193,0.534,0.784,0.812,1.318,0.619c0.535-0.194,0.813-0.786,0.619-1.32
				c-0.193-0.535-0.785-0.812-1.32-0.618C309.871,32.92,309.595,33.51,309.788,34.046"/>
			<path fill="#FFFFFF" d="M343.727,94.696c0,0.568,0.461,1.03,1.028,1.03c0.57,0,1.033-0.462,1.033-1.03
				c0-0.569-0.463-1.03-1.033-1.03C344.188,93.666,343.727,94.127,343.727,94.696"/>
			<path fill="#FFFFFF" d="M734.997,112.502c0-0.805,0.652-1.457,1.457-1.457s1.457,0.652,1.457,1.457
				c0,0.804-0.652,1.457-1.457,1.457S734.997,113.307,734.997,112.502"/>
			<path fill="#FFFFFF" d="M299.306,105.22c0-0.568-0.461-1.029-1.029-1.029c-0.57,0-1.031,0.461-1.031,1.029s0.461,1.03,1.031,1.03
				C298.845,106.25,299.306,105.788,299.306,105.22"/>
			<path fill="#FFFFFF" d="M624.498,70c0-0.569-0.461-1.03-1.029-1.03s-1.029,0.461-1.029,1.03c0,0.568,0.461,1.029,1.029,1.029
				S624.498,70.568,624.498,70"/>
			<path fill="#FFFFFF" d="M91.944,152.947c0,0.568,0.463,1.03,1.029,1.03c0.57,0,1.031-0.461,1.031-1.03
				c0-0.568-0.461-1.031-1.031-1.031C92.407,151.916,91.944,152.379,91.944,152.947"/>
			<path fill="#FFFFFF" d="M280.702,124.813c0,0.568,0.463,1.03,1.029,1.03c0.57,0,1.031-0.461,1.031-1.03s-0.461-1.03-1.031-1.03
				C281.165,123.782,280.702,124.244,280.702,124.813"/>
			<path fill="#FFFFFF" d="M150.82,212.091c0-0.568-0.463-1.03-1.029-1.03c-0.57,0-1.033,0.462-1.033,1.03s0.463,1.029,1.033,1.029
				C150.357,213.12,150.82,212.659,150.82,212.091"/>
			<path fill="#FFFFFF" d="M613.581,189.444c0-0.569-0.461-1.03-1.029-1.03s-1.029,0.461-1.029,1.03s0.461,1.03,1.029,1.03
				S613.581,190.013,613.581,189.444"/>
			<path fill="#FFFFFF" d="M616.819,182.006c0,0.569,0.463,1.03,1.029,1.03c0.57,0,1.031-0.461,1.031-1.03
				c0-0.568-0.461-1.03-1.031-1.03C617.282,180.976,616.819,181.438,616.819,182.006"/>
			<path fill="#FFFFFF" d="M659.388,90.092c0-0.805,0.652-1.457,1.456-1.457c0.806,0,1.457,0.652,1.457,1.457
				s-0.651,1.457-1.457,1.457C660.04,91.549,659.388,90.897,659.388,90.092"/>
			<path fill="#FFFFFF" d="M637.477,217.398c0-0.569-0.461-1.03-1.028-1.03c-0.57,0-1.031,0.461-1.031,1.03
				c0,0.568,0.461,1.03,1.031,1.03C637.016,218.429,637.477,217.967,637.477,217.398"/>
			<path fill="#FFFFFF" d="M734.392,156.3c0,0.568,0.463,1.03,1.029,1.03c0.57,0,1.033-0.462,1.033-1.03
				c0-0.569-0.463-1.03-1.033-1.03C734.854,155.27,734.392,155.731,734.392,156.3"/>
			<path fill="#FFFFFF" d="M506.84,176.666c0-0.569-0.462-1.03-1.03-1.03c-0.569,0-1.03,0.461-1.03,1.03
				c0,0.568,0.461,1.03,1.03,1.03C506.378,177.696,506.84,177.234,506.84,176.666"/>
			<path fill="#FFFFFF" d="M352.723,44.317c0,0.568,0.463,1.029,1.029,1.029c0.57,0,1.031-0.461,1.031-1.029s-0.461-1.03-1.031-1.03
				C353.186,43.287,352.723,43.749,352.723,44.317"/>
			<path fill="#FFFFFF" d="M661.533,97.883c0-0.569-0.461-1.029-1.029-1.029c-0.57,0-1.031,0.46-1.031,1.029
				c0,0.568,0.461,1.03,1.031,1.03C661.072,98.913,661.533,98.451,661.533,97.883"/>
			<path fill="#FFFFFF" d="M568.705,218.429c0-0.567-0.463-1.03-1.029-1.03c-0.57,0-1.033,0.463-1.033,1.03
				c0,0.569,0.463,1.03,1.033,1.03C568.242,219.459,568.705,218.998,568.705,218.429"/>
		</g>
		<g>
			<defs>
				<rect id="SVGID_2_" x="-0.001" y="0" width="750" height="500"/>
			</defs>
			<clipPath id="SVGID_3_">
				<use xlink:href="#SVGID_2_"  overflow="visible"/>
			</clipPath>
			<g clip-path="url(#SVGID_3_)">
				<path opacity="0.2" fill="#FFFFFF" d="M846.136,52.2c-43.946-7.268-131.835-21.803-141.085,37.375
					c-16.189-5.191-31.224,5.189-30.067,20.763c-10.408-1.037-23.129,0-26.597,10.383c-16.265-11.382-27.751-6.229-37.004,4.148
					c-1.503-13.945-13.83-26.937-21.145-30.957c-25.55-14.05-68.627-9.654-81.779,25.771c-6.937-11.42-28.91-11.42-32.38-1.037
					c2.313-14.536-20.757-20.504-28.335-10.123c2.025-28.55-28.33-52.169-58.398-51.132c-37.005,1.038-45.097,32.704-45.097,47.757
					c-12.724-6.229-32.382-4.152-35.851,10.383c-19.658-12.458-45.102-11.421-57.822,6.229c-4.625-14.535-45.1-14.535-55.508-4.152
					c0-8.306-10.407-18.688-19.661-18.688c-10.407,0-13.877,8.305-17.345,16.611c3.468-17.65-24.285-19.727-34.693-10.383
					c9.251-22.84-26.597-32.184-42.787-22.84c1.155-19.725-53.196-21.803-60.134-5.191c3.469-16.611-13.877-22.84-28.911-23.878
					c35.85-69.559-72.854-128.736-135.302-86.171c-63.603,43.604-31.224,153.653,11.565,199.332
					c54.351,60.216,172.306,57.103,249.787,60.216c145.709,5.192,291.419,8.307,435.972,18.688
					c77.479,5.192,158.43,11.42,234.755-1.038c10.408-1.037,130.675-21.801,109.859-37.374L846.136,52.2z"/>
				<path opacity="0.2" fill="#FFFFFF" d="M-9.34,125.391c34.67-5.566,104.013-16.698,111.311,28.625
					c12.775-3.975,24.635,3.976,23.724,15.902c8.211-0.794,18.247,0,20.984,7.953c12.832-8.718,21.895-4.771,29.193,3.177
					c1.187-10.681,10.914-20.63,16.684-23.71c20.158-10.76,54.146-7.395,64.522,19.737c5.474-8.747,22.809-8.747,25.547-0.794
					c-1.825-11.133,16.378-15.704,22.354-7.754c-1.598-21.865,22.353-39.955,46.075-39.161
					c29.197,0.796,35.582,25.048,35.582,36.577c10.038-4.771,25.547-3.182,28.284,7.951c15.512-9.541,35.585-8.746,45.621,4.771
					c3.648-11.133,35.581-11.133,43.794-3.182c0-6.36,8.211-14.313,15.513-14.313c8.211,0,10.947,6.361,13.684,12.723
					c-2.736-13.518,19.161-15.107,27.373-7.951c-7.3-17.494,20.984-24.65,33.758-17.494c-0.912-15.106,41.969-16.697,47.444-3.975
					c-2.736-12.723,10.947-17.494,22.811-18.289c-28.286-53.274,57.479-98.598,106.75-65.998
					c50.182,33.396,24.634,117.684-9.125,152.668c-42.882,46.12-135.946,43.734-197.077,46.12
					c-114.96,3.977-229.922,6.361-343.971,14.313c-61.129,3.977-124.999,8.746-185.215-0.795
					c-8.213-0.795-103.1-16.698-86.677-28.626L-9.34,125.391z"/>
			</g>
		</g>
	</g>
</g>
<g id="OBJECTS">
	<circle opacity="0.75" fill-rule="evenodd" clip-rule="evenodd" fill="#FFFFFF" cx="226.961" cy="55.654" r="20.998"/>
	<g>
		<g>
			<defs>
				<rect id="SVGID_4_" x="-0.001" y="0" width="750" height="500"/>
			</defs>
			<clipPath id="SVGID_5_">
				<use xlink:href="#SVGID_4_"  overflow="visible"/>
			</clipPath>
			<g clip-path="url(#SVGID_5_)">
				<g>
					<path opacity="0.5" fill="#AACBE8" d="M750.393,356.487c-3.053,3.297-6.09,4.924-10.204,5.68
						c-6.896,1.27-15.976-0.01-22.741-0.16c-18.441-0.412-36.89-0.746-55.325-1.469c-55.89-2.189-111.81-3.125-167.734-3.617
						c-66.105-0.584-132.104-2.652-198.181-4.541c-52.135-1.49-104.331-0.596-156.441-2.904
						c-43.926-1.947-87.631-7.846-131.499-10.92c-18.946-1.328-38.307-1.688-57.073-5.01c-9.365-1.66-1.932-46.775-1.243-52.592
						c1.737-14.67,4.002-29.259,6.519-43.798c1.214-7.012,0.466-10.379-0.62-16.926c-1.242-7.5,1.359-13.963,4.645-20.508
						c5.713-11.375,12.904-23.965,24.695-26.345c3.459-0.698,7.035-0.414,10.507-1.041c12.482-2.253,21.44-15.67,33.993-17.42
						c5.739-0.8,11.491,0.98,17.264,1.391c8.911,0.634,17.744-2,26.669-2.295c16.618-0.549,32.403,6.941,48.212,12.495
						c11.728,4.121,24.519,7.302,36.883,5.096c11.807-2.106,20.24-4.823,31.812,1.936c2.651,1.549,5.154,3.456,8.013,4.497
						c10.344,3.771,20.662-3.258,30.406,3.329c8.714,5.889,18.36,9.317,27.485,14.777c3.004,1.796,5.988,3.824,9.367,4.492
						c2.636,0.521,5.342,0.176,8.011-0.074c8.65-0.813,17.411-0.615,25.954,1.055c10.796,2.109,21.354,6.611,32.412,6.92
						c9.396,0.264,16.847-4.883,25.879-7.064c7.169-1.73,13.442,0.332,20.384-0.461c12.783-1.459,23.155-11.09,35.729-13.345
						c11.591-2.079,20.04,2.548,30.419-6.873c2.432-2.207,4.668-4.897,7.697-5.931c2.645-0.902,5.498-0.397,8.271-0.312
						c9.253,0.288,17.974-4.147,26.669-7.566c7.422-2.918,10.76-0.614,17.53,0.625c6.468,1.184,12.549-3.662,19.008-2.079
						c2.251,0.551,4.24,1.92,6.202,3.229c10.137,6.765,19.085,9.86,30.76,10.495c12.018,0.652,25.395,0.489,36.996,4.185
						c4.588,1.462,8.959,3.679,13.602,4.927c12.344,3.318,23.27-0.678,35.201-2.656c12.945-2.146,26.646-0.975,39.766-0.977
						c29.686-0.002,49.885-20.178,76.456-30.542C762.743,154.19,755.748,350.708,750.393,356.487z"/>
					<path opacity="0.3" fill="#FFFFFF" d="M-18.978,218.261c15.599-0.278,35.406-3.877,50.112-2.792
						c24.583,1.815,29.784-3.489,51.057-2.094c24.648,1.741,56.31,2.007,74.7,1.536c22.691-0.558,38.292-3.35,60.04-1.117
						c10.403,1.117-0.946,3.072,27.896,0.978c10.91-0.792,15.128-0.837,27.892-0.418c21.747,0.837,47.278,0.418,65.239,0.837
						c-14.651,0.559-54.364-0.279-78.949,1.257c-30.255,1.674-47.75,2.512-78.481,1.117c-24.11-1.257-53.422-1.676-78.007-0.839
						c-26.474,0.698-40.657,4.746-69.022,2.514c-12.767-1.118-17.493-1.118-30.258-0.838c-8.508,0.139-18.911,0.417-32.148,0.279
						L-18.978,218.261z"/>
					<path opacity="0.3" fill="#FFFFFF" d="M483.955,212.954c25.22-3.768,50.438-0.629,76.921-2.721
						c10.719-0.839,32.785-11.098,41.612-5.235c0.943-6.07,14.186-7.117,18.281-2.092c1.893-3.142,7.566-3.978,12.299-3.352
						c1.257-4.395,12.608-6.072,18.598-5.234c8.197,1.047,10.719,4.815,12.611,9.422c1.889,5.233,0,6.281,8.827,7.117
						c4.726,0.42,12.292-0.836,11.663,2.305L483.955,212.954z"/>
					<path fill="#AACBE8" d="M-1.148,398.488c3.053,3.297,6.09,4.924,10.204,5.68c6.896,1.27,15.976-0.01,22.741-0.16
						c18.441-0.412,36.89-0.746,55.325-1.469c55.89-2.189,111.81-3.125,167.734-3.617c66.105-0.584,132.104-2.652,198.181-4.541
						c52.135-1.49,104.331-0.596,156.441-2.904c43.926-1.947,87.631-7.846,131.499-10.92c18.946-1.328,38.307-1.688,57.073-5.01
						c9.365-1.66,1.932-46.775,1.243-52.592c-1.737-14.67-4.002-29.259-6.519-43.798c-1.214-7.012-0.466-10.379,0.62-16.926
						c1.242-7.5-1.359-13.963-4.645-20.508c-5.713-11.375-12.904-23.965-24.695-26.345c-3.459-0.698-7.035-0.414-10.507-1.041
						c-12.482-2.253-21.44-15.67-33.993-17.42c-5.739-0.8-11.491,0.98-17.264,1.391c-8.911,0.634-17.744-2-26.669-2.295
						c-16.618-0.549-32.403,6.941-48.212,12.495c-11.728,4.121-24.519,7.302-36.883,5.096c-11.807-2.106-20.24-4.823-31.812,1.936
						c-2.651,1.549-5.154,3.456-8.013,4.497c-10.344,3.771-20.662-3.258-30.406,3.329c-8.714,5.889-18.36,9.317-27.485,14.777
						c-3.004,1.796-5.988,3.824-9.367,4.492c-2.636,0.521-5.342,0.176-8.011-0.074c-8.65-0.813-17.411-0.615-25.954,1.055
						c-10.796,2.109-21.354,6.611-32.412,6.92c-9.396,0.264-16.847-4.883-25.879-7.064c-7.169-1.73-13.442,0.332-20.384-0.461
						c-12.783-1.459-23.155-11.09-35.729-13.345c-11.591-2.079-20.04,2.548-30.419-6.873c-2.432-2.207-4.668-4.897-7.697-5.931
						c-2.645-0.902-5.498-0.397-8.271-0.312c-9.253,0.288-17.974-4.147-26.669-7.566c-7.422-2.918-10.76-0.614-17.53,0.625
						c-6.468,1.184-12.549-3.662-19.008-2.079c-2.251,0.551-4.24,1.92-6.202,3.229c-10.137,6.765-19.085,9.86-30.76,10.495
						c-12.018,0.652-25.395,0.489-36.996,4.185c-4.588,1.462-8.959,3.679-13.602,4.927c-12.344,3.318-23.27-0.678-35.201-2.656
						c-12.945-2.146-26.646-0.975-39.766-0.977c-29.686-0.002-49.885-20.178-76.456-30.542
						C-13.499,196.191-6.504,392.708-1.148,398.488z"/>
					<linearGradient id="SVGID_6_" gradientUnits="userSpaceOnUse" x1="394.6211" y1="424.7241" x2="394.6211" y2="215.9863">
						<stop  offset="0.297" style="stop-color:#EFC33F"/>
						<stop  offset="0.7091" style="stop-color:#FFFFFF;stop-opacity:0"/>
					</linearGradient>
					<path fill="url(#SVGID_6_)" d="M-1.148,418.488c3.053,3.297,6.09,4.924,10.204,5.68c6.896,1.27,15.976-0.01,22.741-0.16
						c18.441-0.412,36.89-0.746,55.325-1.469c55.89-2.189,111.81-3.125,167.734-3.617c66.105-0.584,132.104-2.652,198.181-4.541
						c52.135-1.49,104.331-0.596,156.441-2.904c43.926-1.947,87.631-7.846,131.499-10.92c18.946-1.328,38.307-1.688,57.073-5.01
						c9.365-1.66,1.932-46.775,1.243-52.592c-1.737-14.67-4.002-29.259-6.519-43.798c-1.214-7.012-0.466-10.379,0.62-16.926
						c1.242-7.5-1.359-13.963-4.645-20.508c-5.713-11.375-12.904-23.965-24.695-26.345c-3.459-0.698-7.035-0.414-10.507-1.041
						c-12.482-2.253-21.44-15.67-33.993-17.42c-5.739-0.8-11.491,0.98-17.264,1.391c-8.911,0.634-17.744-2-26.669-2.295
						c-16.618-0.549-32.403,6.941-48.212,12.495c-11.728,4.121-24.519,7.302-36.883,5.096c-11.807-2.106-20.24-4.823-31.812,1.936
						c-2.651,1.549-5.154,3.456-8.013,4.497c-10.344,3.771-20.662-3.258-30.406,3.329c-8.714,5.889-18.36,9.318-27.485,14.777
						c-3.004,1.797-5.988,3.824-9.367,4.492c-2.636,0.521-5.342,0.176-8.011-0.074c-8.65-0.813-17.411-0.615-25.954,1.055
						c-10.796,2.109-21.354,6.611-32.412,6.92c-9.396,0.264-16.847-4.883-25.879-7.064c-7.169-1.73-13.442,0.332-20.384-0.461
						c-12.783-1.459-23.155-11.09-35.729-13.345c-11.591-2.079-20.04,2.548-30.419-6.873c-2.432-2.207-4.668-4.897-7.697-5.931
						c-2.645-0.902-5.498-0.397-8.271-0.312c-9.253,0.288-17.974-4.147-26.669-7.566c-7.422-2.918-10.76-0.614-17.53,0.625
						c-6.468,1.184-12.549-3.662-19.008-2.079c-2.251,0.551-4.24,1.92-6.202,3.229c-10.137,6.765-19.085,9.86-30.76,10.495
						c-12.018,0.652-25.395,0.489-36.996,4.185c-4.588,1.462-8.959,3.679-13.602,4.927c-12.344,3.319-23.27-0.678-35.201-2.656
						c-12.945-2.146-26.646-0.975-39.766-0.977c-29.686-0.002-49.885-20.178-76.456-30.542
						C-13.499,216.191-6.504,412.708-1.148,418.488z"/>
				</g>
				<path opacity="0.3" fill="#FFF5F0" d="M170.387,262.383c6.935-0.277,15.74-3.877,22.276-2.791
					c10.929,1.813,13.241-3.489,22.698-2.094c10.957,1.741,25.032,2.008,33.207,1.535c10.087-0.559,17.024-3.35,26.69-1.117
					c4.624,1.117-0.418,3.07,12.402,0.979c4.85-0.793,6.722-0.838,12.398-0.42c9.667,0.838,21.014,0.42,29.003,0.838
					c-6.517,0.559-24.169-0.279-35.099,1.258c-13.451,1.674-21.227,2.51-34.888,1.115c-10.719-1.256-23.75-1.676-34.677-0.838
					c-11.769,0.698-18.073,4.746-30.685,2.513c-5.674-1.116-7.776-1.116-13.45-0.839c-3.783,0.141-8.407,0.42-14.29,0.28
					L170.387,262.383z"/>
				<path opacity="0.3" fill="#FFF5F0" d="M356.189,266.939c15.601-0.278,35.407-3.876,50.112-2.79
					c24.585,1.814,29.783-3.49,51.059-2.094c24.648,1.74,56.309,2.007,74.697,1.535c22.694-0.56,38.295-3.35,60.041-1.117
					c10.405,1.117-0.947,3.072,27.896,0.979c10.911-0.793,15.129-0.838,27.893-0.421c21.746,0.839,47.278,0.421,65.24,0.839
					c-14.653,0.557-54.366-0.279-78.951,1.256c-30.255,1.676-47.75,2.512-78.482,1.116c-24.109-1.256-53.421-1.677-78.008-0.837
					c-26.471,0.697-40.653,4.745-69.019,2.512c-12.766-1.115-17.495-1.115-30.259-0.837c-8.511,0.14-18.911,0.419-32.149,0.278
					L356.189,266.939z"/>
				<g>
					<path fill="#809CD6" d="M786.886,453.75c-17.623,7.666-37.289,11.545-56.037,14.752c-58.922,10.084-119.42,6.598-178.934,4.207
						c-128.365-5.152-254.789-24.121-382.361-37.268c-59.031-6.084-117.691-6.605-176.922-6.023
						c-7.654,0.076-22.631,2.426-29.145-2.396c-10.426-7.719-4.686-33.992-4.082-45.83c1.438-28.295,6.67-59.947-10.82-120.243
						c17.598,0,36.574,10.104,53.791,4.389c9.854-3.271,16.334-7.58,26.887-5.039c12.727,3.066,19.357,1.994,31.617-3.09
						c8.68-3.6,19.676-11.198,29.369-11.206c11.768-0.011,23.961,11.118,34.539,15.597c17.014,7.199,32.861,4.574,50.592,6.629
						c21.41,2.484,39.018,8.359,58.535,15.986c6.551,2.559,13.785,3.402,20.684,4.855c10.434,2.199,20.43,5.781,30.762,8.268
						c10.174,2.447,14.646-0.742,24.289-3.34c10.305-2.775,21.383-2.752,31.637,0.258c7.35,2.158,14.225-0.311,21.539-0.965
						c8.346-0.746,13.205,4.465,21.236,5.906c8.602,1.544,17.236-1.688,25.584-4.268c5.213-1.611,10.785-2.99,16.072-1.645
						c2.707,0.689,5.184,2.059,7.799,3.037c7.516,2.807,15.408,1.049,23.117,1.209c6.039,0.127,16.713,1.676,21.627-2.682
						c2.301-2.041,4.084-5.379,7.162-5.387c2.109-0.008,4.092,1.695,6.141,1.189c1.273-0.313,2.18-1.398,3.047-2.381
						c7.723-8.756,12.879-7.813,23.406-9.191c9.08-1.188,15.736-8.271,23.021-13.109c5.994-3.982,12.361-10.973,20.031-10.156
						c5.842,0.623,10.947,4.031,15.967,7.08c7.654,4.65,15.688,8.676,23.994,12.025c4.52,1.822,9.189,3.461,14.051,3.809
						c8.633,0.619,16.971-2.844,25.49-4.363c10.943-1.951,22.451-0.621,32.662,3.777c4.059,1.748,7.961,3.982,12.271,4.961
						c8.041,1.826,16.318-0.918,24.512-1.84c8.205-0.922,16.613,0.018,24.41,2.729c4.574,1.59,8.988,3.793,13.773,4.533
						c7.354,1.139,14.744-1.279,22.162-1.879c8.49-0.686,17.162,1.074,24.713,5.016c2.99,1.561,5.904,3.557,7.609,6.467
						c3.471,5.923,0.979,13.349,0.506,20.198c-0.604,8.789,2.318,17.377,4.225,25.977c1.908,8.602,2.68,18.137-1.775,25.736
						c-0.266-0.736-2.07-1.02-2.098-0.236c-0.602,17.463,2.217,34.447,2.164,51.795C805.661,435.923,800.651,447.759,786.886,453.75
						z"/>
					<linearGradient id="SVGID_7_" gradientUnits="userSpaceOnUse" x1="378.7568" y1="475.2866" x2="378.7568" y2="246.002">
						<stop  offset="0.297" style="stop-color:#EFC931"/>
						<stop  offset="0.7091" style="stop-color:#FFFFFF;stop-opacity:0"/>
					</linearGradient>
					<path opacity="0.5" fill="url(#SVGID_7_)" d="M786.886,453.75c-17.623,7.666-37.289,11.545-56.037,14.752
						c-58.922,10.084-119.42,6.598-178.934,4.207c-128.365-5.152-254.789-24.121-382.361-37.268
						c-59.031-6.084-117.691-6.605-176.922-6.023c-7.654,0.076-22.631,2.426-29.145-2.396c-10.426-7.719-4.686-33.992-4.082-45.83
						c1.438-28.295,6.67-59.947-10.82-120.243c17.598,0,36.574,10.104,53.791,4.389c9.854-3.271,16.334-7.58,26.887-5.039
						c12.727,3.066,19.357,1.994,31.617-3.09c8.68-3.6,19.676-11.198,29.369-11.206c11.768-0.011,23.961,11.118,34.539,15.597
						c17.014,7.199,32.861,4.574,50.592,6.629c21.41,2.484,39.018,8.359,58.535,15.986c6.551,2.559,13.785,3.402,20.684,4.855
						c10.434,2.199,20.43,5.781,30.762,8.268c10.174,2.447,14.646-0.742,24.289-3.34c10.305-2.775,21.383-2.752,31.637,0.258
						c7.35,2.158,14.225-0.311,21.539-0.965c8.346-0.746,13.205,4.465,21.236,5.906c8.602,1.544,17.236-1.688,25.584-4.268
						c5.213-1.611,10.785-2.99,16.072-1.645c2.707,0.689,5.184,2.059,7.799,3.037c7.516,2.807,15.408,1.049,23.117,1.209
						c6.039,0.127,16.713,1.676,21.627-2.682c2.301-2.041,4.084-5.379,7.162-5.387c2.109-0.008,4.092,1.695,6.141,1.189
						c1.273-0.313,2.18-1.398,3.047-2.381c7.723-8.756,12.879-7.813,23.406-9.191c9.08-1.188,15.736-8.271,23.021-13.109
						c5.994-3.982,12.361-10.973,20.031-10.156c5.842,0.623,10.947,4.031,15.967,7.08c7.654,4.65,15.688,8.676,23.994,12.025
						c4.52,1.822,9.189,3.461,14.051,3.809c8.633,0.619,16.971-2.844,25.49-4.363c10.943-1.951,22.451-0.621,32.662,3.777
						c4.059,1.748,7.961,3.982,12.271,4.961c8.041,1.826,16.318-0.918,24.512-1.84c8.205-0.922,16.613,0.018,24.41,2.729
						c4.574,1.59,8.988,3.793,13.773,4.533c7.354,1.139,14.744-1.279,22.162-1.879c8.49-0.686,17.162,1.074,24.713,5.016
						c2.99,1.561,5.904,3.557,7.609,6.467c3.471,5.923,0.979,13.349,0.506,20.198c-0.604,8.789,2.318,17.377,4.225,25.977
						c1.908,8.602,2.68,18.137-1.775,25.736c-0.266-0.736-2.07-1.02-2.098-0.236c-0.602,17.463,2.217,34.447,2.164,51.795
						C805.661,435.923,800.651,447.759,786.886,453.75z"/>
				</g>
				<g opacity="0.3">
					<path fill="#FFF5F0" d="M468.369,322.444c4.445-1.609,10.566-3.512,16.029-1.696c6.51,2.16,9.032,0.087,15.903-1.258
						c6.472-1.343,11.727-3.221,17.788,0c7.682-4.295,14.961,1.075,23.449,0.271c10.51-1.075,14.552-4.834,26.278-3.223
						c25.157,3.798,10.4,2.225,40.158-0.816c2.731-0.279,9.897,0.85,10.301,1.117c7.679-12.082,34.033-6.209,41.713,1.578
						c2.022-4.027,12.535-5.369,13.746,0c6.064-2.147,11.883-0.598,15.578,1.073c4.622,2.095,9.488-0.536,14.74,0
						c5.256,0.538,20.618,2.954,25.068,5.37L468.369,322.444z"/>
					<path fill="#FFF5F0" d="M4.01,331.094c17.486-2.615,34.974-0.437,53.333-1.89c7.435-0.579,22.735-7.692,28.856-3.629
						c0.656-4.21,9.836-4.937,12.679-1.451c1.311-2.179,5.246-2.759,8.526-2.323c0.874-3.05,8.743-4.21,12.897-3.631
						c5.682,0.728,7.431,3.342,8.744,6.535c1.31,3.629,0,4.354,6.119,4.934c3.279,0.293,8.524-0.579,8.088,1.598L4.01,331.094z"/>
					<path fill="#FFF5F0" d="M239.642,290.411c-25.22-3.77-50.441-0.63-76.92-2.723c-10.72-0.838-32.787-11.098-41.615-5.234
						c-0.944-6.072-14.185-7.119-18.284-2.094c-1.891-3.141-7.566-3.979-12.294-3.352c-1.262-4.396-12.611-6.072-18.601-5.234
						c-8.195,1.049-10.717,4.816-12.61,9.423c-1.891,5.234,0,6.281-8.827,7.119c-4.729,0.418-12.294-0.838-11.665,2.303
						L239.642,290.411z"/>
				</g>
				<g>
					<path fill="#626FBF" d="M-80.689,499.483c3.318,3.385,6.661,5.099,11.228,5.974c7.654,1.469,17.809,0.453,25.355,0.499
						c20.57,0.123,41.144,0.323,61.715,0.135c62.362-0.568,124.725,0.117,187.082,1.245c73.709,1.332,147.335,1.178,221.047,1.204
						c58.158,0.021,116.322,2.428,174.474,1.63c49.019-0.673,97.894-5.303,146.877-7.104c21.156-0.779,42.748-0.577,63.755-3.354
						c10.483-1.389,3.369-46.703,2.754-52.538c-1.556-14.715-3.701-29.366-6.129-43.971c-1.171-7.045-0.25-10.389,1.131-16.902
						c1.579-7.462-1.152-13.997-4.646-20.638c-6.073-11.536-13.763-24.33-26.845-27.05c-3.838-0.8-7.832-0.618-11.686-1.346
						c-13.857-2.612-23.495-16.285-37.443-18.398c-6.377-0.966-12.835,0.647-19.281,0.89c-9.951,0.376-19.729-2.514-29.671-3.067
						c-18.511-1.029-36.303,6-54.07,11.095c-13.181,3.779-27.522,6.588-41.249,4.025c-13.106-2.449-22.438-5.409-35.513,1.013
						c-2.997,1.472-5.836,3.305-9.05,4.263c-11.629,3.47-22.948-3.855-33.983,2.447c-9.866,5.635-20.71,8.781-31.023,13.976
						c-3.396,1.708-6.775,3.649-10.559,4.218c-2.952,0.444-5.96,0.021-8.929-0.307c-9.622-1.063-19.394-1.119-28.961,0.303
						c-12.09,1.795-23.977,5.99-36.313,5.979c-10.481-0.009-18.653-5.371-28.666-7.812c-7.946-1.938-14.994-0.06-22.711-1.054
						c-14.213-1.829-25.525-11.757-39.483-14.375c-12.867-2.415-22.406,1.966-33.732-7.752c-2.652-2.276-5.076-5.032-8.427-6.152
						c-2.925-0.979-6.119-0.556-9.211-0.551c-10.322,0.02-19.928-4.667-29.534-8.336c-8.199-3.135-11.978-0.927-19.559,0.116
						c-7.241,0.996-13.894-4.024-21.136-2.63c-2.523,0.487-4.777,1.798-6.998,3.05c-11.477,6.467-21.532,9.303-34.564,9.599
						c-13.413,0.304-28.322-0.246-41.351,3.112c-5.154,1.327-10.083,3.417-15.291,4.53c-13.847,2.959-25.923-1.353-39.173-3.676
						c-14.375-2.521-29.68-1.747-44.304-2.127c-33.094-0.864-55.087-21.618-84.439-32.748
						C-89.201,296.897-86.51,493.55-80.689,499.483z"/>
					<linearGradient id="SVGID_8_" gradientUnits="userSpaceOnUse" x1="363.6616" y1="510.3315" x2="363.6616" y2="296.897">
						<stop  offset="0.1091" style="stop-color:#F9F932"/>
						<stop  offset="0.7091" style="stop-color:#FFFFFF;stop-opacity:0"/>
					</linearGradient>
					<path opacity="0.5" fill="url(#SVGID_8_)" d="M-80.689,499.483c3.318,3.385,6.661,5.099,11.228,5.974
						c7.654,1.469,17.809,0.453,25.355,0.499c20.57,0.123,41.144,0.323,61.715,0.135c62.362-0.568,124.725,0.117,187.082,1.245
						c73.709,1.332,147.335,1.178,221.047,1.204c58.158,0.021,116.322,2.428,174.474,1.63c49.019-0.673,97.894-5.303,146.877-7.104
						c21.156-0.779,42.748-0.577,63.755-3.354c10.483-1.389,3.369-46.703,2.754-52.538c-1.556-14.715-3.701-29.366-6.129-43.971
						c-1.171-7.045-0.25-10.389,1.131-16.902c1.579-7.462-1.152-13.997-4.646-20.638c-6.073-11.536-13.763-24.33-26.845-27.05
						c-3.838-0.8-7.832-0.618-11.686-1.346c-13.857-2.612-23.495-16.285-37.443-18.398c-6.377-0.966-12.835,0.647-19.281,0.89
						c-9.951,0.376-19.729-2.514-29.671-3.067c-18.511-1.029-36.303,6-54.07,11.095c-13.181,3.779-27.522,6.588-41.249,4.025
						c-13.106-2.449-22.438-5.409-35.513,1.013c-2.997,1.472-5.836,3.305-9.05,4.263c-11.629,3.47-22.948-3.855-33.983,2.447
						c-9.866,5.635-20.71,8.781-31.023,13.976c-3.396,1.708-6.775,3.649-10.559,4.218c-2.952,0.444-5.96,0.021-8.929-0.307
						c-9.622-1.063-19.394-1.119-28.961,0.303c-12.09,1.795-23.977,5.99-36.313,5.979c-10.481-0.009-18.653-5.371-28.666-7.812
						c-7.946-1.938-14.994-0.06-22.711-1.054c-14.213-1.829-25.525-11.757-39.483-14.375c-12.867-2.415-22.406,1.966-33.732-7.752
						c-2.652-2.276-5.076-5.032-8.427-6.152c-2.925-0.979-6.119-0.556-9.211-0.551c-10.322,0.02-19.928-4.667-29.534-8.336
						c-8.199-3.135-11.978-0.927-19.559,0.116c-7.241,0.996-13.894-4.024-21.136-2.63c-2.523,0.487-4.777,1.798-6.998,3.05
						c-11.477,6.467-21.532,9.303-34.564,9.599c-13.413,0.304-28.322-0.246-41.351,3.112c-5.154,1.327-10.083,3.417-15.291,4.53
						c-13.847,2.959-25.923-1.353-39.173-3.676c-14.375-2.521-29.68-1.747-44.304-2.127c-33.094-0.864-55.087-21.618-84.439-32.748
						C-89.201,296.897-86.51,493.55-80.689,499.483z"/>
				</g>
				<g opacity="0.3">
					<path fill="#FFF5F0" d="M49.161,365.042c3.084-1.115,7.33-2.434,11.118-1.177c4.514,1.5,6.263,0.062,11.028-0.871
						c4.484-0.932,8.129-2.233,12.334,0c5.325-2.979,10.372,0.744,16.257,0.187c7.289-0.743,10.092-3.351,18.22-2.233
						c17.445,2.633,7.214,1.541,27.848-0.565c1.894-0.193,6.861,0.589,7.14,0.773c5.328-8.377,23.601-4.304,28.926,1.096
						c1.401-2.792,8.69-3.724,9.531,0c4.204-1.49,8.241-0.415,10.802,0.743c3.205,1.452,6.578-0.372,10.223,0
						c3.644,0.373,14.296,2.048,17.38,3.724L49.161,365.042z"/>
					<path fill="#FFF5F0" d="M383.882,418.911c6.938-0.277,15.739-3.875,22.274-2.789c10.932,1.813,13.242-3.489,22.698-2.094
						c10.959,1.739,25.034,2.005,33.209,1.534c10.087-0.56,17.022-3.351,26.69-1.117c4.621,1.117-0.422,3.071,12.4,0.978
						c4.853-0.793,6.722-0.838,12.398-0.42c9.668,0.839,21.018,0.42,29.003,0.839c-6.517,0.56-24.167-0.279-35.097,1.255
						c-13.452,1.675-21.229,2.514-34.891,1.119c-10.717-1.259-23.749-1.677-34.675-0.839c-11.769,0.699-18.074,4.745-30.684,2.513
						c-5.675-1.118-7.777-1.118-13.448-0.839c-3.785,0.141-8.409,0.42-14.293,0.28L383.882,418.911z"/>
					<path fill="#FFF5F0" d="M276.325,383.218c6.935-0.276,15.742-3.875,22.278-2.79c10.928,1.814,13.24-3.49,22.696-2.094
						c10.958,1.741,25.033,2.008,33.208,1.535c10.087-0.56,17.024-3.35,26.691-1.117c4.623,1.117-0.42,3.071,12.399,0.978
						c4.85-0.793,6.725-0.839,12.398-0.42c9.668,0.839,21.017,0.42,29.004,0.839c-6.514,0.558-24.167-0.279-35.097,1.257
						c-13.45,1.675-21.227,2.512-34.889,1.115c-10.717-1.257-23.748-1.673-34.678-0.837c-11.768,0.698-18.071,4.746-30.682,2.513
						c-5.676-1.116-7.779-1.116-13.453-0.837c-3.782,0.138-8.406,0.418-14.291,0.277L276.325,383.218z"/>
					<path fill="#FFF5F0" d="M477.385,361.98c15.601-0.28,35.408-3.877,50.115-2.792c24.584,1.814,29.783-3.488,51.06-2.092
						c24.647,1.737,56.309,2.008,74.698,1.535c22.69-0.56,38.291-3.353,60.036-1.117c10.403,1.117-0.944,3.07,27.896,0.977
						c10.912-0.792,15.128-0.839,27.894-0.419c21.745,0.837,47.274,0.419,65.24,0.837c-14.654,0.56-54.367-0.277-78.952,1.257
						c-30.256,1.675-47.747,2.514-78.479,1.117c-24.11-1.257-53.423-1.677-78.008-0.838c-26.474,0.696-40.655,4.747-69.022,2.514
						c-12.766-1.118-17.496-1.118-30.26-0.837c-8.505,0.138-18.908,0.417-32.146,0.277L477.385,361.98z"/>
				</g>
				<g>
					<path opacity="0.2" fill="#FFFFFF" d="M629.36,396.055c-16.66-2.755-49.979-8.265-53.486,14.17
						c-6.137-1.969-136.563,28.35-136.124,34.254c-3.945-0.394-8.769,0-10.083,3.936c-6.166-4.314-10.521-2.361-14.028,1.573
						c-0.569-5.287-5.243-10.212-8.016-11.736c-9.687-5.326-26.017-3.66-31.003,9.77c-2.63-4.329-10.96-4.329-12.275-0.393
						c0.877-5.511-7.869-7.773-10.742-3.838c0.768-10.823-10.74-19.777-22.139-19.385c-14.028,0.394-17.096,12.398-17.096,18.105
						c-4.824-2.361-12.276-1.574-13.591,3.936c-7.452-4.723-17.098-4.329-21.92,2.361c-1.753-5.51-17.097-5.51-21.043-1.574
						c0-3.148-3.945-7.084-7.454-7.084c-3.945,0-5.261,3.148-6.575,6.297c1.314-6.691-9.207-7.479-13.152-3.936
						c3.507-8.659-10.083-12.201-16.221-8.659c0.438-7.478-20.167-8.266-22.797-1.968c1.315-6.298-5.261-8.659-10.96-9.053
						c-9.293-27.776-24.62-25.913-48.293-9.776c-24.112,16.53-14.837,35.359,1.384,52.677
						c20.604,22.828,65.322,21.647,94.695,22.828c55.239,1.968,110.478,3.148,165.278,7.084c29.372,1.969,60.061,4.329,88.996-0.394
						c3.945-0.393,49.539-8.265,41.648-14.168L629.36,396.055z"/>
					<path opacity="0.2" fill="#FFFFFF" d="M180.321,450.186c13.144-2.11,39.432-6.331,42.199,10.852
						c4.843-1.507,9.339,1.507,8.994,6.028c3.113-0.301,6.917,0,7.955,3.015c4.864-3.305,8.3-1.809,11.067,1.205
						c0.45-4.05,4.137-7.821,6.325-8.989c7.642-4.079,20.527-2.803,24.46,7.483c2.076-3.316,8.647-3.316,9.685-0.302
						c-0.692-4.22,6.209-5.953,8.475-2.939c-0.605-8.289,8.474-15.146,17.467-14.846c11.069,0.302,13.489,9.495,13.489,13.866
						c3.806-1.809,9.685-1.206,10.723,3.015c5.88-3.617,13.49-3.315,17.295,1.809c1.383-4.221,13.489-4.221,16.603-1.206
						c0-2.411,3.112-5.426,5.881-5.426c3.112,0,4.149,2.411,5.188,4.823c-1.038-5.125,7.264-5.728,10.377-3.015
						c-2.768-6.632,7.955-9.345,12.798-6.632c-0.346-5.728,15.91-6.33,17.986-1.507c-1.038-4.823,4.149-6.632,8.647-6.934
						c-10.724-20.196,21.79-37.379,40.469-25.02c19.024,12.66,9.339,44.613-3.459,57.876c-16.257,17.484-51.538,16.58-74.713,17.484
						c-43.582,1.508-87.164,2.412-130.4,5.427c-23.174,1.507-47.387,3.315-70.215-0.302c-3.114-0.302-39.085-6.33-32.86-10.853
						L180.321,450.186z"/>
				</g>
			</g>
			<path opacity="0.5" clip-path="url(#SVGID_5_)" fill="#4D405E" d="M807.467,403.202c-1.171-7.045-0.25-10.389,1.131-16.902
				c1.27-5.997-0.248-11.396-2.706-16.731c1.778-3.216,2.665-6.756,2.939-10.419c10.656-0.017,19.901-0.026,25.493-0.24
				c-7.455-0.174-16.22-0.203-25.469-0.238c0.287-4.759-0.405-9.7-1.44-14.368c-1.906-8.6-4.828-17.188-4.225-25.977
				c0.473-6.85,2.965-14.275-0.506-20.198c-1.705-2.91-4.619-4.906-7.609-6.467c-0.077-0.04-0.155-0.076-0.232-0.116
				c-0.485-3.005-0.988-6.007-1.499-9.007c0.018-0.104,0.034-0.201,0.052-0.307c0.725-4.373,0.137-8.393-1.126-12.282
				c0.197-2.343,0.624-4.69,1.126-7.718c1.242-7.5-1.359-13.963-4.645-20.508c-5.713-11.375-12.904-23.965-24.695-26.345
				c-1.232-0.249-2.48-0.371-3.732-0.456c1.469-34.018,2.42-60.733,2.42-60.733c-26.571,10.364-46.771,30.54-76.456,30.542
				c-13.119,0.002-26.82-1.17-39.766,0.977c-11.932,1.979-22.857,5.975-35.201,2.656c-4.643-1.248-9.014-3.465-13.602-4.927
				c-11.602-3.695-24.979-3.532-36.996-4.185c-11.675-0.635-20.623-3.73-30.76-10.495c-1.962-1.309-3.951-2.678-6.202-3.229
				c-6.459-1.583-12.54,3.262-19.008,2.079c-6.771-1.239-10.108-3.543-17.53-0.625c-8.695,3.419-17.416,7.854-26.669,7.566
				c-2.772-0.086-5.626-0.591-8.271,0.312c-3.029,1.033-5.266,3.724-7.697,5.931c-10.379,9.421-18.828,4.794-30.419,6.873
				c-12.573,2.255-22.945,11.886-35.729,13.345c-6.941,0.793-13.215-1.27-20.384,0.461c-9.032,2.182-16.482,7.328-25.879,7.064
				c-11.059-0.309-21.616-4.811-32.412-6.92c-8.543-1.67-17.304-1.867-25.954-1.055c-2.669,0.25-5.375,0.596-8.011,0.074
				c-3.379-0.668-6.363-2.696-9.367-4.492c-9.125-5.46-18.771-8.889-27.485-14.777c-9.744-6.587-20.063,0.442-30.406-3.329
				c-2.858-1.041-5.361-2.947-8.013-4.497c-11.571-6.759-20.005-4.042-31.812-1.936c-12.364,2.206-25.155-0.975-36.883-5.096
				c-15.809-5.554-31.594-13.044-48.212-12.495c-8.925,0.294-17.758,2.929-26.669,2.295c-5.772-0.411-11.524-2.191-17.264-1.391
				c-12.553,1.75-21.511,15.167-33.993,17.42c-3.472,0.626-7.048,0.342-10.507,1.041c-11.791,2.379-18.982,14.969-24.695,26.345
				c-3.285,6.545-5.887,13.008-4.645,20.508c1.086,6.547,1.834,9.914,0.62,16.926c-1.379,7.97-2.671,15.956-3.854,23.961
				c-1.35-0.104-2.694-0.169-4.03-0.169c0.963,3.321,1.847,6.542,2.677,9.694c-0.462,3.434-0.904,6.87-1.312,10.312
				c-0.398,3.367-3.057,19.9-3.409,33.552c-11.535-6.067-22.938-12.754-35.742-17.608c0,0,2.691,196.653,8.511,202.586
				c3.318,3.385,6.661,5.099,11.228,5.974c7.654,1.469,17.809,0.453,25.355,0.499c20.57,0.123,41.144,0.323,61.715,0.135
				c62.362-0.568,124.725,0.117,187.082,1.245c1.853,0.033,3.704,0.056,5.557,0.087c9.585,0.753,19.329,0.76,29.065,0.426
				c62.148,0.765,124.257,0.669,186.425,0.691c58.158,0.021,116.322,2.428,174.474,1.63c49.019-0.673,97.894-5.303,146.877-7.104
				c21.156-0.779,42.748-0.577,63.755-3.354c10.483-1.389,3.369-46.703,2.754-52.538
				C812.04,432.458,809.895,417.806,807.467,403.202z"/>
		</g>
		<g>
			<g>
				<defs>
					<rect id="SVGID_9_" x="-0.001" y="0" width="750" height="500"/>
				</defs>
				<clipPath id="SVGID_10_">
					<use xlink:href="#SVGID_9_"  overflow="visible"/>
				</clipPath>
				<g clip-path="url(#SVGID_10_)">
					<g>
						<g>
							<path fill="#675C7A" d="M-69.231,209.055c9.576,9,18.087,21,26.599,31c20.215,24,50.006,38,67.029,64
								c8.512,12,9.576,24,21.279,34c10.64,11,26.599,17,37.239,27c23.407,19,39.367,50,75.542,48c23.407-1,43.623-16,67.03-18
								c24.471-2,50.006,14,63.837,32c18.087,23,31.919,48,56.39,66c19.151,14,44.687,28,60.646,45c-28.727,10-70.222,2-100.013,1
								c-59.582-1-119.164-3-178.746-7c-50.006-4-103.205-6-152.146-13c-23.407-3-47.878,0-68.094,0L-69.231,209.055z"/>
						</g>
						<g opacity="0.2">
							<path fill="#675C7A" d="M250.36,547.055c-16-20-17-54-35-74c-31-33-58,19-86,5c-12-6-13-27-27-30c-12-3-26,16-37,11
								c-9-3-18-31-22-40c-6-14-10-28-17-41c-10-16-23-41-44-34c-28,9-53,48-66,74c-13,23-22,52-23,78c-2,31,9,48,41,58
								L250.36,547.055z"/>
						</g>
					</g>
					<g>
						<g>
							<path fill="#4D405E" d="M124.36,549.055c40.36-8,66.912-27,98.775-49c26.552-18,63.726-39,96.651-39
								c21.242,1,31.863,4,53.104-4c13.808-5,23.366-12,35.05-20c23.365-17,52.042-38,80.719-44c31.863-6,63.726,9,94.526,10
								c36.111,2,52.043-18,73.285-42c24.428-26,48.856-51,75.408-74c24.429-21,41.422-22,73.285-14c19.117,4,43.546,13,62.663,14
								c3.187,21-9.559,49-10.62,71c-1.063,27,1.062,55,2.124,82c2.124,32,6.372,65,3.187,96L124.36,549.055z"/>
						</g>
						<g opacity="0.2">
							<path fill="#4D405E" d="M316.36,558.055c22.784-11,34.598-48,55.695-63c29.536-21,54.007,25,81.01-3
								c26.16-27,43.881-53,82.698-49c26.16,3,45.568,31,72.572,18c27.848-14,48.101-52,70.04-76c19.409-20,47.257-40,73.416-41
								c24.473-1,54.852,6,74.26,23c11.814,10,13.502,19,16.033,36c3.376,25,9.283,50,12.658,75c2.531,19,7.595,104-20.253,103
								L316.36,558.055z"/>
						</g>
					</g>
				</g>
			</g>
			<path fill="#4D405E" d="M385.794,419.904l-0.005-0.001c0.062-0.092,0.116-0.186,0.155-0.281c0.112-0.272-0.08-1.007-0.231-1.399
				l0.011-0.019c-0.021-0.053-0.046-0.1-0.076-0.136c-0.019-0.037-0.035-0.067-0.049-0.085c-0.015-0.019-0.03-0.036-0.047-0.053
				c-0.004-0.037-0.014-0.068-0.029-0.084c-0.049-0.065-0.175-0.196-0.254-0.219c-0.015-0.004-0.03-0.006-0.045-0.005
				c-0.064-0.133-0.168-0.323-0.315-0.312c-0.084-0.092-0.242-0.162-0.326-0.129c-0.152,0.063-0.272,0.308-0.391,0.437
				c-0.073,0.086-0.264,0.271-0.245,0.394c0.001,0.004,0.002,0.008,0.003,0.011c-0.018,0.002-0.036,0.005-0.054,0.011
				c-0.216,0.062-0.184,0.293-0.092,0.542c0.006,0.015,0.012,0.029,0.018,0.044c-0.025,0.26,0.088,0.456,0.19,0.713
				c0.123,0.304,0.336,0.527,0.62,0.674l0.231,0.151c-0.075,0.831-0.251,2.461-0.403,3.711c-0.049,0.22-0.116,0.581-0.174,0.923
				c-0.448-0.329-1.018-0.736-1.601-1.152c0.012-0.043,0.025-0.084,0.036-0.127c0.034-0.137,0.021-0.23-0.021-0.294
				c-0.109-0.264-0.432-0.393-0.693-0.534c-0.504-0.272-0.884-0.724-1.238-1.173c-0.113-0.142-0.226-0.286-0.367-0.4
				c-0.247-0.201-0.576-0.264-0.882-0.252c-0.162,0.007-0.347-0.015-0.443-0.145c-0.152,0.064-0.318,0.095-0.482,0.09
				c-0.027,0-0.052-0.001-0.074-0.001c-0.242-0.084-0.538-0.175-0.82-0.259c-0.009-0.012-0.018-0.025-0.026-0.037
				c-0.121-0.155-0.622-0.351-0.612-0.308c0.032,0.132,0.06,0.238,0.08,0.33c-0.131-0.297-0.11-0.723-0.051-1.118
				c0.058-0.021,0.114-0.045,0.168-0.068c0.161-0.07,0.313-0.158,0.457-0.261c0.302-0.016,0.7-0.242,0.949-0.403
				c0.03-0.02,0.06-0.04,0.089-0.06c0.199-0.063,0.409-0.196,0.522-0.291c0.089-0.075,0.162-0.15,0.223-0.229
				c0.082,0.076,0.145,0.2,0.299,0.19c-0.111,0.007,0.001-0.457,0.028-0.502c0.07-0.114,0.174-0.182,0.295-0.214
				c0.068,0.142,0.116,0.297,0.161,0.449c0.078-0.064,0.117-0.171,0.125-0.275s-0.012-0.209-0.031-0.312
				c0.156,0.031,0.32,0.023,0.474-0.022c-0.034-0.03-0.083-0.03-0.126-0.042c-0.109-0.028-0.192-0.128-0.234-0.238
				c-0.033-0.086-0.046-0.179-0.054-0.272c0.016-0.001,0.03-0.002,0.045-0.005c0.017-0.002,0.033-0.007,0.05-0.011
				c0.006,0.019,0.011,0.031,0.013,0.031c0.114,0.011,0.146-0.032,0.162-0.092c0.159,0.008,0.328,0.036,0.349,0.118
				c-0.015-0.061-0.037-0.119-0.063-0.175c0.272-0.233,0.397-0.629,0.305-0.977c0.019,0.071,0.063,0.136,0.121,0.18
				c0.119-0.156,0.138-0.382,0.045-0.555c-0.04-0.075-0.098-0.138-0.158-0.197c0.004-0.066,0.026-0.168,0.003-0.204
				c-0.051-0.076-0.096-0.041-0.164-0.084c-0.144-0.088-0.115-0.067-0.134-0.217c-0.017-0.144,0.002-0.282-0.03-0.427
				c0.041,0.042,0.075,0.092,0.1,0.146c0.027-0.173,0.038-0.361-0.054-0.51c-0.061-0.099-0.158-0.168-0.227-0.261
				c-0.093-0.124-0.09-0.268-0.188-0.387c-0.085-0.103-0.216-0.176-0.336-0.228c-0.214-0.09-0.449-0.171-0.654-0.271
				c0.051-0.001,0.112-0.006,0.161-0.013c-0.003-0.095-0.069-0.172-0.151-0.216s-0.177-0.059-0.269-0.072
				c0.143-0.067,0.299-0.107,0.457-0.118c-0.034-0.093-0.142-0.137-0.239-0.155c-0.327-0.06-0.636,0.222-0.867-0.052
				c-0.049-0.059-0.328-0.478-0.17-0.524c-0.084,0.024-0.137,0.113-0.146,0.2c-0.009,0.087,0.016,0.174,0.04,0.258
				c-0.057,0.003-0.093-0.058-0.122-0.105c-0.187-0.312-0.445-0.326-0.762-0.329c-0.163-0.001-0.383,0.017-0.529-0.066
				c-0.111-0.063-0.18-0.195-0.168-0.322c-0.073-0.027-0.156,0.04-0.168,0.117s0.029,0.154,0.082,0.212
				c-0.106,0.001-0.191-0.086-0.292-0.121c-0.106-0.037-0.233-0.011-0.316,0.066c-0.14,0.13-0.152,0.235-0.349,0.21
				c-0.151-0.021-0.306-0.073-0.466-0.084c-0.344-0.022-0.661,0.04-0.928,0.271c-0.212,0.184-0.159,0.456-0.44,0.447
				c-0.082-0.002-0.178-0.051-0.177-0.133c-0.068,0.154,0.041,0.359,0.207,0.39c-0.184,0.015-0.375,0.031-0.536,0.123
				c-0.16,0.092-0.281,0.28-0.234,0.459c0.057-0.083,0.165-0.128,0.263-0.11c-0.119-0.021-0.089,0.426-0.071,0.478
				c0.026,0.075,0.107,0.146,0.18,0.218c-0.093,0.065-0.175,0.138-0.226,0.231c-0.041,0.074-0.053,0.161-0.082,0.241
				c-0.094,0.27-0.248,0.38-0.508,0.258c-0.02,0.181,0.109,0.353,0.268,0.421c0.159,0.068,0.34,0.053,0.507,0.012
				c-0.084,0.145-0.415,0.295-0.431,0.464c-0.016,0.168,0.062,0.359,0.214,0.41c-0.021-0.16,0.104-0.325,0.257-0.337
				c-0.02,0.111,0.017,0.23,0.094,0.308c0.047,0.048,0.108,0.079,0.156,0.126c0.064,0.063,0.1,0.146,0.127,0.234
				c-0.145,0.292-0.16,0.642-0.034,0.943c0.059,0.141,0.158,0.325,0.289,0.449c0.007,0.098,0.016,0.191,0.019,0.257
				c0.02,0.416,0.27,0.8,0.543,1.097c0.136,0.148,0.291,0.301,0.461,0.429c-0.043,0.305-0.149,0.628-0.39,0.841
				c0.012-0.016,0.024-0.032,0.036-0.048c-0.023-0.003,0.145-0.184,0.102-0.188c-0.406-0.052-0.592-0.07-0.749-0.008l0.007-0.029
				c-0.093,0.051-0.184,0.11-0.272,0.174c-0.192-0.05-0.374-0.093-0.543-0.093c-0.056-0.061-0.123-0.106-0.205-0.127
				c-0.459-0.115-0.86-0.165-1.27-0.053c-0.569,0.157-0.961,0.282-1.731,0.262c-0.293-0.008-0.125-0.121-0.416-0.083
				c-0.298,0.038-0.546,0.104-0.582,0.415c-0.018,0.157-0.028,0.314-0.031,0.471c-1.167,0.118-2.068,0.014-2.461,0.008
				c-0.004-0.013-0.009-0.026-0.015-0.041c0.02-0.226-0.136-0.526-0.227-0.691l-0.003,0.015c-0.373-1.121-0.99-3.039-1.25-3.966
				l0.196-0.176c0.259-0.188,0.438-0.44,0.514-0.759c0.063-0.27,0.146-0.48,0.082-0.733c0.004-0.016,0.008-0.031,0.011-0.046
				c0.054-0.26,0.052-0.493-0.171-0.522c-0.019-0.003-0.037-0.003-0.054-0.002c0-0.004,0.001-0.008,0.001-0.011
				c0-0.124-0.216-0.279-0.301-0.354c-0.136-0.109-0.291-0.333-0.45-0.373c-0.088-0.021-0.234,0.072-0.304,0.175
				c-0.147,0.011-0.221,0.214-0.265,0.355c-0.015,0.001-0.03,0.005-0.044,0.012c-0.074,0.033-0.18,0.182-0.219,0.253
				c-0.013,0.019-0.017,0.051-0.016,0.088c-0.013,0.02-0.026,0.039-0.039,0.06c-0.011,0.02-0.023,0.052-0.035,0.091
				c-0.024,0.041-0.042,0.09-0.055,0.146l0.013,0.016c-0.091,0.412-0.172,1.166-0.021,1.419c0.054,0.088,0.122,0.173,0.196,0.255
				l-0.004,0.002c0.073,0.368,0.538,4.938,0.778,5.944c0.096,0.405,0.426,0.724,0.835,0.803c0.077,0.015,0.155,0.019,0.234,0.015
				c0.724,0.125,2.393,0.189,3.533,0.229c0.116,0.186,0.253,0.356,0.404,0.5c0.091,0.106,0.74,0.059,1.276-0.09l-0.696,2.794
				c0.039-0.101,0.075-0.197,0.109-0.29c-0.05,0.168-0.102,0.335-0.157,0.501c-0.212,0.637-1.427,2.599-2.057,2.924
				c-0.214,0.11-0.412,0.326-0.369,0.563c0.046,0.248,0.315,0.37,0.52,0.518c0.486,0.35,0.47,0.814,0.616,1.327
				c0.023,0.081,0.054,0.159,0.093,0.233c0.142,0.272,0.381,0.494,0.666,0.611c-0.078,0.363-0.138,0.646-0.146,0.698
				c-0.14,0.887-0.264,1.785-0.285,2.685c-0.055,2.29,0.007,7.787,0.047,10.098c0.033,1.853-0.407,9.282-0.268,10.441
				c0.151,0.056,0.28,0.099,0.396,0.133c-0.004,0.015-0.008,0.028-0.012,0.042c-0.06,0.002-0.121,0.006-0.181,0.011
				c-0.274,0.021-0.346,0.299-0.411,0.52c-0.033,0.111-0.1,0.248-0.182,0.384c-0.013,0.003-0.026,0.007-0.038,0.011l0.028,0.006
				c-0.068,0.11-0.145,0.219-0.222,0.312c-0.012,0-0.024,0-0.037,0l0.03,0.007c-0.055,0.064-0.109,0.122-0.16,0.164
				c-0.069,0.059-0.141,0.123-0.218,0.193c-0.012,0-0.024,0-0.036,0.001l0.028,0.007c-0.255,0.234-0.564,0.536-1.004,0.892
				c0,0-0.159,0.257-0.12,0.491c0,0.002-0.001,0.005-0.002,0.007c-0.039,0.143,0.144,0.423,0.261,0.5
				c0.192,0.126,0.449,0.12,0.669,0.112c0.342-0.012,0.784-0.118,1.227-0.29c0.197-0.077,0.77-0.7,1.096-1.016
				c0.112-0.004,0.224-0.011,0.329-0.014c0.007,0.01,0.014,0.016,0.021,0.014c0.179-0.047,0.254-0.163,0.252-0.18
				c-0.016-0.132-0.012-0.256-0.011-0.356c0.017-0.027,0.01-0.056,0.014-0.133c0.009-0.19,0.014-0.382,0.014-0.572
				c0.003-0.075,0.007-0.15,0.011-0.225c0.002-0.035,0.004-0.069,0.006-0.104c0.001-0.021,0.002-0.045-0.007-0.065
				c-0.024-0.051-0.1-0.05-0.148-0.021c-0.005,0.004-0.011,0.008-0.016,0.013c0.002-0.032,0.005-0.063,0.009-0.092
				c0.01-0.068,0.037-0.282,0.078-0.614c0.116-0.024,0.245-0.053,0.398-0.081c0.076-0.54,0.815-6.586,1.07-10.136
				c0.26-3.617,1.099-7.279,1.267-8.709l0.365-0.067c0.161,2.925,1.289,17.665,1.418,18.763c0.089,0.02,0.168,0.036,0.242,0.052
				c0.028,0.335,0.048,0.57,0.06,0.69c-0.041-0.009-0.084,0.001-0.101,0.038c-0.01,0.021-0.009,0.046-0.008,0.069
				c0.001,0.037,0.003,0.073,0.005,0.11c0.003,0.079,0.006,0.158,0.008,0.238c-0.002,0.201,0,0.403,0.007,0.605
				c0.002,0.081-0.004,0.11,0.012,0.141c0,0.106,0.002,0.237-0.016,0.377c-0.002,0.018,0.072,0.142,0.251,0.193
				c0.007,0.002,0.014-0.004,0.021-0.014c0.105,0.004,0.217,0.013,0.329,0.018c0.322,0.339,0.889,1.006,1.085,1.09
				c0.441,0.188,0.884,0.306,1.226,0.323c0.221,0.011,0.479,0.021,0.672-0.11c0.119-0.08,0.305-0.374,0.268-0.525
				c0-0.003-0.001-0.006-0.001-0.008c0.042-0.247-0.114-0.521-0.114-0.521c-0.438-0.382-0.743-0.704-0.996-0.957l0.028-0.006
				c-0.012-0.001-0.024-0.001-0.036-0.002c-0.075-0.075-0.147-0.145-0.215-0.207c-0.051-0.045-0.104-0.106-0.159-0.176l0.031-0.007
				c-0.013,0-0.025,0-0.037,0c-0.076-0.099-0.152-0.215-0.219-0.333l0.028-0.006c-0.012-0.004-0.025-0.008-0.038-0.012
				c-0.08-0.145-0.146-0.29-0.178-0.409c-0.063-0.233-0.131-0.529-0.405-0.555c-0.087-0.008-0.175-0.015-0.263-0.015
				c-0.004-0.025-0.009-0.05-0.013-0.074c0.123-0.045,0.264-0.101,0.438-0.171c0.164-1.156,0.415-8.728,0.487-10.579
				c0.09-2.31,0.533-7.747,0.527-10.037c-0.002-0.729-0.078-1.319-0.188-1.907c0.452-0.213,0.772-0.527,1.061-1.013
				c0.062-0.104,0.124-0.212,0.218-0.289c0.261-0.216,0.7-0.145,0.913-0.408c0.179-0.221,0.098-0.561,0.232-0.811
				c0.028-0.052,0.065-0.101,0.077-0.159c0.016-0.082-0.024-0.164-0.063-0.239c-0.404-0.775-0.854-1.384-1.08-2.24
				c-0.249-0.94-0.368-1.924-0.228-2.891c0.037-0.261,0.083-0.521,0.131-0.779c0.42,0.262,0.855,0.49,1.051,0.584
				c0.127,0.061,0.796,0.576,0.777,0.464c-0.001-0.004-0.001-0.008-0.001-0.012c0.017-0.002,0.035-0.007,0.055-0.016
				c0.049-0.022,0.098-0.061,0.146-0.108c0.931,0.523,1.857,1.055,1.951,1.142c0.42,0.208,0.846,0.279,1.311,0.327
				c0.006,0.001,0.009-0.002,0.014-0.003l0.004,0.011c0.564,0.042,0.981-0.652,1.036-1.297
				C386.038,425.016,385.776,420.28,385.794,419.904z M377.78,419.037c0.021-0.017,0.044-0.032,0.066-0.049
				c-0.026,0.025-0.063,0.051-0.097,0.07C377.76,419.05,377.771,419.043,377.78,419.037z M380.868,416.538
				C380.869,416.538,380.869,416.537,380.868,416.538c0.001,0,0.002,0.001,0.002,0.002
				C380.869,416.539,380.869,416.539,380.868,416.538z M371.385,423.455c0.021-0.006,0.041-0.013,0.062-0.019
				c-0.076,0.274-0.148,0.551-0.22,0.826C371.279,423.988,371.326,423.725,371.385,423.455z M373.848,437.536
				c0.041,0.008,0.094,0.017,0.095,0.018l0.21-0.031c-0.104,0.022-0.207,0.047-0.311,0.073
				C373.844,437.576,373.847,437.554,373.848,437.536z M384.441,424.021c-0.037,0.302-0.072,0.577-0.104,0.808
				c-0.007-0.005-0.014-0.01-0.021-0.015L384.441,424.021z"/>
		</g>
	</g>
</g>
</svg>
