<svg xmlns="http://www.w3.org/2000/svg" xml:space="preserve" width="171" height="171"><circle cx="85.383" cy="85.754" r="85.107" fill="#F2E2E1"/><path fill="#F1F0F0" d="M89.789 165.165h-6.158c-1.467-.206-2.95-.114-4.422-.297-6.23-.77-12.137-2.623-17.852-5.173-5.47-2.44-10.489-5.62-15.315-9.132-6.213-4.522-10.032-10.623-11.806-18.037-1.363-5.695-2.666-11.405-3.593-17.191-.177-1.104-.428-2.188-.625-3.288.037-1.643-.712-3.147-.809-4.773-.143-2.373-.555-4.72-.776-7.087.263-1.521-.159-3.016-.19-4.526-.014-.68-.088-1.375-.124-2.063-.038-.67-.27-1.316-.25-1.994.058-1.289.129-2.577-.048-3.862a2.809 2.809 0 0 1-.016-1.162c.2-1.204.235-2.423.326-3.636.415-5.567 1.239-11.031 3.92-16.041 1.982-3.704 4.859-6.336 8.905-7.706 4.352-1.472 8.551-3.342 12.759-5.175.508-.309 1.188.087 1.652-.403.493-.521 1.258-.564 1.788-1.021.207-.12.426-.21.654-.277.458-.098.88-.262 1.186-.641.201-.25.467-.347.781-.332 1.614-.391 3.032-1.258 4.551-1.882.7-.288 1.341-.721 2.044-.999 1.635-.648 2.693-1.848 3.423-3.395.099-.208.206-.414.313-.618 1.155-2.203 2.362-2.792 4.847-2.412.976.149 1.951.386 2.947.28 1.201-.127 2.233-.609 2.988-1.594.989-.126 1.958-.106 2.855.405.491.28 1.013.122 1.504.067.734-.082 1.344.111 1.969.481 1.522.902 2.975 1.958 4.771 2.306.545.105.929.482 1.26.908.346.335.506.864 1.046.998.841.644 1.176 1.627 1.623 2.519.356.709.802 1.343 1.255 1.983.281.397.615.561 1.085.464a.443.443 0 0 1 .317.246c.059.238-.407.432-.056.694.405.894 1.139 1.431 1.996 1.823.49.225.836.196.794-.495-.125-2.079 1.011-3.397 2.791-4.098 2.481-.978 5.071-1.652 7.645-2.359.28-.077.654.137.85-.242.646-.593 1.287.186 1.931-.001a.91.91 0 0 1 .487.255c.181.596.593.559 1.056.382.247-.053.435.035.572.239.06.731.67.457 1.064.579 1.299 1.246 2.151 2.803 2.996 4.359 1.208 2.225 2.43 4.44 3.669 6.648.079.141.145.298.326.346.493.794.92 1.627 1.415 2.42.109.238.331.382.492.577.14.271.007.582.128.856.124.359.378.678.341 1.087-.052.248-.067.493.081.72.782 1.092 1.036 2.408 1.537 3.667.202-.495.403-.935.973-.999.553.227.573.986 1.17 1.17.177.381.39.738.71 1.019.125.402.764.144.822.635.174.901.841 1.472 1.463 2.03 1.311 1.178 2.773 2.148 4.478 2.668 2.297.701 3.987 2.129 5.2 4.168-.035.418.203.718.442 1.02.895 1.61 1.027 3.396 1.129 5.168.161 2.802-.087 5.6-.201 8.397-.402.852-.731 1.744-.815 2.677-.154 1.723-.972 3.319-.759 5.138.098.841.337 1.899-.425 2.689.544.983-.474 1.413-.734 2.111-.125.334-.193.699-.271 1.049-.092.411-.085.784-.498 1.086-.427.313.148.896-.185 1.3-.144.202-.305.396-.357.651a1.213 1.213 0 0 1-.105.232c-.16.186-.174.389-.074.606.035.128.091.312-.017.372-.92.526-.849 1.514-1.027 2.339-.108.501-.141.981-.599 1.261-.405.248-.18.671-.346.974-.305.305-.055.608.006.914.003.4.158.853-.358 1.081-.313.014-.605.104-.933.226.312-.049.505.033.584.314a10.748 10.748 0 0 0-.698 2.773c-.085.721-.188 1.746-.964 2.331-.187.142-.221.394-.297.608a1.138 1.138 0 0 1-.136.237c-.388.334-.061.909-.421 1.252-.369.081-.455.351-.447.681-.067 1.373-1.03 2.336-1.593 3.482-.113.407-.636.439-.762.835-.156.23-.479.354-.443.706-.126.554-.559.991-.593 1.58-.018.097-.05.186-.092.273-1.259 2.935-2.172 5.962-2.545 9.144-.271 2.32-1.625 4.087-3.054 5.796-3.598 4.302-8.061 7.52-12.954 10.167-4.683 2.533-9.624 4.396-14.847 5.468-2.428.498-4.872.903-7.365.877-.318-.003-.659-.107-.962.097z"/><path fill="#BC9E99" d="M25.415 81.498c-.381-.782-.314-1.654.008-2.343.342-.733.391-1.427.387-2.175-.179-.293.002-.479.197-.659.001-.33.008-.659.001-.988-.009-.378-.438-.859.314-1.055.097-.025.194-.63.068-.822-.38-.585-.136-1.106-.006-1.664.854-3.663 2.316-7.065 4.295-10.261.74-1.195 1.845-2.05 2.727-3.109.112-.134.46-.912.693-.011.116-.044.238-.079.35-.134.474-.233.505-.736.691-1.145-.081-.149-.316-.229-.207-.463.78-2.133 2.613-3.05 4.507-3.89 2.666-1.181 5.362-2.435 8.36-1.955 1.869.299 3.737.014 5.58.331.376.065.639-.036.896-.255 1.056-.896 2.196-1.778 3.386-2.364 1.388-.684 2.213-1.966 3.488-2.637 1.897-.999 3.105-2.75 4.767-3.989.105-.079.194-.193.312-.243 2.02-.86 3.454-2.588 5.36-3.605.858-.458 1.611-1.328 2.819-.586.42.258.666-.601 1.076-.843h.597c.604.801 1.589 1.194 2.411 1.259 1.025.081 1.882.458 2.803.753.396.127.823.723 1.233-.028.084-.155.295.021.439.069 1.242.423 2.479.896 3.726 1.266 1.844.548 3.605 1.236 5.368 1.991 1.09.467 1.981 1.14 2.883 1.847.103.177.322.316.182.57.479.479 1.188.719 1.463 1.418.035.088.213.168.326.17 1.069.017 1.767.395 1.734 1.615-.005.188.178.389.505.31.704-.172 1.434-.172 2.038-.724.342-.312.879-.42 1.339-.591 2.504-.932 4.985-1.997 7.716-2 2.224-.002 4.448.114 6.655.435.033.004.094 0 .096.006.236 1.445 1.898.706 2.562 1.692.41.61 1.187 1.086 1.921 1.499 1.445.813 2.374 2.141 3.083 3.618.152.318.18.678.724.59.652-.105.916.302.883.925-.234.173-.234.173.157.813a11.996 11.996 0 0 0 1.282 3.297c1.271 2.195 1.838 4.558 2.107 7.038.146 1.34 1.599 2.568 2.913 2.809 3.105.569 6.147 1.454 8.406 3.789.963.995 1.882 2.067 2.82 3.104-.048.238.312.354.187.615.406.877.835 1.74 1.208 2.638.97 2.333 1.489 4.766 2.032 7.207.22.988.113 1.991.005 2.945-.057.494-.516.939-.572 1.622-.066.807.199 1.56.095 2.337-.07.521.742.561.61 1.116a33.338 33.338 0 0 0-.642 5.738c-.18.059-.263.016-.196-.187l-.195-2.018c-.154 2.067-.711 4.084-.556 6.154.062.129.102.264.12.405-.724.883-1.026 1.886-.851 3.022-.134.442.587.374.479.799-.149.296-.213.65-.555.815-.156.098-.369.137-.396.372-.4.975-1.103 1.906-1.071 2.954.04 1.348-.576 2.348-1.103 3.482-.366.791-.236 1.817-.979 2.506-.035.032-.042.154-.011.188.525.585.173 1.061-.241 1.444-.742.688.047 1.597-.397 2.308-.346.335-.826-.056-1.183.22-.591.74-.799 1.633-.966 2.529-.061.324-.021.657-.33.881-.19.137-.279.345-.043.468.938.488.141.865-.127 1.123-.462.445-.896.839-.737 1.554-.037.203.017.497-.36.365-.468.036-.72.393-.778.755-.127.783-.704 1.445-.589 2.283-.35.26.09.709-.233.976-.189.331-.527.619-.268 1.069.089.153.075.403-.079.435-1.128.229-.532.981-.417 1.498.122.544.038.952-.328 1.34-.812.86-1.294 1.834-1.229 3.07.02.379-.181.81-.463 1.138-.048-.056-.136-.061-.132-.036a.463.463 0 0 0 .134.223c.032.136.185.271.004.408-.261.277-.218.679-.403.986-.28-.145-.263-.57-.613-.647-.151.019-.27-.046-.368-.154.299-.46.877-.881-.263-1.134-.574-.128.132-.662.086-1.028.205-.121.273.104.407.161.707.192 1.016.258.648-.726-.191-.516.116-1.205-.692-1.435-.124-.223.1-.295.184-.429.14-.222.248-.474.426-.659.28-.292.381-.554-.037-.767-.416-.212-.339-.59-.385-.934.084-.174.186-.312.408-.195.306.184.559.507.983.37.25-.182.193-.362-.001-.542-.516-.158-1.002-.419-1.557-.438a.402.402 0 0 1-.005-.176c.21-.203.24-.511.425-.73.196-.117.432-.151.634-.298-.188-.113-.333.176-.508.043-.083-.127-.07-.26-.022-.394-.374-.565.028-.687.455-.794.062-.08.14-.106.235-.068.331.357.722.649 1.041.925-.242-.358-.864-.476-.934-1.069.086-.106.211-.117.33-.135.044-.038.177.106.151-.08-.054-.122-.121-.239-.065-.377-.184-.758.58-1.118.837-1.669.293-.626.484-1.298.777-1.923.102-.22.208-.438.401-.596.411-.383-.171-1.049.395-1.388.147.09.156.302.328.369a.792.792 0 0 1-.064-.385c-.029-.237-.356-.508-.042-.705.579-.361.994-.747.639-1.488 1.01-.586.256-1.672.684-2.456.206-.377.322-.799.66-1.099.13-.257-.19-.726.367-.78.45-.228.063-.669.246-.965.221-.288-.211-.55-.034-.836.087-.45-.157-.931.557-1.246.617-.272.334-1.197.519-1.81.199-.66.197-1.284.959-1.551.021-.007-.033-.229-.053-.353-.114-.264.067-.436.193-.624l.018-.171c.063-.245.233-.42.392-.604-.043-.244.26-.503-.018-.734-.237-.198-.157-.56-.06-.624.884-.578.662-1.585.968-2.38.191-.498.503-.826 1.033-.926-.246-.484-1.059-.936.017-1.3.184-.063.206-.216.136-.289-.663-.688.259-1.344.047-1.958-.263-.763.039-1.517-.131-2.242-.094-.403.287-.456.338-.747.19-1.085.544-2.153.626-3.243.052-.699.319-1.098.845-1.434 1.688-.564 1.347-1.812 1.024-3.051a1.791 1.791 0 0 1-.064-.364c-.063.076-.028.178-.069.263-.08.163-.187.234-.363.136-.499-.526-.385-1.188-.332-1.796.071-.826.07-1.65.096-2.477.024-.324.02-.659.287-.906.946-.29 1.021-.422.812-1.402-.099-.456-.276-.879-.474-1.301-.477-1.022-.751-2.075-.872-3.221-.151-1.428-.947-2.593-2.304-3.236-.314-.149-.573-.253-.699-.609-.73-2.061-2.363-3.372-3.964-4.704-.263-.218-.661-.335-.938-.219-1.192.499-2.328-.042-3.488-.102-.23-.012-.463-.02-.688-.076-.303-.077-.568-.198-.558-.58-.133-.272-.367-.182-.587-.172-.634.026-.151-.248-.104-.404.269-.266.518-.521.082-.87-.229-.184-.427-.409-.633-.621-.354-.394-.622-.929-1.304-.762-.558.341-.86.837-.879 1.55-.829-1.387-1.067-2.967-1.899-4.284-.11-.203.058-.405.002-.607l-.364-1.176c.458-.198.641-.466.343-.963-.315-.527-.515-1.124-1.01-1.642.149.429.456.729.386 1.145-.047.142-.11.263-.295.223-.541-.822-1.117-1.624-1.407-2.582-.367-.375-.046-.824-.128-1.233-.038-.186-.063-.421.162-.52.21-.092.385.057.529.185.817.725 1.553 1.535 2.446 2.398-.298-1.307-1.209-1.939-2.091-2.591-.319-.236-.696-.38-1.029-.598-.403-.264-.692-.699-.403-1.085.59-.79.053-1.139-.463-1.495-.934-.643-1.818-1.325-2.422-2.311-.12-.197-.32-.371-.337-.6-.041-.603-.478-.9-.795-1.333-.593-.81-1.684-1.034-2.081-1.991-.05-.121-.177-.191-.326-.115-.523.438-.87-.091-1.259-.27-.099-.045.201-.172.27-.303.363-1.069.363-1.069-.621-.956-.463.098-.925.207-1.403.144-.416.053-.822.326-1.236-.093-.206-.208-.537-.137-.788.062-1.593.339-3.187.675-4.814.798-.971.073-1.847.411-2.685.877-.511.041-.972.225-1.399.504-.724.252-1.031 1.128-1.849 1.242-.297.005-.595.012-.78-.284-.056-.214.199-.329.168-.588-1.097.437-1.795 1.482-2.917 1.832-.492.449-.794.349-1.229-.192-.991-1.233-1.554-2.691-2.328-4.036a2.47 2.47 0 0 0-.616-.709c-.08.002-.176.029-.196-.088-.023-.135.079-.195.17-.259.318-.187.66.155.979-.042.275-.174.396.019.512.213.067.023-.058.262.15.126-.137-.304-.262-.623-.678-.324a.48.48 0 0 1-.368.014c-.547-.082-.978-.556-1.574-.469-.394-.565-.896-.928-1.608-1.027-1.49-.208-2.651-1.158-3.906-1.867-.869-.491-1.595-.934-2.729-.733-1.065.188-2.12-.654-3.269-.633-.261.005-.521-.046-.782-.072-.305.258-.623.104-.938.028-.282-.068-.569-.222-.814.085-.116.145-.289.188-.444.114-1.744-.829-3.488-.327-5.232-.012-.613-.063-.99.345-1.389.707-.639.553-1.173 1.299-2.189 1.141-.213-.033-.346.161-.491.294-1.168 1.067-2.398 2.049-3.795 2.809a1.95 1.95 0 0 0-.735.653c-1.059 1.666-2.578 2.86-4.11 4.042-.297.109-.56.309-.887.337-.55-.093-.808.334-1.134.638-.307.286-.51.686-.93.848l-.561.226c-.682.191-1.368.374-1.812.999.196.303.033.394-.244.4-.443.009-.887.008-1.33.011-1.033.479-2.094.491-3.189.242a9.662 9.662 0 0 0-5.574.354c-.874.32-1.82.339-2.723.434-1.018.106-1.744.546-2.365 1.25-.422.478-.857.921-1.437 1.19-.435.202-.447.18-.689-.413-.562 1.374-1.596 2.289-2.79 3.039-.239.15-.428.273-.491.558-.073.329-.215.655-.47.857-.645.512-.933 1.165-.966 1.97-.015.375-.229.684-.457.972-.332.421-.581.876-.691 1.409-.136.651-.603 1.086-1.047 1.53-.445.443-.773.911-.479 1.58.112.255.059.517-.035.772-.418 1.138-.931 2.24-1.253 3.413-.126.2-.468.157-.506.456-.038.2-.049.406-.164.583-.155.162-.452.202-.437.512-.004.099.009.203-.022.292-.196.553.095.325.327.211.091-.044.188-.022.275.032.292.363.218.773.16 1.183-.362 2.134-.408 4.334-1.34 6.352-.122.265-.042.587-.036.883-.007-.184-.016-.368.017-.55.037-.207.126-.394.365-.391a.373.373 0 0 1 .367.482c-.31 1.037.033 2.093-.132 3.129l-.002 1.225c.043.313.305.657-.311.788-.213.046-.105.536-.041.822.171.769.234 1.553.361 2.328l.346 1.765c-.265.695-.167 1.387-.084 2.11.178 1.553.121 3.126.306 4.683.538 2.512.689 5.074.954 7.62.124 1.19.644 2.278.723 3.467.019.283.215.571-.089.814-.597.571-.057 1.191.01 1.754.032.266.188.577.175.901-.075 1.982.327 3.867.889 5.772.403 1.369.313 2.879.499 4.318.29 2.245.52 4.506 1.217 6.676.411 1.276.037 2.619.414 3.929.146.511-.472 1.25-.768 1.872a.489.489 0 0 1-.494.273c-.216-.028-.155-.255-.189-.399-.307-1.305-.981-2.536-.787-3.941.014-.098.044-.242-.006-.291-1.566-1.551-.883-3.647-1.288-5.471-.643-2.896-1.055-5.843-1.54-8.772-.248-1.497-.501-2.998-.511-4.521-.003-.444-.046-.906-.266-1.239-.541-.818-.564-1.646-.263-2.52.196-.566-.524-.658-.529-1.224-.017-1.746-.176-3.493-.333-5.235-.179-1.977-.251-3.96-.49-5.938-.134-1.102-.303-2.437.479-3.512.117-.161.099-.305.047-.463-1.219-3.714-.882-7.53-.719-11.331.021-.502-.133-.95-.185-1.425 0-.001-.068-.007-.075.005-.033.063-.052.126-.075.186z"/><path fill="#BDA19B" d="M147.599 89.873c-.339-.197-.677-.395-.479-.887.387-.042.209.438.479.49v.397z"/><path fill="#BC9E99" d="M107.071 137.151c-.569.478-1.289.177-1.936.334-.746.182-1.489.343-2.188.659-.654.296-1.305.859-1.774-.251-.095-.223-.345.021-.507.077-.257.091-.488.247-.587-.186-.057-.249-.363-.308-.472-.188-.731.805-1.312-.012-1.859-.234-.469-.19-.92-.497-1.423-.629a2.465 2.465 0 0 1-1.271-.755c-.634-.691-1.532-.646-2.396-.587-.252.018-.278.24-.382.399-.291.447-.606.871-1.243.672-.193-.062-.537-.123-.522.025.116 1.202-1.129.717-1.517 1.268-.09-.118-.238-.089-.354-.141.102.097.269.012.363.129-.837.974-1.871 1.294-3.004.898-.349-.122-.733-.181-.857.187-.162.48.51.105.578.471-.411.085-.83.226-1.255.244-.35.016-.8.256-.943-.468-.077-.389-.726-.252-1.1-.102-.483.193-.711.186-1.11-.311-.44-.546-1.094-1.11-1.724-1.369-.928-.38-1.379-1.075-1.885-1.794-.321-.457-.539-.981-.968-1.369-.155-.142-.242-.296-.066-.587.387-.638-.319-1.098-.618-1.089-1.46.047-2.745-.595-4.119-.858-.184.187-.178.649-.637.438a.56.56 0 0 1-.138-.42c.302-.895 1.266-1.347 1.521-2.273.773-.424 1.575-.422 2.39-.146.484.163.779.067.746-.515-.001-.759.104-1.511.188-2.259.122-1.087.975-1.831 1.98-1.84.864-.008 1.055.259 1.074 1.126.026 1.221-.414 2.395-.303 3.614-.022.818.542 1.162 1.175 1.46.324.153.222-.223.374-.278.261-.154.538-.142.82-.088.271.077.548.138.81.244a.38.38 0 0 1 .175.209.355.355 0 0 1-.108.243c-.295.219-.665.509-.429.866.359.544.8-.054 1.212-.063.495-.154.978-.345 1.479-.477 1.801.403 3.646.481 5.471.719.367.047.693.203 1.034.33.979.367 1.933.424 2.795-.311.256-.218.537-.361.882-.412.947-.139 1.234-.711.806-1.572-.088-.177-.214-.333-.306-.509-.707-1.356-.515-2.727.537-3.834.182-.191.412-.341.56-.56.302-.444.099-.917-.21-1.158-.416-.326-.537.217-.661.462-.782 1.551-2.042 2.571-3.576 3.293-.985.463-1.906 1.068-2.965 1.367-1.436.405-2.807-.226-3.445-1.575-.539-1.138-.526-2.292-.125-3.471.391-1.144-.004-1.854-1.133-2.087-.245-.05-.528-.268-.567.316-.02.293-.576.139-.874.002-1.523-.701-2.983-1.475-3.484-3.269-.019-.068-.086-.099-.178-.106-.386.233-.225.623-.239.964-.006.395-.188.732-.35 1.077-.143.201-.307.329-.555.154.03-.231-.169-.333-.276-.484-.247-.356-.607-.072-.902-.157a1.892 1.892 0 0 1-.375-.123c-1.631-.078-2.272.559-2.202 2.209.015.341-.369.782.225.996.122.076.204.177.201.328-.008.714-.23 1.206-1.045 1.357-.505.094-.287.854-.73 1.096a.656.656 0 0 1-.268.072c-.449-.122-.878-.286-1.197-.648.032-.393-.819-.637-.193-1.131.079-.026.164-.025.247-.037-.094-.004-.188-.002-.284 0-.86-.514-.86-.575-.037-1.082.085-.052.003-.169-.023-.256a.431.431 0 0 1 .073-.374c.398-.047.693.271 1.072.293-.361-.09-.689-.263-1.036-.391-.452-.397-.513-.665.219-.704.185-.01.183-.041-.067-.301-.585-.11-.732-.367-.326-.866.16-.196.352-.391.428-.725-.649-.054-1.215-.314-1.72-.699-.338-.259-.676-.248-1.012-.033-.923.59-1.992.665-3.021.889-.42.091-.791-.012-1.143-.207-1.441-.8-2.214-2.048-2.347-3.672-.057-.688-.073-1.392.046-2.079.075-.431-.004-.668-.485-.547-.826.208-1.69.15-2.501.546-.863.42-1.826.367-2.676-.116-.551-.314-.895-.244-1.49.041-1.182.565-2.121 1.437-3.208 2.105-1.354.836-3.423.287-4.486-1.259-1.24-1.802-1.742-3.756-.791-5.885.16-.359.356-.71.373-1.199-1.253 1.097-2.41 2.352-4.168 2.598-.777-.377-1.127-1.161-1.66-1.768-.21-.238-.187-.579.014-.826.385-.475.634-1.087 1.268-1.322.304.329.477.012.683-.143.323-.343.642-.606.725-1.186.076-.533.74-.892 1.206-1.254 1.146-.894 2.275-1.831 3.587-2.461 1.211-.581 2.12-1.417 2.767-2.572 2.205-2.923 5.254-4.719 8.451-6.316 1.76-.82 3.603-1.307 5.55-1.329.502-.006.871-.239 1.264-.494 1.472-.953 2.928-1.956 4.726-2.196 1.176-.157 2.361-.075 3.421-.105-.689-.396-.742-.629-.104-1.15.484-.396.975-.802 1.64-.873.164-.018.38-.028.46-.156.598-.948 1.595-.834 2.487-.923 2.364-.234 4.735-.606 7.094.042.514.141.682-.03.583-.53a1.235 1.235 0 0 1 .059-.448c.055-.188.124-.383.266-.509.784-.7 1.32-1.544 1.564-2.57.32.462 1.078.639 1.272.486.898-.708 1.748-.151 2.593-.054 1.035.118 2.054.374 3.079.57.24.122.511.049.76.115.212.167.47.185.725.209-.257-.026-.507-.071-.724-.224-.229.001-.431-.062-.567-.262-.587-.388-1.272-.488-1.937-.603-.919-.16-1.595-.599-2.02-1.427-.729-.335-1.459-.079-2.188-.002-.965-.49-1.933-.971-3.304-.935.737-.475 1.672.116 1.853-.927.028-.164.453.06.627.266.748.888 1.575.849 2.204-.061.189-.273.52-.134.788-.02l2.184.923c.031.166.016.278-.194.172-.41.053-.579.358-.554.697.035.458.521.623.813.572 1.059-.18 1.925.028 2.789.712.521.413 1.324.289 1.897-.055.479-.287.583-.029.911.203 1.132.799 1.717 2.183 3.085 2.733 1.24.5 2.875.073 3.56-1.053.382-.627 2.041-.848 2.366-.198.489.977 1.555 1.701 1.556 2.848 0 1.228.391 2.374.476 3.571l.021.297c.101 1.263.519 2.168 1.917 2.604 1.611.504 3.128 1.38 4.127 2.797 1.175 1.666 2.72 3.212 2.658 5.462-.022.831.175 1.596.276 2.393.175 1.355.222 2.736.014 4.096-.101.65.206 1.145.41 1.692.867 2.317 2.266 4.32 3.716 6.292.039.053.093.104.109.164.616 2.216 1.79 4.266 1.879 6.642.041 1.075.254 2.145.389 3.217.037.101.009.187-.082.233-.188.095-.466.122-.313.45.15.321.388.021.576.078.625.271.627.882.313 1.206-.275.284-.886.441-1.255-.21-.219-.386-.604-.713-1.191-.296l1.498 1.283c-.249.44-.628.064-.892.213-.016.064-.062.141-.04.185.698 1.414.729 1.446-.502 2.521-.271.236-.235.965-.9.694-.098.144-.189.3-.406.189-.241-.074-.365-.407-.685-.313-.022.063-.075.132-.06.177.216.63.302 1.172-.411 1.617-.57.355-.976.935-1.802.782-.628-.116-1.165.388-1.846.413-.781.029-.774.207-1.826.013.361-.277 1.266-.082 1.042-.74-.151-.443-.816.033-1.201.19-.667.274-1.254.465-1.718-.297-.05-.082-.16-.21-.208-.196-.869.248-1.933.298-2.531.85-.454.417-1.028.7-1.422 1.169-.648.773-1.526.866-2.435.911-.266.14-.592.15-.802.394z"/><path fill="#D4817B" d="M118.196 75.533c-1.622 1.183-3.379 2.001-5.436 2.011a.222.222 0 0 0-.162.083c-.022.032.014.104.024.159.072.032.098.065.075.101-.022.036-.046.055-.069.055l-1.172.057a2.596 2.596 0 0 0-.371-.056c-.282-.06-.562-.025-.841.019-.233.024-.27.253-.398.387-.542.177-1.098.223-1.665.26-.168.011-.057.619-.52.565-.201-.488-.7-.199-1.016-.389-.598-.136-1.035-.569-1.482-.921a2.24 2.24 0 0 0-1.06-.467c-.382.086-.282-.282-.411-.435-1.208-.815-2.045-1.868-2.175-3.377.184-.325-.123-.531-.192-.794-.173-1.857-.39-3.71-.507-5.57-.13-2.033.509-3.901 1.5-5.641a5.722 5.722 0 0 1 2.769-2.477c1.578-.66 3.15-1.415 4.856-1.66 2.603-.374 4.912.398 6.771 2.25.628.626 1.29 1.091 2.088 1.412.09.024.155.078.197.161.234.272.458.553.703.815 1.437 1.533 2.112 3.299 1.717 5.418-.138.741-.198 1.499-.307 2.242-.163 1.118-.302 2.271-1.126 3.203-.376.424-.689.977-.609 1.623-.33.398-.595.878-1.181.966z"/><path fill="#E7BAA6" d="M67.499 60.035c.104-2.182.848-4.143 2.848-5.459 1.294-.852 1.828-2.299 2.762-3.432 1.428-1.734 3.241-2.933 5.517-2.179 1.451.481 2.898.39 4.321.673 3.002.597 5.091 2.462 6.372 5.164 1.908 4.023 1.804 7.951-.925 11.629-.862 1.162-1.961 2.058-3.315 2.583-.514.199-.911.533-1.322.852-2.923 2.263-6.028 2.447-9.234.735-1.128-.603-2.352-1.07-3.327-1.939-1.092-.972-2.052-2.023-2.107-3.61-.008-.22-.075-.501-.223-.643-1.225-1.184-1.254-2.725-1.367-4.374z"/><path fill="#CB8D90" d="M38.972 78.913c-1.21-2.983-.505-5.623 1.248-8.203 1.469-2.162 3.482-3.595 5.708-4.756 2.111-1.101 4.367-1.309 6.563-.188 1.397.714 2.941 1.123 4.139 2.278.867.835 1.086 1.902 1.271 2.894.402 2.165.735 4.438.072 6.571-1.381 4.442-3.659 6.622-8.185 6.927-1.379.093-2.792-.511-4.195-.543-2.973-.068-4.389-2.266-6.063-4.15-.153-.3-.156-.7-.558-.83z"/><path fill="#BC9E99" d="M72.705 129.397c.121.645-.293 1.016-.695 1.407-.254.247-.47.533-.702.802a1.07 1.07 0 0 1-.277.162c-.382.062-.739-.056-1.1-.15-1.28-.563-2.648-.907-4.013-.945-1.676-.048-3.255-.348-4.838-.857-1.059-.341-2.136-.378-3.314-.304-2.865.182-5.775.701-8.647-.099-.436-.121-.919-.088-1.373-.111-2.064-.106-3.617-1.491-5.472-2.111a.768.768 0 0 1-.55-.754c.001-.249-.146-.436-.31-.602-2.379-2.413-2.959-5.514-3.231-8.693-.094-1.09.007-2.222.439-3.282.263-.644-.374-1.812-1.061-1.915-.408-.062-.597-.223-.609-.617.017-.288-.058-.522-.366-.619-1.033-1.698-1.088-3.501-.553-5.358.023-.084.21-.122.321-.182.34.449.169.926.087 1.371.24-.41-.098-1.052.476-1.379.438-.57.915-1.103 1.195-1.791.707-1.735 2.374-2.367 3.849-3.167 2.146-1.164 4.467-1.991 6.542-3.298 2.016-1.27 3.9-2.732 5.346-4.628.561-.735.96-1.532 1.915-1.774.568-.145.132-.712.468-.959.557-.411 1.07-.879 1.627-1.289 1.548-1.139 3.221-2.137 4.954-2.887 2.014-.872 3.933-2.198 6.291-2.087 1.5-.506 2.959-1.081 3.978-2.388.41-.258.793-.582 1.323-.555.3.015.344-.251.473-.426l.222-.141c.953.043 1.803-.244 2.565-.807l.43-.146c.03.012.077.015.089.037.453.887.889 1.01 1.644.195.402-.435.834.178 1.173.499.985.373 2.033.236 3.046.385.06.008.12.014.181.02.557.493.74 1.453 1.735 1.396.366-.021.717.027 1.055.168v-.002c.228.188.479.299.783.248l.799-.038c.17.945-.192 1.654-.928 2.24-.296.236-.653.48-.662.941-.184.108-.33.006-.479-.086-.201-.158-.408-.309-.661-.38-.42-.149-.81.045-1.211.105-.741.084-1.487-.001-2.228.095-.272.036-.658.154-.75-.208-.084-.331.266-.461.535-.572.308-.018.583.117.663.137-.043-.003-.272-.128-.527-.182-.994-.219-1.962-.728-3.013-.258-.228.091-.31.337-.5.469-1.044.467-2.113.513-3.164.078-.541-.224-.966-.143-1.354.238-.952.936-2.133 1.101-3.386 1.029-.262-.015-.542-.149-.782-.05-1.464.603-3.131.782-4.438 1.63-1.655 1.075-3.427 1.992-4.943 3.279-.979.564-1.831 1.259-2.54 2.16-.562.714-1.137 1.469-2.134 1.662-.269.053-.418.299-.585.508-1.448 1.809-3.441 2.976-5.173 4.449-.921.783-1.964 1.128-2.966 1.648-1.009.355-2.059.615-2.95 1.25-.266.199-.577.307-.877.436-1.188.348-2.054 1.119-2.739 2.113-.472.686-1.308.998-1.726 1.731-.199.245-.313.538-.456.814a8.785 8.785 0 0 1-1.377 1.123c-.06.019-.118.04-.176.065-.148.066-.265.162-.306.329.134-.04.14-.236.299-.245.808.108.443.89.743 1.291.033.081.056.165.07.251.056.198-.116.496.248.561.133.013.258.046.38.1 1.175.387 1.491 1.398 1.771 2.435.095.35.192.699.252 1.057.039.32.015.646.08.963.018.089.024.18.025.27-.043.312.002.622.023.933-.007.184-.054.362-.067.546-.014.232.013.463.018.693.006.267.198.696-.258.703-.435.007-.702-.302-.687-.796.015-.476.336-.953-.023-1.504-.624.533-.524 1.206-.343 1.796.398 1.297.799 2.568.879 3.949.065 1.12 1.437 2.4 2.551 2.612.311.059.57.144.747.417.894 1.382 2.284 1.944 3.8 2.298.319.112.663.114.984.218.623.25 1.201.066 1.66-.326.557-.477 1.129-.625 1.821-.435.224.062.467.032.683-.048.777-.287 1.549-.203 2.323 0 .244.068.488.28.326.471-.801.934.05 1.006.607 1.241.086.03.169.066.252.103 1.124.358 1.206.296 1.203-.914-.002-.201-.069-.389-.12-.579-.146-.541.087-.857.588-.588 1.365.737 2.901.479 4.333.831.644.157.965.378 1.063.985.587.26 1.175.157 1.763.021a3.92 3.92 0 0 1 .433-.093c-.693-.195-1.466.184-2.202-.521 1.433-.316 2.678-.858 4.011-.176.256.153.283.574.674.57.279.079.56.154.703.445-.025.233-.197.354-.386.406-1.257.353-2.489.801-3.629 1.003 1.583.489 3.06-.297 4.549-1.005.517-.245.953-.234 1.294.28.088.674.434.861 1.094.671.448-.127.933-.394 1.403-.012z"/><path fill="#D4817B" d="M132.87 102.771c-.782.106-1.585-.049-2.356.194-.133-.118-.293-.064-.444-.066-.249-.006-.479.078-.715.138-.271.004-.447.179-.629.345-1.044.917-1.878.566-2.745-.338-.561-.585-1.326-.969-1.946-1.504-.788-.681-1.167-1.579-1.279-2.622-.24-2.241-.568-4.488-.378-6.74.266-3.138 1.536-5.667 4.704-6.625.789-.239 1.492-.687 2.315-.863 2.063-.442 3.68.493 5.162 1.691.629.507 1.151 1.148 1.815 1.65 1.383 1.045 2.262 2.368 2.118 4.226-.125 1.607-.046 3.208-.482 4.812-.497 1.824-1.708 3.063-2.916 4.353-.218.411-.661.526-1.008.769l-.788.27c-.176.056-.473-.052-.428.31z"/><path fill="#E5A0A1" d="M73.106 80.942c.281.382.027.666-.252.808-.977.496-1.938 1.005-2.813 1.675-.315.241-.617-.13-.938-.146 1.263-.958 2.551-1.875 3.999-2.541.053.044.07.089.054.135-.016.046-.033.069-.05.069z"/><path fill="#F6F4F4" d="M28.611 100.199c-.364-.503-.396-1.09-.39-1.673.015-1.24.069-2.48-.225-3.701-.131-.544-.028-1.025.393-1.419.085 1.729.169 3.456.382 5.178.065.522.219 1.111-.16 1.615z"/><path fill="#E29FA0" d="M80.85 79.738c-.359-.181-.464-1.205-1.176-.164-.488.715-1.235.31-1.58-.759l2.305-.09c.354-.223.622-.072.861.201l.381.032c.068.596-.501.547-.791.78z"/><path fill="#FBFBFB" d="M126.157 61.649c-.1-.616-.673-1.033-.743-1.696.796.333 2.041 2.111 1.978 2.864-.058.68-.591.035-.83.252-.39-.261.069-.567-.046-.843-.281-.092-.274-.363-.359-.577z"/><path fill="#E4A0A0" d="M80.85 79.738c.002-.526.71-.335.791-.78l.216-.014c.127-.116.253-.119.375.008l1.813.98c-.351.141-.629.728-1.114.095-.086-.111-.712-.143-1.123-.022-.288.084-.718.099-.958-.267z"/><path fill="#FBFBFB" d="M28.044 91.642c-.656-.863-.403-1.96-.737-2.909-.077-.221.18-.517.377-.482.647.113.134-.438.351-.547a9.639 9.639 0 0 1 .009 3.938z"/><path fill="#F9F8F8" d="m99.725 50.737-.212.216c-.352-.093-.568.477-.959.195a48.288 48.288 0 0 0-.228-.221c.787-.756 1.68-1.376 2.586-1.973.144-.094.334-.514.597-.051.263.462-.017.574-.36.682a2.566 2.566 0 0 1-.796.654c-.209.169-.445.3-.628.498z"/><path fill="#E5A0A1" d="M87.016 81.517c-.516-.114-.992.244-1.53.089-.854-.246-1.068-.929-1.26-1.654 1.019.361 1.919.938 2.79 1.565z"/><path fill="#C0A5A1" d="M84.229 78.957c-.067-.218-.149-.434-.197-.656-.126-.582-.201-1.154.71-.811.456.172.988-.372 1.412.241-.425.391-.919.588-1.612.413.608.64-.123.69-.318.972-.069-.038-.091-.074-.066-.108.023-.034.047-.051.071-.051z"/><path fill="#F9F8F7" d="m59.79 51.142-.002.378c-.536-.134-.543.454-.853.626-.364.203-.721.436-1.171.367.345-.636.86-1.125 1.372-1.62.246-.238.465-.36.685.016.086.09.075.168-.031.233z"/><path fill="#FAFAF9" d="M131.105 68.236c.273.228.563.44.814.689.189.188.578.322.428.663-.135.305-.51.211-.792.251-.602-.077-.751-.526-.841-1.024.113-.206.142-.467.391-.579z"/><path fill="#F7F7F7" d="M116.007 46.195c.394.053.897-.477 1.144.006.209.411.1.973-.499 1.189l-.628-.23c-.278-.078-.361-.283-.359-.545.029-.208.163-.332.342-.42z"/><path fill="#FBFBFB" d="M131.105 68.236c.001.281-.136.47-.391.579-.481-.291-.896-.636-1.013-1.228 1.008-.948.98.341 1.404.649z"/><path fill="#ECE9E8" d="M89.591 80.532c.73-.785 1.46-.521 2.188.002-.729.596-1.459.481-2.188-.002z"/><path fill="#E1A3A2" d="M77.664 78.963c-.637.887-1.512 1.162-2.565.807.815-.397 1.686-.615 2.565-.807z"/><path fill="#E8E4E3" d="M126.346 126.398c-.311.084.221.656-.259.539-.406-.1-.706-.469-.739-.944-.023-.331.188-.362.454-.325.117.016.241-.02.362-.031.266.205.154.5.182.761z"/><path fill="#F6F4F4" d="m55.392 53.737-.246-.103c.223-.465 1.549-1.042 2.058-.896-.423.661-1.261.571-1.812.999z"/><path fill="#F1EBE9" d="M94.164 45.756c-.125.073-.142.15-.011.234-.719.188-.56-.688-1.006-.83.688-.446 1.142.063 1.637.401-.164.203-.448.021-.62.195z"/><path fill="#E3A3A3" d="m73.106 80.942-.004-.204c.511-.45 1.146-.629 1.774-.828l.172.745c-.746-.303-1.337.027-1.942.287z"/><path fill="#C1A5A1" d="m82.231 78.952-.376-.008c-.37-.292-.286-.592.008-.869.181-.171.521-.222.604-.051.154.313-.015.652-.236.928z"/><path fill="#CEBDB9" d="M107.071 137.151c.068-.532.48-.365.798-.393-.681.657.366.512.326.954-.442.032-.961.207-1.124-.561z"/><path fill="#C7B0AC" d="m115.815 46.562.208.598c-.384.718-.888-.348-1.316.067l.354-.44c.199-.253.424-.414.754-.225z"/><path fill="#E4DEDD" d="M36.917 105.16c-.229.499-.084 1.104-.563 1.713v-1.705l.563-.008z"/><path fill="#DEAEAA" d="M106.646 78.785c.34.125 1.131-.927 1.016.388-.425.096-.804.072-1.016-.388z"/><path fill="#C3A9A5" d="M98.914 81.296c-.634.382-.926.022-1.424-.253.614-.195.98-.085 1.424.253z"/><path fill="#C7AEAC" d="m138.247 118.096-.367.78c-.191-.315-.546-.116-.878-.293.436-.213.713-.632 1.245-.487z"/><path fill="#E0BAB6" d="M118.196 75.533c.359-.365.694-.759 1.183-.966-.213.543-.383 1.141-1.183.966z"/><path fill="#EDE6E5" d="M135.939 124.624c.281.236.467.517.437.931-.688.013-.702-.445-.7-.915l.263-.016z"/><path fill="#C7AEAB" d="m122.971 132.184.406-.189c.688.676.146.944-.402 1.21-.119-.135-.132-.273-.011-.414.358-.199.043-.405.007-.607z"/><path fill="#F7F7F6" d="m132.052 131.813.074.335c.126.244-.111.319-.212.458.207.421-.026.547-.391.586-.14-.581.291-.942.529-1.379z"/><path fill="#C8AEAB" d="M98.554 51.148c.336.014.563-.506.959-.196a4.182 4.182 0 0 1-1.183.786c-.208-.303.065-.425.224-.59z"/><path fill="#EBE1E0" d="M134.086 102.188c.217-.413.644-.55 1.008-.769.108.839-.536.69-1.008.769z"/><path fill="#C3A9A5" d="M71.318 131.989c.309.033.384-.301.613-.392-.196.824-.571 1.088-1.249.397.211-.191.422-.167.636-.005z"/><path fill="#DBA19B" d="M112.629 77.941a3.937 3.937 0 0 0-.006-.155h1.961l.006.155h-1.961z"/><path fill="#C3A9A5" d="m93.748 79.951.195-.172 1.039.455c-.663.48-.879-.136-1.234-.283z"/><path fill="#FDFEFF" d="m133.266 130.215.26.358c.032.192-.026.292-.239.234l-.355-.001c-.078.071-.118.188-.239.211l-.093.002h-.093c-.196-.693.588-.459.759-.804z"/><path fill="#F6F4F4" d="M115.815 46.562c-.252.075-.504.149-.755.225-.166-.024-.338-.038-.434-.208.43-.235.903-.314 1.38-.383l-.191.366z"/><path fill="#C8B1AD" d="m81.26 78.926-.861-.201c-.075-.274-.441-.072-.554-.348.564-.007 1.149-.153 1.415.549z"/><path fill="#E5DFDE" d="M138.459 116.295c-.008.279.814.524.034.836-.064-.277-.67-.531-.034-.836z"/><path fill="#CFBCB9" d="M79.517 77.699c.304-.383.535-.417.791-.247.036.024.06.148.037.169-.227.21-.477.125-.828.078z"/><path fill="#FDFEFF" d="M135.281 126.027c.011.296-.018.565-.401.596-.281-.478-.05-.611.401-.596z"/><path fill="#DBA39F" d="M128.726 103.381c-.004-.451.203-.577.61-.396.113-.114.245-.101.382-.056.062.079.063.161.007.243-.388-.192-.613.394-.999.209z"/><path fill="#D1A1A3" d="M47.051 84.558h1.612c-.473.142-.945.23-1.612 0z"/><path fill="#C9B2AE" d="M36.586 110.708c.171-.038.369-.246.502.015.109.213.08.441-.136.604-.225-.145-.316-.37-.366-.619z"/><path fill="#C7AEAB" d="m37.742 113.113-.341.477c-.207-.597-.16-.914.552-.679-.023.115-.096.181-.211.202z"/><path fill="#DBA39F" d="M101.326 72.791c.203.231.873.349.192.794-.101-.256-.396-.465-.192-.794z"/><path fill="#D78E86" d="m111.205 77.771.251.227c-.394.176-.765.534-1.229.156.08-.168.252-.208.399-.281.181-.104.41.074.579-.102z"/><path fill="#D7B2B2" d="M38.972 78.913c.787-.126.477.482.557.83a1.978 1.978 0 0 1-.557-.83z"/><path fill="#E6D0CD" d="M136.341 100.747c.03.404-.297.515-.596.916.004-.609.368-.717.596-.916z"/><path fill="#E5CCC9" d="m132.87 102.771-.459-.352c.328.06.608-.297.887.038-.007.289-.2.325-.428.314z"/><path fill="#C1A7A2" d="M125.915 129.543c-.135-.058-.177-.168-.158-.302.021-.171.112-.315.292-.264.062.018.097.222.098.341-.001.127-.066.243-.232.225z"/><path fill="#C2A8A4" d="M87.506 78.866c-.361.113-.598.136-.792-.19.3-.215.496-.009.792.19z"/><path fill="#E4DDDC" d="M89.062 78.688c.391-.236.546.032.891.112-.403.213-.618.138-.891-.112z"/><path fill="#C9B5B2" d="M97.591 80.451c-.101.021-.208.063-.313.058-.12-.005-.273-.043-.242-.208.028-.143.169-.16.295-.133.124.026.237.076.26.283z"/><path fill="#DBA7A7" d="M87.799 81.763c-.389.32-.605.098-.783-.248.319-.103.581-.021.783.248z"/><path fill="#C4AAA7" d="m37.742 113.113.211-.202c.166.142.388.334.175.513-.131.109-.298-.145-.386-.311z"/><path fill="#D6867F" d="M129.725 103.172a1.145 1.145 0 0 1 .007-.165c.091-.181.255-.218.436-.223.224-.146.357-.123.347.181-.239.167-.497.253-.79.207z"/><path fill="#DFD6D4" d="M141.043 109.938c.07.047.322.077.177.137-.259.105-.378.316-.568.467-.017-.298-.02-.585.391-.604z"/><path fill="#DDA9A6" d="m119.001 61.267-.197-.161a45.054 45.054 0 0 0-.068-.358c.088.014.205-.002.257.048.144.142.271.31.008.471z"/><path fill="#CAB3AF" d="M143.42 79.361c.112.248.281.48.205.778-.311-.196-.597-.398-.205-.778z"/><path fill="#E7D2D0" d="M110.668 77.967c-.146.063-.294.125-.441.187l-.38.194c.007-.216-.09-.472.224-.567.167.162.445-.026.597.186z"/><path fill="#D1C0BE" d="m71.318 131.989-.636.006c-.162-.001-.294-.058-.374-.207.226-.203.541.007.772-.171l.227-.011c.005.128.007.255.011.383z"/><path fill="#ECE9E8" d="M71.081 131.617c-.207.285-.512.13-.772.171-.152.001-.291-.027-.378-.171h1.15z"/><path fill="#E0BBB8" d="m103.693 76.962.411.435c-.145.162-.328.21-.486.063-.188-.176.018-.335.075-.498z"/><path fill="#C5ACA9" d="M77.206 78.102c-.214.021-.338.05-.459.04-.11-.009-.168-.111-.089-.195.051-.054.173-.075.251-.058.081.018.148.101.297.213z"/><path fill="#C4ABA9" d="m140.634 110.712-.193.624c-.338-.333-.213-.523.193-.624z"/><path fill="#CEBAB7" d="m83.627 79.15-.505-.285c.319-.185.529-.12.722.067-.022.123-.095.194-.217.218z"/><path fill="#C0A3A0" d="m122.964 132.79.011.414c-.414.06-.367-.281-.326-.472.031-.147.205.019.315.058z"/><path fill="#CFBEBA" d="M126.926 64.245c.356.204.063.405-.002.607-.221-.203-.277-.405.002-.607z"/><path fill="#CBB5B2" d="m126.157 61.649.358.578c-.313.054-.466-.111-.53-.394l.172-.184z"/><path fill="#EEEDED" d="M96.345 82.921c-.28-.013-.579.052-.803-.195l.193-.162.602.181c.063.036.085.075.066.115-.018.041-.038.061-.058.061z"/><path fill="#BC9E99" d="m83.627 79.15.217-.218.386.025a4.223 4.223 0 0 0-.006.159c-.193.117-.382.298-.597.034z"/><path fill="#EFEAE9" d="M126.328 54.138c-.389-.25-.645-.589-.74-1.037.336-.232.264.452.583.223.262.231.154.533.157.814z"/><path fill="#D4C0BD" d="M144.044 74.79c-.025-.216-.647-.251-.187-.615.219.157.462.307.187.615z"/><path fill="#DED1CE" d="m95.127 44.361-.182-.57c.214.09.427.218.467.446.028.157-.169.122-.285.124z"/><path fill="#F9F8F8" d="M144.972 105.796c-.122.026-.359.034-.314-.066.414-.939-.089-2.235 1.102-2.871.024-.013.032-.056.048-.085.32.365.32.365 0 1.423-.021.271.095.575-.198.776-.181.186-.037.453-.162.652-.122.164-.26.275-.476.171z"/><path fill="#CFBBB7" d="M131.881 143.3c.024-.977-.694-.564-1.085-.499-.428.071-.355-.033-.235-.293.195-.167.39-.152.584.002.095-.02.201-.018.281-.063.341-.197.688-.023.895.146.32.263-.338.407-.206.717-.081.065-.159.062-.234-.01z"/><path fill="#C9B1AD" d="M140.914 122.915c-.118-.358-.305-.668-.24-1.076.24.06.629.054.684.187.158.38-.197.614-.444.889z"/><path fill="#E3D8D6" d="m145.24 109.579.25-1.623c.06.805.304 1.61-.049 2.396-.283-.202-.004-.549-.201-.773z"/><path fill="#E7DDDB" d="M139.646 120.859c.335-.391.8-.085 1.183-.22-.178.538-.415 1.057-.416 1.643-.6-.348.655-1.535-.767-1.423z"/><path fill="#D7C6C3" d="M142.521 117.612c-.147-.528-.131-.954.275-1.526-.11.605.369 1.054-.275 1.526z"/><path fill="#C2A7A4" d="M145.807 104.196c-.155-.474.304-.948 0-1.423l.026-.431c.643.628.515 1.244-.026 1.854z"/><path fill="#C5ACA8" d="m131.145 142.51-.584-.002c.003-.253-.354-.65.103-.714.345-.049.666.24.481.716z"/><path fill="#EEE8E8" d="m144.972 105.796.432-.233c.155.084.064.295.2.389.063.208.344.424-.021.618-.261-.215-.734-.258-.611-.774z"/><path fill="#E5D9D6" d="m144.625 108.952.2-1.21c-.052-.184-.01-.271.195-.192.189.501.05.956-.198 1.395-.061.096-.128.095-.197.007z"/><path fill="#C9B1AD" d="M136.402 131.295c-.408-.635-.023-.906.32-1.325.048.54-.19.871-.32 1.325z"/><path fill="#E8DFDF" d="M132.302 141.924c.021-.375-.083-.801.402-.986.187.453-.302.821-.16 1.269-.273.07-.198-.157-.242-.283z"/><path fill="#C7ADAA" d="M139.731 124.397c-.144-.444.084-.712.277-1.12.306.556.069.821-.277 1.12z"/><path fill="#E9E0DE" d="M144.226 111.723c-.311-.432-.155-.716.114-1.119.09.436.144.738-.114 1.119z"/><path fill="#E1D4D2" d="M132.701 140.529c-.218-.112-.542-.129-.51-.477.009-.093.178-.252.258-.242.334.036.21.331.25.532.01.063.011.126.002.187z"/><path fill="#D2BFBC" d="M135.482 131.793c.056-.33-.176-.729.233-.976-.128.411.133.648.577.925l-.81.051z"/><path fill="#C8AEAB" d="m131.881 143.3.233.009c-.126.453-.126.453-.761-.021.183-.182.354.068.528.012z"/><path fill="#EDE6E5" d="M143.723 113.239v.774c-.355.022-.281-.219-.284-.386-.004-.16.062-.302.284-.388z"/><path fill="#D7C6C3" d="M142.552 115.88c-.177-.408-.031-.62.218-.829.07.303.156.579-.218.829z"/><path fill="#C1A5A1" d="M144.625 108.952a.62.62 0 0 1 .197-.008c-.046.354.139.804-.49 1l.293-.992z"/><path fill="#EAE2E0" d="m145.021 107.55-.195.192a6.33 6.33 0 0 1-.194.015c-.019-.216-.501-.221-.293-.471.181-.217.445.116.689.099-.004.054-.006.11-.007.165z"/><path fill="#DDCFCD" d="M131.786 146.352c.092.109.203.188.191.237-.035.146-.085.324-.192.404-.119.09-.249-.027-.216-.176.033-.146.126-.279.217-.465z"/><path fill="#E9E2E1" d="M132.658 144.75c-.305.171-.517.318-.924.121.323-.167.528-.347.924-.121z"/><path fill="#CFB9B5" d="m131.32 141.122.368.154c.007.187.021.486-.186.454-.325-.05-.118-.399-.182-.608z"/><path fill="#CFBBB8" d="m131.69 136.532-.184.429c-.149.238-.419.198-.436.006-.032-.382.386-.319.62-.435z"/><path fill="#EDE6E5" d="m137.083 127.779.36-.365c.343.208.155.478-.01.611-.233.191-.279-.091-.35-.246z"/><path fill="#DCCDCB" d="M130.989 148.33c-.021-.114-.064-.231-.061-.348.004-.145.094-.255.247-.183.06.028.099.165.093.25-.007.131-.063.257-.279.281z"/><path fill="#C0A39E" d="M145.24 109.579c.291.199.121.519.201.772-.225.236-.395.255-.372-.132.013-.216.112-.427.171-.64z"/><path fill="#C7AEAB" d="m131.551 139.121-.407-.161c.062-.193.069-.534.308-.478.372.089-.014.43.099.639z"/><path fill="#EAE2E1" d="M133.085 133.806c.187.077.496.06.472.332-.018.199-.275.215-.471.21l-.001-.542z"/><path fill="#D8C8C5" d="m146.584 98.206.197.187c.008.224-.05.552-.274.449-.222-.101-.111-.435.077-.636z"/><path fill="#D4C3C0" d="M146.264 101.737c.198.216.273.435.255.762-.369-.188-.33-.448-.255-.762z"/><path fill="#C7ADAA" d="M136.979 129.455c-.124-.251-.07-.422.14-.541.23.265-.143.367-.14.541z"/><path fill="#E4D8D6" d="m132.103 133.978-.408.195c-.111-.084-.193-.211-.075-.31.182-.151.354-.062.483.115z"/><path fill="#DBCDCB" d="M140.19 124.504c-.011.317-.078.482-.26.598-.149-.258-.041-.421.26-.598z"/><path fill="#D9C9C6" d="M145.604 105.951c-.169-.077-.184-.233-.2-.389.023-.212-.021-.448.205-.59l-.005.979z"/><path fill="#E3D6D4" d="M144.249 113.701v-.847c.251.249.196.453 0 .847z"/><path fill="#DDCFCD" d="M31.303 137.024c.343.344.313.567.013.797-.192-.258-.159-.493-.013-.797z"/><path fill="#C7ADAA" d="m26.007 76.321-.197.659c-.232-.393-.38-.797-.219-1.281.352.116.104.543.416.622z"/><path fill="#CBB5B2" d="m34.934 56.669.207.462-.649.105c.029-.298.258-.416.442-.567z"/><path fill="#C9B1AD" d="M73.311 40.811c-.163.233-.178.401.178.41.112.25.641-.17.58.36-.443.085-.904.123-1.326.27-.38.133-.602-.015-.832-.252.388-.402.688-.962 1.4-.788z"/><path fill="#E9E2E1" d="M28.828 74.566c.139.691.082 1.356-.258 1.985-.038-.383.191-.799-.141-1.146-.301-.109-.381-.431-.598-.621-.071-.479.064-.685.557-.424a.307.307 0 0 1 .244.146c.037.114.096.154.196.06z"/><path fill="#F6F3F2" d="m132.691 131.018.239-.211c.351.665 1.259.84 1.565 1.925-.867-.537-1.307-1.158-1.804-1.714z"/><path fill="#E9E2E1" d="m131.914 132.606.212-.457c.25-.08.091-.537.36-.494.401.063.51.424.553.896-.407-.123-.778-.121-1.125.055z"/><path fill="#FBFBFB" d="M27.832 74.784c.413.001.545.272.598.621.016.384-.416.206-.538.467-.158-.382-.069-.737-.06-1.088z"/><path fill="#EEE8E6" d="M104.895 48.148c-.361.255-.602.883-1.204.388.379-.195.661-.698 1.204-.388z"/><path fill="#EBE4E2" d="M95.126 45.542c-.059-.14-.113-.423-.099-.415.421.238 1.129.25.915 1.041-.231.091-.35-.036-.433-.228l-.337-.342-.046-.056z"/><path fill="#CDB6B3" d="m100.302 50.133.847-.547c.216.246.513.116.771.167-.438.27-1.018.187-1.407.574-.081-.055-.195-.072-.211-.194z"/><path fill="#CBB5B2" d="M145.395 86.721c-.305-.517-.138-1.079-.156-1.623.06-.061.129-.071.205-.037.093.129.036.306.137.434l.03.406c-.294.215-.148.545-.216.82z"/><path fill="#E0D2D1" d="M28.987 73.369c.019.233.041.468-.205.613-.053.068-.119.083-.198.053-.107-.121-.039-.306-.155-.424-.03-.582.301-.326.558-.242z"/><path fill="#D1BDB9" d="M136.927 123.572c.168.233.552.147.555.501.001.05-.212.158-.308.142-.349-.063-.32-.321-.247-.643z"/><path fill="#E5DDDC" d="M142.034 106.79c.204-.252.377-.439.655-.204.054.047.083.229.055.249-.232.163-.447.024-.71-.045z"/><path fill="#F7F4F4" d="m95.51 45.941.433.228c.011.197-.008.424-.272.331-.246-.087-.428-.282-.161-.559z"/><path fill="#E5D9D8" d="m146.018 90.858-.441.181c.02-.261.038-.522.06-.803.335.106.33.38.381.622z"/><path fill="#D5C4C1" d="m59.79 51.142.031-.234c.262-.112.439-.405.774-.36-.188.307-.4.581-.805.594z"/><path fill="#E6DBDA" d="m133.286 130.808.239-.234c.153.107.413.275.294.413-.186.216-.376-.037-.533-.179z"/><path fill="#FFF" d="m28.429 73.61.199.39c.082.198.139.393-.053.565l-.187-.206.041-.749z"/><path fill="#F5F2F2" d="M134.39 128.49c.254-.156.441-.089.598.149-.287.29-.418-.006-.598-.149z"/><path fill="#EBE4E2" d="M94.164 45.756c.155-.228.399-.173.62-.193l.342-.02.047.055c-.301.281-.672.111-1.009.158z"/><path fill="#E89F9F" d="M109.257 97.233c-.005.327-.064.718.201.926.581.454.743 1.526 1.817 1.269 1.147.744 2.016 1.782 2.909 2.789.501.566.936 1.21 1.599 1.592.454.262.24.718.434 1.04.505 1.037.703 2.145.814 3.319-.372-.135-.093-.459-.322-.6-.197.146-.055.382-.105.571-.515.067-.141-.459-.383-.572-.079-.089-.11-.205-.173-.305.042.116.104.223.181.32.134.238.049.527.181.766.224 1.347.953 2.483 1.454 3.702.517 1.258 1.854 1.644 2.217 2.849.362 1.205 1.203 2.174 1.615 3.341.086.244.753.498.169.873-.468.3-1.154.077-1.238-.202-.208-.694-.66-.552-1.13-.646-.919-.186-.533-.602-.107-.983.397.04.352-.146.196-.387-.222-.189-.44-.383-.667-.567-.299-.242-.583-.77-.868.059-.1.289-.514.389-.849.193-.211-.123-.58-.099-.373-.598.103-.25-.122-.8-.567-.186-.152.21-.426.068-.643.098-.08-.059-.176-.093-.252-.022-.093.084-.003.157.05.226.64.288.735 1.12 1.391 1.393.396.267 1.044.154 1.193.792.412.366.863.651 1.35.93 1.283.731 1.914 1.918 2.254 3.387.246 1.069.565 1.964-.591 2.637.119.996-.275 1.578-1.316 1.65-.051.004-.118.075-.141.13-.67 1.644-1.562 2.527-3.149 3.13-.149.057-.316.148-.406.273-1.229 1.701-3.131 1.229-4.801 1.525-.511.091-1.047.261-1.477.54-.833.541-1.719.57-2.645.501a.212.212 0 0 1-.237.056c-.147-.116-.275-.239-.16-.449 1.49-.019 2.466-1.022 3.372-1.962 1.145-1.186.805-3.093-.652-4.002-.713-.445-.58-.813-.153-1.26a19.483 19.483 0 0 0 2.095-2.596c.624-.929.614-1.729.229-2.662-.138-.331-.22-.686-.327-1.029-.653-.4.224-.797.004-1.195-.522-.806-.592-1.764-.897-2.643-.35-1.004-1.175-1.411-2.082-1.73.13-.624-.332.01-.402-.188l.002-.013c-.126-.063-.261-.113-.351-.231-.555-1.273-1.518-2.348-1.834-3.738l-2.669-4.716c-.108-.189-.335-.336-.208-.61.679-1.463.258-2.806-.453-4.117-.031-.058-.063-.117-.082-.18-.084-.267-.439-.521-.216-.793.227-.274.543-.035.813.069.113.044.229.146.369.003-.175-.474-.663-.456-1.015-.657-.132-.075-.707-.205-.122-.515.604.128 1.216.236 1.671.724-.395-.474-1.072-.463-1.473-.918-.319-.073-.73-.124-.758-.507-.131-1.86-1.465-2.997-2.521-4.304-.041-.05-.067-.111-.101-.168.221-.196.389-.041.555.079a.335.335 0 0 0 .111.077.437.437 0 0 0-.131-.123c-.211-.197-.551-.17-.716-.432-.815-.737-1.846-.551-2.91-.622.374-.646.926-.917 1.473-1.231.271-.156 1.244-.257.308-.899-.323-.222-.086-.449.073-.548.202-.127.437-.586.716-.153.306.475.587.446.976.133.307-.248.698-.523 1.042-.181.305.304.339.726.173 1.197-.487 1.386-.487 2.746.297 4.073.644 1.091 1.936 1.607 3.114 1.166.357-.134 1.016-.496 1.018-.389.017.61.529 1.13.313 1.754-.161.468-.345.928-.511 1.394-.158.445-.069.628.453.477a39.14 39.14 0 0 1 2.758-.712c.369-.079.428-.208.32-.53-.19-.57.075-.57.484-.367.234.04.336.219.42.415zM67.143 127.223c-1.255-.466-2.493-.102-3.741.157h2.67c-.34.634-.813.642-1.291.637a4.461 4.461 0 0 1-2.03 0c-.736-.176-.179-.497-.057-.819-.969.094-1.795-.546-2.764-.38-1.004.172-1.813-.466-2.798-.759.018.43.361.746.278 1.139-.599.238-1.028-.205-1.528-.373-.355-.12-.626-.456-1.045-.408-1.192-.28-2.371.313-3.563.051-.383-.085-.635.059-.953.314-.575.462-1.229.969-2.056.45-.171-.188-.429-.189-.639-.296-2.232-1.676-4.142-3.637-5.476-6.12-.588-1.096-.487-2.293-.589-3.464.118-.761.081-1.524.062-2.288.084-1.182.287-2.35.418-3.526.037-.332.103-.656.455-.816 1.841-.58 3.137-1.983 4.684-3.298.017 1.119-.468 1.86-.798 2.61-.791 1.793.427 5.309 2.249 6.283 1.938 1.038 3.136.032 4.332-1.096.723-.681 1.868-.581 2.421-1.519.158-.27.377.103.549.22 1.073.734 2.159.803 3.349.223.861-.421 1.854-.359 2.79-.456.547-.057.213.396.194.637-.091 1.241-.364 2.502.271 3.682 1.324 2.462 2.044 2.427 4.419 1.952.192-.039.399-.086.561-.19.917-.595 1.79-.91 2.711.043.396.411 1.06.188 1.783.391-.701.388-.969.913-1.336 1.462h.625c.039.063.058.157.012.175-.911.345-.736.948-.389 1.597.188.035.5.085.432.274-.161.444-.639.182-.978.208.036.435.292.576.538.726.07.042.095.085.072.129-.023.044-.046.066-.069.066-.414.424.521.583.193.989l-.122.063c-.468.028-.898-.072-1.27-.372-.058-.065-.12-.126-.174-.196-.025.065.059.063.069.112.177.262.542.284.69.571.079.996-.813.847-1.336 1.136-.417 0-.84-.195-1.253.03-.834-.28-1.284-.961-1.704-1.541.117.622 1.047.82 1.132 1.59zM78.508 129.641c-.068-.859-.049-1.693.194-2.548.161-.569.007-1.216.116-1.838.075-.429-1.109-.649-1.658-.233-.463.351-.888.781-.921 1.446-.04.781-.111 1.562-.169 2.341-1.281.112-2.524-.191-3.779-.354a1.102 1.102 0 0 1-.273-.099c-.105-.081-.223-.235-.11-.31.503-.327.41-.805.374-1.276.038-.139.126-.244.218-.349.092-.246.258-.491.261-.738.006-.48.057-.72.655-.578.357.085.45-.16.378-.604-.06-.373.232-.414.497-.461.215-.277.561-.246.692-.294-.182.076-.546.015-.89.093-.431.014-.788.009-.538-.621.097-.241.142-.528.073-.849-.202-.954.76-2.1 1.74-2.089.304.003.607-.37.908-.014-.106.153-.057.382-.238.499.172-.007.254-.225.444-.19.144.015.256.08.33.206.065.117.114.242.159.368.202.379.45.598.924.395.315-.136.659-.265 1.017-.094a.54.54 0 0 1 .094.395c-.378.423-.765.838-1.124 1.199.366-.312.873-.232 1.477-.225-.366-.088-.815.075-.842-.192-.052-.523.59-.478.857-.766.283-.463.092-.763-.336-.981a1.252 1.252 0 0 1-.43-.464c-.063-.107-.061-.242-.146-.34-.419-.487-.175-.953.118-1.346.238-.32.518-.379.68.154.574 1.888 1.756 2.922 3.974 3.527.023-.303-.389-.201-.389-.483.968-.389 1.766.206 2.634.472-.094.413-.438-.104-.55.274.909.146.771.673.487 1.314-.44.991-.568 2.021-.216 3.082.574 1.724 1.928 2.517 3.594 1.878a20.327 20.327 0 0 0 4.042-2.077 6.154 6.154 0 0 0 2.207-2.606c.141-.308.298-.648.666-.663.435-.018.393.452.555.708.375.591.291.987-.327 1.479-1.437 1.145-1.597 2.74-.479 4.189.471.609.185 1.108.05 1.668-.148.617-.615.315-.963.336-.272.015-.503.056-.709.273-.962 1.014-2.103.934-3.243.414-.873-.397-1.806-.304-2.704-.466-.837-.15-1.699-.189-2.552-.202-.433-.007-.617-.533-1.066-.405-.217-.016-.442.009-.634-.129-.524-.238-1.241-.016-1.597-.661l.005-.007c-.267-.168-.616-.097-.87-.301-.278-.005-.54-.126-.82-.108-.684-.082-1.278-.388-1.847-.749zM60.595 90.073c1.503-1.4 3.373-2.279 5.056-3.411 1.287-.865 3.013-1.062 4.522-1.626.515-.192 1.186.18 1.818.082.798-.124 1.486-.34 2.092-.95.456-.459.977-.791 1.805-.25.868.567 1.976.155 2.975-.014.327-.311.743-.128 1.085-.195-.288-.105-.796.245-.886-.391 1.188-.393 2.309-.221 3.375.4.051.045.068.09.052.135-.016.046-.032.069-.049.069l-.63.443c1.018-.149 2.015-.04 3.009-.049.786-.048 1.344.475 1.983.791.134.308.594.536.287.954-.308.419-.642.097-.975-.003-1.512-.456-3.065-.412-4.613-.319-1.179.071-2.352.251-3.53.352-.447.037-.855.045-1.006.586-.113.406-.489.403-.809.4-.392-.003-.67.157-.974.395-1.144.893-1.154.878.335 1.667-1.35-.225-2.424.038-3.532-.014-1.55-.071-2.983.588-4.224 1.479-1.222.877-2.476 1.454-4.008 1.456-1.481.001-2.82.619-4.162 1.175-.216-1.228.305-2.223 1.004-3.162zM77.471 116.293l.195-1.386a.664.664 0 0 1 .07-.382c-.157-.002-.171.153-.249.235-.14.149-.077.386-.213.541-.074.354-.11.744-.593.781-.416.032-.58-.292-.705-.587-.334-.785.618-.403.752-.893-.274-.211-.59-.459-.134-.926 2.687-2.747 4.577-6.077 6.698-9.238.534-.797 2.384-1.197 3.213-.726.41.233.075.624.307.857.727.723.618 1.698.787 2.591.341.917.039 1.643-.474 2.455-.818 1.297-1.619 2.4-3.197 2.973-1.424.518-2.713 1.457-3.743 2.666-.605.711-1.401 1.183-2.311 1.441-.418.151-.563.027-.403-.402z"/><path fill="#E89F9F" d="M102.694 107.951c.847 1.631 1.478 3.372 2.659 4.968-.749.078-1.334-.188-1.914-.171-1.886.058-3.808-.056-5.521 1.039-.453.289-1.059.343-1.6.488-.276.075-.521.002-.695-.248-.791-1.128-1.8-1.99-3.318-2.544 2.141-.597 3.926-1.415 5.443-2.776.334-.3.91-.352 1.388-.464 1.168-.272 1.617-1.539 2.7-1.93.078-.028-.2-.278.024-.431.516.357.848.816.845 1.471.105.202-.121.397-.011.598zM93.167 91.264l1.062.607c-.405.523-1.09.242-1.64.54.427.464.871-.226 1.219.19-.318.45-.838.684-1.37.782-1.969.366-3.478 1.404-4.515 3.084-.338.548-.672.543-1.129.318-.624-.306-.231-.66-.067-1.053.651-1.555.909-3.227.626-4.85-.236-1.353-1.342-2.138-2.725-2.405-.067-.042-.091-.084-.068-.127s.045-.064.067-.064c1.128-.018 2.097.443 3.063.958.338.179.749.798 1.166-.108.139-.302.958.128 1.473.181.155.016.303.107.453.164.199-.024.388.071.69.049-.331-.36-.692-.519-1.083-.634-.744-.64-.37-1.465-.314-2.21.021-.273.516-.503.711-.3.303.313 1.169.304.912.844-.367.771.165 1.012.514 1.375.511.531 1.054 1.023.96 1.857.09.171.007.297-.104.414-.271.205.103.249.099.388z"/><path fill="#F1F0F0" d="m42.497 110.721-.611 4.389c-.2.257.101.673-.279.872-.317.067-.521-.129-.729-.315-.174-.152-.266-.357-.355-.563-.223-.3.021-.684-.176-.989-.113-.41-.246-.815-.335-1.231-.222-1.034-.699-1.872-1.697-2.337-.288-.196-.257-.621-.572-.799-.574-.3-.115-1.052-.605-1.389-.114-.139-.105-.271.022-.397.429-.375.84-.772 1.371-1.008.146-.068.23.013.303.12.038.015.066.159.082.074.037-.202.05-.415.051-.624-.022-.119-.036-.239-.05-.359 1.438-1.419 2.384-3.405 4.57-3.96.227.194.238.456.2.717-.173 1.185-.173 2.397-.575 3.544-.203.276-.48.437-.81.517-.538.301-.751.897-1.182 1.3-.303.283-.188.565.067.854.455.509.876 1.052 1.31 1.584z"/><path fill="#E89F9F" d="M84.824 115.511c.27 0 .429-.25.649-.311.392-.108.14.172.135.299-.11.307-.354.531-.504.813.213-.293.391-.616.721-.805.498-.104.978-.214 1.381-.584.307-.28.754-.282 1.139-.197a5.262 5.262 0 0 0 1.744.08c.336-.036.875-.403 1.103.249.197.569.439 1.223-.008 1.693-1.205 1.267-2.443 2.493-3.4 3.975-.155.241-.552.357-.86.46-.559.187-.566-.091-.36-.495-.544.212-.817-.42-1.291-.416-1.064.009-1.856-.574-2.631-1.198l-.006.006c.396-.741.172-1.7.874-2.349.3-.277.483-.682.72-1.028.195-.07.409-.087.594-.192zM103.797 117.262c-.17-.455-.714-.423-.746-.862 1.061-.137 2.325.407 2.645 1.263.154.416.072.958-.514 1.149-2.545.829-4.943 1.911-6.821 3.906a4.897 4.897 0 0 1-.437.402c-.044.036-.12.033-.388.098.406-1.065 0-2.134.979-3.082.695-.674 1.168-1.643 1.84-2.419.794-.918 1.639-1.283 2.769-.655.164.091.369.112.673.2z"/><path fill="#E79F9F" d="M76.475 104.571c-.768.343-1.353.869-1.69 1.653-.063.145-.146.361-.261.39-.943.24-1.294 1.251-1.992 1.633-1.18.646-1.979 1.62-2.891 2.503-.61.593-1.346.886-2.092 1.197-.361.15-.813.216-.889-.232-.065-.39.528-.681.746-.638 1.382.268 2.099-.783 2.906-1.48 1.675-1.445 2.94-3.282 4.36-4.971.97-1.153 1.306-2.647 2.227-3.859.852-1.122 2.026-1.266 3.131-1.701.311-.122.4.098.299.396a20.2 20.2 0 0 1-2.713 5.254c-.234.328-.793.199-.942.655l.006-.005c-.045-.126-.708.235-.232-.291.135-.15.225-.301.238-.499.916-1.12 1.549-2.42 2.228-3.513-.82 1.042-1.191 2.58-2.439 3.508z"/><path fill="#F1F0F0" d="M79.97 133.025c.62-.021 1.234-.299 1.606.421.099.19.281.149.435.143 2.13-.092 4.185.261 6.177 1.112-.769.563-1.144 1.776-2.468 1.624-.523 1.436-1.711.581-2.601.728-.257.043-.707-.067-.808-.251-.607-1.106-1.902-1.726-2.163-3.066-.043-.22-.108-.436-.178-.711zM116.217 104.849c-1.367-1.578-2.76-3.133-4.241-4.606-.254-.252-.468-.542-.7-.814.391-.039 1.055.262.7-.681-.04-.108.293-.769.227-1.294-.038-.304.471-.537.866-.373 1.144.474 2.236 1.049 2.575 2.368.266 1.037 1.018 2.03.389 3.188-.05.091-.023.301.049.366.981.894.999 1.085.135 1.846z"/><path fill="#E89F9F" d="M97.101 100.441c.215-.037.343.042.441.195.524.818 1.251 1.582.642 2.681-.175.314-.266.675-.428.999-1.013 2.027-1.775 2.24-3.688 1.047-1.085-.678-1.15-2.088-.098-2.771.69-.447 1.365-.907 1.959-1.479.342-.33.776-.494 1.172-.672z"/><path fill="#E8A0A0" d="M42.898 106.559c.196-1.451.393-2.903.588-4.355.196-.284.572-.222.813-.419 1.007-.583 2.161-.792 3.211-1.267.917-.336 1.827-.691 2.746-1.024.318-.115.649-.365 1.001-.06-.563 1.47-1.867 2.105-3.118 2.83-1.506.872-2.992 1.824-4.119 3.15-.385.452-.473 1.194-1.091 1.542-.125-.124-.143-.256-.031-.397z"/><path fill="#E89F9F" d="M51.052 110.334c.65.478 1.353.802 2.183.805.269.002.72-.056.41.457-.688 1.137-1.483 2.191-2.672 2.846-.929.512-1.674.238-2.078-.747-.447-1.091-.578-2.229-.215-3.375.246-.778 1.041-.52 1.569-.769.423.101.597.459.803.783z"/><path fill="#F0EFEF" d="m51.257 99.434-3.755 1.19c-.214.089-.246-.019-.212-.196 2.192-.62 3.744-2.216 5.436-3.592.587-.477 1.134-1.005 1.815-1.348.248-.125.362-.301.494-.55.317-.597.563-1.192 1.511-1.258.636-.044 1.103-.882 1.526-1.459.678-.923 1.536-1.604 2.521-2.148-.381 1.039-.781 2.072-1.002 3.162-3.181 1.524-6.083 3.423-8.334 6.199z"/><path fill="#E89F9F" d="M65.94 105.368c-.618 1.304-1.229 2.61-1.864 3.906-.079.161-.331.397-.422.366-.908-.315-1.361.431-1.892.847-.931.729-1.91 1.128-3.091.971-.124-.017-.266-.134-.36 0-.163.229-.239.6-.629.241-.31-.286-.305-.646-.251-1.008.063-.429.419-.354.7-.349 1.813.033 3.114-1.034 4.274-2.179 1.074-1.057 2.449-1.709 3.535-2.795zM68.159 114.16c-.008.638-.044 1.239-.196 1.849-.196.787-.706 1.223-1.444 1.248-.767.025-.736-.694-.851-1.3-.613.275-.728.937-1.163 1.299-.284.235-.527.523-.946.385-.403-.133-.337-.499-.412-.815-.111-.469-.009-.924.046-1.37.153-1.256.62-1.648 1.733-1.329 1.083.309 2.132.176 3.233.033z"/><path fill="#E79F9F" d="m74.893 96.83 1.25-1.088c-.572 1.464-.72 3.17-2.5 3.847-1.015.386-1.673 1.377-2.873 1.833.734-2.148 1.565-4.09 2.733-5.88.245-.377.564-.201.881-.11.385.108.554.349.484.733-.04.226-.126.442-.19.663-.187.388-.532.615-.864.856-.79.219-1.308.691-1.372 1.428-.119.223.103.214-.025.18-.021-.006-.016-.036.011-.094.313-.661.737-1.219 1.418-1.542.394-.216.661-.596 1.047-.826z"/><path fill="#E89F9F" d="M94.758 96.032c.518.881 1.032 1.763 1.557 2.64.179.3.386.776-.146.69-1.412-.229-2.208.796-3.214 1.384-.452.265-.661.17-.56-.302.354-1.645.708-3.304 2.168-4.411.064-.077.128-.077.195-.001z"/><path fill="#E79F9F" d="M81.654 93.72c-.156.959-.279 1.833-.449 2.696-.066.334-1.609.92-1.907.771-.265-.132-.151-.331-.077-.499.457-1.025.335-2.162.319-3.194-.012-.844.763-.794.844-1.336.489.194.936.437 1.104.987.066.217.126.435.166.575zM104.178 130.85c-.748.982-1.337.339-1.921.116-.022-.244.108-.381.246-.429 1.278-.445 2.306-1.396 3.589-1.803.537-.17 1.248-.477 1.634.453h-2.102c.551.746 1.416 1.404.9 2.32-.334.595-1.145.286-1.739.197-.403-.06-.931-.149-.607-.854zM76.183 89.141c2.551-.39 4.745-1.681 7.337-.672-1.776.023-2.896 1.312-4.38 1.838-.615.219-1.011.191-1.483-.226-.363-.319-.82-.53-1.474-.94z"/><path fill="#F0EFEF" d="M117.871 132.295c.251-.369.6-.423.875-.592.331-.202.758-.233.706-.859-.029-.348.548-.502.886-.695.684-.39 1.447-.679 1.817-1.456.103-.215.23-.297.466-.172.204.108.209.217.188.456-.126 1.371-1.104 2.147-2.008 2.971-.456.415-2.296.609-2.93.347z"/><path fill="#E79F9F" d="M93.067 85.519c.595.145 1.066.546 1.527-.148.188-.282.775-.021 1.108.164.541.301 1.043.681 1.53 1.066.155.124.376.372.168.591-.118.124-.353.523-.576.046-.293.166-.618.295-.865.513-.133.118-.122.271-.396.376-.703.272-.886-.031-1.087-.581-.275-.758-1.104-1.137-1.409-2.027zM76.67 111.721c1.281-2.078 1.786-4.627 3.489-6.45l.46.259c-.61 1.957-1.23 3.916-2.79 5.409-.332.317-.705.589-.953.985-.182.047-.276.006-.206-.203z"/><path fill="#EEEDED" d="M72.134 128.231c1.316.163 2.662.128 3.937.578.052.69-.076 1.058-.897.673-.786-.369-1.638-.247-2.468-.085-.542-.052-1.028.191-1.54.296-1.039.212-1.139.141-1.058-.876.063-.206.218-.3.418-.336.55.016 1.134.241 1.608-.25z"/><path fill="#E79F9F" d="M90.789 107.308c.019-.331.178-.713.514-.938.419-.279.584.202.759.41.37.442.883.529 1.364.725.293.119.755.182.783.521.031.379-.457.395-.727.55-.197.113-.428.169-.646.244-1.265.432-2.003-.082-2.047-1.512zM94.758 96.032l-.195.001c.197-.319.725-.358.708-.874-.009-.246.227-.277.425-.318 1.298-.271 2.596.575 2.905 1.967l-3.843-.776z"/><path fill="#E59F9F" d="m107.676 113.119.191.191c-.567.317-.98.239-1.442-.298-.727-.842-1.227-1.795-1.666-2.789-.104-.233-.378-.572-.074-.802.229-.174.568-.149.805.115.612.419.755 1.142 1.073 1.738.338.639.689 1.262 1.113 1.845z"/><path fill="#E19F9F" d="M84.623 102.241c.508-1.24.704-2.383 1.366-3.413.189.419-.29.653-.078 1.049.129-.158.231-.305.354-.43.115-.118.146-.43.423-.235.16.113.328.275.245.49-.185.479-.104.974-.125 1.461-.02.461-.301.592-.708.647-.456.062-.93.053-1.477.431z"/><path fill="#E79F9F" d="M70.918 112.722c.289-.472.838-.608 1.226-.948.322-.283.46.097.672.163.353.11.05.32-.017.444-.527.992-1.302 1.761-2.239 2.366-.239.155-.342-.06-.44-.231a.256.256 0 0 1-.082-.231c.083-.293.235-.556.359-.831.129-.276.291-.528.521-.732z"/><path fill="#E59F9F" d="M89.396 125.035c-.136-.236.434-.354.038-.724-.626-.585-.242-1.015.459-1.033a11.558 11.558 0 0 0 2.604-.354c-.502.6-.631 1.514-1.737 1.377-.532-.066-.65.767-1.168.938-.117-.018-.141-.126-.196-.204z"/><path fill="#E5A1A0" d="M97.961 133.791c-.303-.319-.065-.391.202-.397.59-.016 1.181-.005 1.782-.114-.751-.578-1.727.333-2.523-.35 1.496-.806 2.893-.438 4.383.147-.823.451-1.659.656-2.482.896-.434-.21-.95.192-1.362-.182z"/><path fill="#E59F9F" d="M102.18 122.522c.723-.737 1.622-1.137 2.47-1.607.158-.089.41-.106.533.09.104.163-.073.293-.151.432-.642 1.133-1.463 1.46-2.852 1.085zM72.208 95.464l-2.355 3.207c-.224-1.559.346-2.372 2.355-3.207zM72.497 92.448c-.899.273-1.602.88-2.371 1.377-.237.153-.583.542-.856.187-.295-.383.229-.504.405-.744.666-.91 1.717-.775 2.632-1.012.209-.08.24.016.19.192zM97.939 99.211c-.147-.46-.594-.771-.661-1.279 1.459-.237 1.653-.061 1.65 1.479-.399.277-.736.247-.989-.2z"/><path fill="#E19F9F" d="M70.517 119.08c-.264-.01-.575.026-.685-.276-.131-.365.274-.39.444-.552.188-.18.423-.314.65-.446.309-.179.607-.424 1.007-.261-.182.275.038.583-.059.853-.156.438-.549.259-.854.262-.18.002-.358-.078-.558-.126.034.331.262.311.447.35.024.372-.173.307-.392.196z"/><path fill="#EDECEC" d="M82.83 132.162c-.153.053-.311.157-.461.148-.37-.022-.84.642-1.073.006-.217-.589-.175-1.275.736-1.374.579.061.64.581.858.963.02.095 0 .181-.06.257z"/><path fill="#C19F9A" d="M76.475 104.571c1.105-1.303 1.757-2.901 2.842-4.223-.74 1.491-1.312 3.083-2.631 4.227l-.211-.004z"/><path fill="#E39F9F" d="m70.122 114.311-.003.205c-.316.315-.517.758-1.09.994.313-1.244.453-2.445 1.889-2.788-.034.313-.142.59-.396.792-.276.194-.236.547-.4.797z"/><path fill="#EDEAE9" d="M78.508 129.641c.709-.021 1.271.452 1.938.574.129.219-.111.286-.174.427.095.2.344.327.251.79-.714-.642-1.829-.623-2.015-1.791z"/><path fill="#D09F9C" d="m78.664 120.27.396.397c.162.324.337.651-.202.8-.379.244-.841.238-1.247.469-.64.363-.511-.583-.929-.678.296-.246.6-.447.994-.197.13.208.261.202.391.001.23-.242.377-.544.597-.792z"/><path fill="#C29E9A" d="M107.676 113.119c-1.33-.827-1.35-2.454-2.187-3.582l.193-.196c.736 1.222 1.524 2.416 1.994 3.778z"/><path fill="#E19F9F" d="M83.72 98.605c-.125 1.002-.36 1.968-.954 2.815-.391-1.159.629-1.88.954-2.815zM79.692 105.418c.011-.957.747-1.428 1.248-2.086.165 1.139.076 1.285-1.248 2.086z"/><path fill="#DF9F9F" d="m92.965 90.859.207-.396c.445.205.446-.098.356-.36-.142-.417-.348-.812-.581-1.339 1.026.463 1.12 1.278 1.204 2.099-.15.198-.369.203-.588.204a51.895 51.895 0 0 1-.397-.005.248.248 0 0 1-.201-.203z"/><path fill="#DE9F9E" d="M82.882 91.178c1.04-.818 1.093-.808 1.411.201.094.299.402.539.243.97-.457-.541-.755-1.255-1.654-1.171z"/><path fill="#E39F9F" d="M65.345 100.211c-.316.589-.497 1.225-1.029 1.711-.33-1.274-.213-1.46 1.029-1.711z"/><path fill="#DF9F9F" d="M74.428 93.828c-.299 1.015-1.098 1.257-1.74 1.755.05-.777.05-.777 1.74-1.755z"/><path fill="#E39F9F" d="M98.187 116.334c-.302.589-.531 1.136-1.106 1.404-.325-.996-.148-1.232 1.106-1.404z"/><path fill="#D59F9D" d="M97.939 99.211c.305.191.643.217.989.199v1.705c-.514-.763-1.067-1.158-.989-1.904z"/><path fill="#CA9F9C" d="M70.923 123.436c-.729-1.026-.696-1.178.377-1.771.311.117.55.398.457.664-.127.365-.475.115-.754.104-.513-.021-.044.273-.086.416.069.046.093.091.069.136s-.046.067-.069.067l.006.384z"/><path fill="#E39F9F" d="M64.562 97.222a.655.655 0 0 0-.396.399c-.027.238-.229.304-.397.402-.191.248-.3.574-.706.729-.152-.585-.178-1.117.522-1.201.372-.045.463-.837.972-.324l.005-.005z"/><path fill="#DF9F9F" d="M118 118.281c-.313-.391-1.03-.174-1.193-.792.148-.431.418-.519.799-.277.404.255.786.519.394 1.069z"/><path fill="#E39F9F" d="M64.557 97.228c.547-.493 1.094-.986 1.675-1.512.042.866-.794 1.58-1.67 1.506l-.005.006z"/><path fill="#DB9F9E" d="m86.406 102.935-2.268.17c.697-.721 1.467-.568 2.268-.17z"/><path fill="#C19F9A" d="M90.39 88.896c.785-.256 1.118.286 1.682.956-.601-.13-1.044.188-1.289-.371l-.393-.585z"/><path fill="#CA9F9C" d="M86.802 85.108c-.88.286-1.261-.682-1.983-.791.397-.185.795-.377 1.2-.015.134.232.427.229.598.407l.392.198-.207.201z"/><path fill="#DB9F9E" d="m89.544 101.564.429 1.867-.261.06c-.239-.608-.626-1.182-.168-1.927z"/><path fill="#C39E9A" d="M102.299 97.631c.823.192 1.532.568 2.237 1.428l-2.436-1.233c.066-.065.132-.131.199-.195z"/><path fill="#C7ABA8" d="M82.831 131.955c-.516-.141-.319-.843-.799-1.012l.008-.136c.507.153.973.503 1.563.231.12-.055.079.183.034.297-.128.39-.488.478-.806.62z"/><path fill="#CA9F9C" d="m87.6 107.162-.787-2.591.198-.198c.607.288.168 1.021.591 1.389l.2.403c-.2.15.017.441-.197.588l-.005.409z"/><path fill="#DD9F9E" d="M105.08 132.984c-.802.386-1.566-.096-2.353-.195h2.755c.011.364-.178.315-.402.195z"/><path fill="#DA9F9E" d="M77.471 116.293c.009.26.146.393.404.404-.279.167-.555.342-.839.5-.148.083-.356.133-.438-.035-.055-.113.016-.312.078-.45.058-.128.195-.411.317-.239.472.667.229-.387.478-.18z"/><path fill="#E19F9F" d="M108.392 123.741c-.121.306-.229.639-.566.762-.195.071-.323-.117-.294-.278.061-.323.184-.641.553-.738.187-.049.313.036.307.254z"/><path fill="#E7E0DF" d="M82.831 131.955a1.36 1.36 0 0 1 .807-.619c.223.057.474.049.632.262-.423.332-.962.369-1.438.564l-.001-.207z"/><path fill="#DE9F9E" d="M76.563 109.483c-.403-.808.329-1.095.536-1.572.05.57-.191 1.036-.536 1.572z"/><path fill="#E59F9F" d="M87.602 105.762c-.535-.319-.219-1.001-.591-1.389.015-.248-.093-.62.395-.394.344.198.37.475.197.8-.351.327.136.655-.001.983z"/><path fill="#DB9F9E" d="M111.247 117.885c.559.399-.386.795-.004 1.195-.213.08-.527.18-.509-.145.024-.381-.054-.899.513-1.05z"/><path fill="#C59E9A" d="M85.825 115.507c-.262.566-.641 1.023-1.229 1.296.327-.445.47-1.025 1.013-1.304l.216.008z"/><path fill="#CD9E9C" d="m72.499 126.422.007.401c-.288.109-.322.592-.744.505a1.437 1.437 0 0 1-.675-.465c-.05-.15.01-.266.115-.367.345-.392.737 0 1.103-.067l.194-.007z"/><path fill="#D6A09E" d="m106.681 132.591.193.392c-.044.145-.171.247-.196.4-.11.204-.237.392-.478.475-.208-.198.241-.515-.122-.679-.122-.228.094-.287.199-.401.09-.16.239-.191.404-.187z"/><path fill="#D99E9E" d="M72.305 126.429c-.279.347-.719-.158-.998.188-.132-.059-.256-.127-.314-.271-.055-.196-.04-.376.123-.521l-.004.003 1.193.601z"/><path fill="#D49F9D" d="M77.274 115.302c-.031-.474-.053-.944.551-1.115.099.21.115.48-.159.721l-.392.394zM70.517 119.08c.16-.009.31-.037.395-.197l1.028.082c-.453.358-.922.451-1.423.115z"/><path fill="#E6E1E1" d="M105.052 133.974c.163.015.338.027.279.262-.052.211-.196.321-.422.3-.175-.016-.34-.103-.306-.281.041-.21.239-.281.449-.281z"/><path fill="#EBE8E6" d="M106.184 84.982c.149.101.424.079.415.332-.009.237-.25.28-.426.307-.28.043-.138-.217-.187-.334-.068-.167-.049-.32.198-.305z"/><path fill="#DD9F9E" d="M81.773 91.404c-.033.242-.203.261-.353.216-.166-.05-.411-.082-.409-.31.002-.184.201-.231.361-.224a.42.42 0 0 1 .401.318z"/><path fill="#D59F9C" d="m72.497 92.448-.19-.192c.442-.245.88-.505 1.458-.433l-1.268.625z"/><path fill="#D99F9E" d="m76.682 120.868-.203-.204c-.059-.044-.078-.088-.058-.131.02-.043.039-.064.06-.064.338.038.79-.487.996.203-.203.317-.452.45-.795.196z"/><path fill="#E5E0DF" d="M89.003 137.744c-.127.035-.252.076-.38.104-.252.055-.466-.025-.547-.271-.025-.08.084-.251.177-.314.247-.17.329.103.465.216.101.083.186.184.276.276l.009-.011z"/><path fill="#DBCECD" d="M97.961 133.791c.453.063.948-.184 1.361.182-.467.036-.996.545-1.361-.182z"/><path fill="#D09F9C" d="m76.48 120.469-.002.195c-.095.081-.224.145-.274.248-.075.153-.035.441-.326.293-.285-.145-.189-.351 0-.533.137-.131.266-.27.398-.405l.204.202z"/><path fill="#CE9F9D" d="M70.917 123.051v-.203c.429.111.872.185 1.259.5-.53.248-.861-.169-1.259-.297z"/><path fill="#E39F9F" d="m106.277 132.777-.199.401c-.325-.104-.763.367-.998-.194.163-.006.313-.037.402-.196l.795-.011z"/><path fill="#C19F9A" d="M76.682 120.868c.287.024.546-.068.795-.196-.026.177.397.123.2.389l-.994.198-.001-.391z"/><path fill="#C69E9B" d="M119.585 116.895c.288.148.521.354.696.691-.43.229-.604-.221-.893-.304l.197-.387z"/><path fill="#E89F9F" d="M82.641 119.073c-.589-.074-.692-.361-.328-1.024l.322 1.03.006-.006z"/><path fill="#CA9F9C" d="M51.052 110.334c-.344-.183-.598-.458-.803-.783.765-.248.762.29.803.783z"/><path fill="#E3DCDB" d="m42.898 106.559.03.397c-.205.099-.394.649-.627.024.103-.276.303-.416.597-.421z"/><path fill="#C19F9A" d="M78.664 120.27c.076.471-.239.646-.597.792l.395-.986.202.194z"/><path fill="#CA9E9B" d="M107.865 113.323c.23-.14.188-.389.22-.638.424.23.588.471.183.826-.164.001-.313-.032-.403-.188z"/><path fill="#D99E9E" d="M76.451 94.381c.178-.025.219.089.194.223-.041.224-.241.291-.421.325a.185.185 0 0 1-.216-.23c.055-.211.269-.246.443-.318z"/><path fill="#D59F9D" d="m76.67 111.721.206.203-.609.725a19.363 19.363 0 0 1-.176-.127l.579-.801z"/><path fill="#DA9F9E" d="M106.527 124.919c.015.288-.078.503-.35.593-.041.014-.19-.125-.181-.166.066-.257.215-.438.531-.427z"/><path fill="#CE9F9D" d="M74.093 123.839c.287-.306.639-.182 1.015-.053l-.816.254a18.763 18.763 0 0 1-.199-.201z"/><path fill="#CC9F9B" d="m99.523 92.855-.604-.202c-.12-.106-.45-.117-.181-.399.313.033.584.147.784.4.061.045.081.09.061.134-.02.045-.039.067-.06.067z"/><path fill="#D19F9C" d="M74.893 96.83c-.253.366-.495.744-1 .791l.004.004c.187-.338.45-.602.781-.797l.215.002z"/><path fill="#D59F9C" d="M70.466 101.606c-.042.182-.14.312-.328.301-.054-.003-.157-.151-.141-.19.063-.14.141-.325.261-.371.126-.048.192.129.208.26z"/><path fill="#CC9F9B" d="m75.395 119.83 1.087-.522c-.162.393-.437.545-1.087.522z"/><path fill="#E59F9F" d="M87.603 104.779c.033-.291-.06-.551-.197-.8.704.001.289.511.359.799.002.008-.049.042-.075.042-.03-.001-.058-.026-.087-.041z"/><path fill="#D29F9C" d="M84.627 88.287c-.001.064-.001.128.001.191-.31-.007-.651.042-.723-.42.331-.195.436.322.722.229z"/><path fill="#D99E9E" d="M100.607 104.611c-.14-.218-.127-.432-.024-.64.008-.016.195.011.221.059.129.245.005.424-.197.581z"/><path fill="#D29F9C" d="M102.694 107.951c-.418-.207-.467-.407.012-.598.247.205.257.405-.012.598z"/><path fill="#E9DEDE" d="m80.271 130.642.174-.427c.265.066.529.133.794.198.062.04.083.081.065.124-.019.044-.038.065-.058.065l-.975.04z"/><path fill="#C99F9B" d="M115.416 116.097c-.299-.027-.463-.174-.445-.503.296-.058.476.113.647.3l-.202.203z"/><path fill="#D19F9C" d="M63.769 98.023a.648.648 0 0 1 .396-.402c.143.021.35.008.223.246-.139.262-.363.302-.619.156z"/><path fill="#DD9F9E" d="m70.918 124.839-.003-.195c.29.037.678-.143.806.376-.34.168-.519-.285-.803-.181z"/><path fill="#D29F9C" d="M93.563 91.066c.139-.233.372-.192.588-.204-.029.154-.021.417-.097.443-.191.068-.374-.057-.491-.239z"/><path fill="#CD9E9C" d="m92.965 90.859.201.202.001.202c-.147-.073-.298-.138-.439-.221-.103-.06-.29-.144-.191-.265.128-.156.279.061.428.082z"/><path fill="#E9E5E4" d="M108.789 87.992c.01.2-.073.246-.178.219-.152-.041-.167-.183-.153-.309.008-.081.063-.158.098-.236l.233.326z"/><path fill="#D99F9E" d="m89.396 125.035.195.204c-.179.186-.441.456-.618.176-.157-.247.385-.119.423-.38z"/><path fill="#E89F9F" d="M106.678 133.383c-.307-.316-.061-.361.196-.4l.204.002c-.011.255-.14.393-.4.398z"/><path fill="#ECDFDF" d="m109.257 97.233-.421-.419c.101-.141.241-.239.368-.076.103.132.231.312.053.495z"/><path fill="#C99F9B" d="M55.767 102.676c-.067.063-.143.165-.243.215-.046.022-.195-.045-.206-.092-.038-.161.112-.201.224-.252.086-.04.173-.044.225.129z"/><path fill="#CE9F9D" d="M87.365 100.847v.81c-.28-.313-.084-.585 0-.81z"/><path fill="#D59F9D" d="M72.233 114.314c.022-.369.122-.552.358-.729.084.341-.051.517-.358.729z"/><path fill="#CA9F9C" d="M100.037 128.965c-.064.042-.156.132-.265.163-.102.03-.204-.063-.146-.161a.583.583 0 0 1 .283-.211c.115-.044.167.034.128.209z"/><path fill="#D89F9E" d="M87.387 102.34c.152.084.218.217.187.384-.019.1-.109.172-.189.09a.687.687 0 0 1-.152-.319c-.023-.094.029-.177.154-.155z"/><path fill="#DEC3C0" d="M81.247 130.603c0-.063-.003-.126-.008-.189.254.159.607.113.806.388-.276-.026-.586.081-.798-.199z"/><path fill="#CE9F9D" d="M84.824 115.511c-.118.313-.329.339-.596.191.163-.178.309-.401.596-.191z"/><path fill="#E2DBDA" d="M96.345 82.921a3.401 3.401 0 0 0-.008-.176l.748.271c-.349.14-.558.129-.74-.095z"/><path fill="#CE9F9C" d="m116.211 107.554.393.586-.194.209c-.291-.209-.175-.52-.199-.795z"/><path fill="#DE9F9F" d="M76.674 105.37c.139.025.36 0 .226.244-.061.108-.166.323-.337.163-.048-.045.073-.271.117-.412l-.006.005z"/><path fill="#DB9F9E" d="M87.604 106.753c.01-.215-.039-.449.197-.588-.261.13.622.644-.197.588z"/><path fill="#EDE7E7" d="M119.144 68.418c-.112-.943-.472-1.791-.73-2.666-.058-.193-.166-.507.102-.597.233-.079.403.159.505.377.439.947.505 1.911.123 2.886z"/><path fill="#D99A94" d="M112.468 65.374c.229.501.161.887-.32 1.165-.273-.573.52-.676.32-1.165z"/><path fill="#DDACA8" d="M105.453 67.513c-.023.192-.122.299-.323.267-.156-.024-.209-.143-.207-.284.003-.183.1-.349.272-.343.174.006.257.178.258.36z"/><path fill="#DA9B95" d="M107.219 77.405c-.292.005-.504-.057-.62-.347.345-.154.528-.036.62.347z"/><path fill="#EEEAE8" d="M110.668 77.967c-.206-.041-.449.038-.598-.186.378-.065.755-.156 1.135-.01-.116.237-.344.169-.537.196z"/><path fill="#EFECEC" d="M110.652 70.638c-.03.146-.034.299-.21.256-.063-.015-.136-.125-.142-.198-.011-.119.017-.271.193-.231.068.016.113.12.159.173z"/><path fill="#E1BDBA" d="M111.974 67.895c-.246-.248-.095-.461-.147-.874.268.405.208.614.147.874z"/><path fill="#F1F0F0" d="M79.465 57.093c.062 1.082-.298 2.051-.801 2.98-.22.265-.564.268-.788.445.139.102.556-.5.603.152-.207.543-.263 1.117-.379 1.68-.292 1.413-1.534 2.173-2.546 2.964-.671.524-1.198-.453-1.583-.964-.573-.761-.337-2.433.322-3.084.412-.031.272.253.272.25-.185-.812-.096-1.825.118-2.833.11-.502.282-.977.605-1.386.284-.415.721-.62 1.149-.838.43-.266.874-.479 1.402-.357.991.431 1.014.482.543 1.22-.569.362-1.122.751-1.648 1.175.525-.401 1.055-.799 1.628-1.132.337-.22.564-.886 1.103-.272z"/><path fill="#EFEAE8" d="M85.635 53.508c.969 1.698 2.115 3.319 2.35 5.338.021.173.083.398-.221.555-.536-.643-.448-1.518-.782-2.237-.432-.927-.87-1.839-1.483-2.654-.206-.274-.307-.491-.087-.78-.049-.198.02-.278.223-.222z"/><path fill="#F1EDED" d="M81.845 62.263c-.458.599-.942 1.168-1.775 1.55l.995-3.146c.361-.485.748-.449.986.105.229.534-.008 1.012-.206 1.491z"/><path fill="#EFEAE8" d="m85.635 53.508-.224.221c-1.114-.705-2.205-1.438-3.286-2.581 1.979-.05 2.521 1.469 3.51 2.36z"/><path fill="#EFECEB" d="M76.668 55.304c.604-.422 1.186-.847 1.973-.324.564.375 1.162.679 1.01 1.512-.245.217-.456.07-.67-.059-.453-.454-.974-.745-1.643-.68-.28-.065-.66.017-.67-.449z"/><path fill="#EEE6E3" d="M81.845 62.263c-.035-.562.489-1.152-.174-1.692-.325-.266-.426-.058-.606.096-.008-.659.617-1.049.649-1.734.798.954.827 2.236.131 3.33z"/><path fill="#EBCFC4" d="M74.684 58.682c.088 1.056.057 2.11-.02 3.178-.308-.089-.088-.502-.371-.594-.717-.99.006-1.761.391-2.584z"/><path fill="#EFECEB" d="M75.68 56.699c.046-.425.34-.699.602-.993.356-.233.749-.041 1.12-.098.543.005 1.087.012 1.309.657-.307.324-.559-.081-.842-.064-.376.048-.786-.141-1.124.165-.348.136-.642.44-1.065.333z"/><path fill="#EBD2C8" d="m77.872 56.105.791.194c.136-.123.272-.113.41-.001l.577.193c-.002.219.057.457-.186.602-.488-.263-.678.237-1.004.392-.075-.057-.188-.076-.2-.197.597-.616.062-.787-.39-.991-.066-.043-.088-.086-.066-.128.023-.042.046-.064.068-.064z"/><path fill="#ECD7CE" d="M83.952 63.193c.104-1.209.862-1.952.906-3.186.446 1.397-.214 2.172-.906 3.186z"/><path fill="#EACCBF" d="M75.68 56.699c.334-.125.611-.396.996-.394.122.225-.09.281-.197.39l-1.189.6a.592.592 0 0 1 .39-.596z"/><path fill="#EAC9BC" d="M78.479 60.67c-.392-.411-.668.248-1.17.055.446-.35.878-.54 1.355-.652-.002.219.035.448-.185.597z"/><path fill="#EEE5E1" d="M77.689 49.423c.415-.047.858-.204 1.288.181-.511.29-.893.038-1.288-.181z"/><path fill="#ECD6CC" d="M77.66 49.953c.063.05.202.104.238.197.076.199-.122.188-.221.176-.106-.013-.265-.072-.295-.152-.064-.167.101-.183.278-.221z"/><path fill="#EBD0C5" d="m77.479 55.689-1.197.017.387-.402c.21.297.529.166.806.204.063.039.085.079.065.12-.02.041-.041.061-.061.061z"/><path fill="#EDE2DE" d="M87.002 65.638c.049-.353.167-.665.609-.999-.123.522-.247.831-.604 1.003l-.005-.004z"/><path fill="#EBD1C5" d="M87.008 65.643c-.008.319-.177.529-.532.709.017-.409.265-.567.526-.714l.006.005z"/><path fill="#EDD7CD" d="M81.122 54.233c.178.161.297.295.238.501-.005.015-.12.026-.149.001-.122-.108-.182-.245-.089-.502z"/><path fill="#F0EDED" d="M45.045 71.154c-.469 1.547-.382 3.13-.388 4.705-.008 1.807.181 3.548 1.657 4.88-3.466-1.704-4.017-5.695-1.269-9.585z"/><path fill="#F0EFEF" d="M50.605 73.708c-.315 1.672-.099 3.346-.173 5.011-.014.314-.191.709-.563.719-.478.013-.622-.422-.73-.81-.424-1.517.144-3.618 1.466-4.92z"/><path fill="#EBE6E6" d="M50.229 67.932c1.227-.136 2.108.323 2.445 1.134.065.157.156.321-.034.416-.078.04-.244-.032-.337-.098-.319-.228-.615-.488-.936-.714-.313-.224-.645-.422-1.138-.738z"/><path fill="#EAE5E5" d="M46.512 75.579c.126-1.096.281-2.183 1.07-3.07-.157 1.159-.771 2.248-.508 3.457a.278.278 0 0 1-.251.038c-.164-.098-.221-.274-.311-.425z"/><path fill="#E5D5D5" d="M49.106 70.026c-.148.852-.892 1.117-1.508 1.487-.248.149-.299-.119-.343-.304.069-.573.731-.575.959-.997.284-.129.551-.337.892-.186z"/><path fill="#E8DFE0" d="M49.106 70.026c-.276.131-.618.114-.841.368-.185.041-.34.452-.561.045.72-.714 1.555-.958 2.53-.614.051.174.003.259-.191.21l-.937-.009z"/><path fill="#D4A7A8" d="M46.893 75.988c.061-.012.12-.02.182-.022.35.278.156.665.201 1.004.127.22-.06.285-.188.38-.407-.158-.452-.415-.206-.751-.158-.206-.18-.411.011-.611z"/><path fill="#E3D1D0" d="M47.705 70.438c.199.145.369-.083.561-.044-.137.52-.735.466-1.01.814-.331-.538.171-.588.449-.77z"/><path fill="#DBBCBD" d="M48.232 74.861v1.662a2.425 2.425 0 0 1 0-1.662z"/><path fill="#EDEAE9" d="m46.893 75.988-.011.61c-.596-.168-.363-.638-.371-1.02l.382.41z"/><path fill="#DAB9BA" d="m50.044 70.035.192-.21c.229.08.42.201.391.479-.008.074-.104.202-.152.199-.281-.016-.281-.315-.431-.468z"/><path fill="#EEEAEA" d="M53.685 71.354c-.299-.119-.388-.308-.38-.54.002-.037.183-.116.202-.097.151.153.307.317.178.637z"/><path fill="#D6AFB0" d="M46.733 78.956c-.36-.345-.457-.552-.417-.855.306.158.315.396.417.855z"/><path fill="#DDC1C2" d="m47.088 77.35.188-.38c.28.263.297.527.003.792-.056-.045-.076-.093-.063-.143.015-.052.029-.078.047-.078-.06-.063-.117-.127-.175-.191z"/><path fill="#D7B2B2" d="m47.262 77.542.017.221c.047.121.136.245.128.363-.007.126-.132.102-.198.022-.179-.215-.16-.421.053-.606z"/><path fill="#F1F0F0" d="M41.729 117.485c.115 4.378 3.145 6.85 6.119 9.357-.052.491-.36.223-.587.198-1.635-.286-3.101-.858-3.981-2.395-.083-.145-.133-.266-.331-.304-2.002-.382-2.95-1.61-3.062-3.672-.044-.8-.372-1.597-.642-2.369-.279-.8-.443-1.58-.154-2.409.101-.288.168-.622.559-.555.344.059.46.381.448.683a4.825 4.825 0 0 1-.18 1.063c-.127.47.007.755.606.895-.228-.506-.232-.979-.188-1.454.29-.136.362.147.521.266.232.308.536.524.872.696z"/><path fill="#F0EFEF" d="m70.512 128.613-.404.204c-.39-.371-.759-.359-1.221-.063-.78.498-1.694.702-2.55 1.037-.861.337-1.588-.158-2.514-.249 1.206-.539 2.359-.837 3.518-1.126.341-.085.724-.083.97-.401.532-.432 1.106-.426 1.707-.17.175.092.304.235.426.387.081.116.157.234.068.381zM54.837 126.416c.317-.396.589-.031.858.07.579.218 1.145.472 1.715.711.022 1.582-.147 1.69-1.613 1.029-.047-.04-.039-.135-.046-.139-.116-.056-.064.112-.145.115-.149-.058-.298-.118-.448-.174-1.08-.398-1.089-.426-.317-1.226.136-.139.168-.259-.004-.386z"/><path fill="#E5A0A0" d="M70.111 128.047c-.597-.225-1.2-.047-1.801-.032l-.767-.2c-.476-.432-.171-.581.249-.688.347-.053.695-.07 1.043-.006.608-.187 1.224-.361 1.716-.801a.506.506 0 0 1 .559.104l.196.193-.191.206c-.009.117-.063.22-.101.327-.036.296.229.538.151.841a.504.504 0 0 1-.213.18.904.904 0 0 1-.841-.124z"/><path fill="#E7E2E1" d="M41.729 117.485c-.61.276-.737-.278-1.009-.587-.098-.258-.017-.563-.203-.798-.205-.334-.204-.666.005-.998a.65.65 0 0 1 .397.401c.121.175.243.348.391.502.196.204.132-.066.194-.103.331-.167.092-.607.381-.794-.037.794.191 1.605-.156 2.377z"/><path fill="#C39E9A" d="M67.739 127.216c-.315.118-.363.323-.195.599-.479.037-.68-.115-.401-.592-.433-.791-1.511-1.152-1.573-2.5.785.928 1.136 1.964 2.169 2.301.065.042.087.085.065.128s-.043.064-.065.064z"/><path fill="#E9E1E0" d="m47.29 100.428.212.196c-.998.579-2.114.832-3.203 1.16.828-.824 1.98-.933 2.991-1.356z"/><path fill="#BE9E9A" d="M79.062 83.318c.458.481 1.309-.099 1.706.586h-1.905c.007-.216-.033-.447.199-.586z"/><path fill="#CFBEBA" d="m37.159 107.96-.022.397c-.258.124-.116.426-.278.617-.541-.539-.229-.808.3-1.014z"/><path fill="#DACDCA" d="M62.75 128.017h2.029a2.357 2.357 0 0 1-2.029 0z"/><path fill="#DBCECD" d="M38.746 107.166a43.786 43.786 0 0 0-.216-.214c-.015-.333.044-.631.387-.789l.225.177c-.222.232.111.729-.396.826z"/><path fill="#CDB8B5" d="M37.742 109.746c.026-.214.092-.472.294-.134.162.27.19.618.278.933l-.358-.002c-.323-.201.032-.59-.224-.81l.01.013z"/><path fill="#CEB9B6" d="M40.518 116.101c.417.177.406.463.203.798a67.55 67.55 0 0 0-.383-.374c.059-.142.12-.284.18-.424z"/><path fill="#D99E9E" d="M82.439 83.922a13.874 13.874 0 0 1-.002-.204l1.01.293c-.495.107-.767.196-1.008-.089z"/><path fill="#EBE8E6" d="M37.732 109.733c.315.203.172.533.224.81-.414-.056-.414-.056-.224-.81z"/><path fill="#E4D0CE" d="M47.262 127.041c.203-.044.448.036.587-.198a.567.567 0 0 1 .417.389c-.338-.044-.711.094-1.004-.191z"/><path fill="#CEBAB8" d="M55.606 128.203c.059-.23-.093-.517.223-.725.297.27-.104.511-.032.748a1.107 1.107 0 0 1-.191-.023z"/><path fill="#E7E2E1" d="M40.347 114.113c.295.288.14.656.176.989-.294-.287-.169-.65-.176-.989z"/><path fill="#DF9F9E" d="M86.616 84.708c-.26-.046-.569-.02-.598-.407.281.017.488.14.598.407z"/><path fill="#D99993" d="M130.924 92.876c.116-.203.235-.666.438-.468.328.321.195.774-.239 1.048-.21-.144-.017-.427-.199-.58z"/><path fill="#E0B7B3" d="M136.618 93.229c-.154-.245-.451-.483-.124-.857.326.254.094.581.124.857z"/><path fill="#D8948D" d="M127.612 102.281c-.228.254-.453.256-.686.071-.021-.018-.012-.127.017-.147.242-.174.458-.125.669.076z"/><path fill="#E7D4D2" d="m130.167 102.784-.436.223-.396-.022c.229-.271.47-.493.832-.201z"/><path fill="#E4C7C3" d="M130.924 92.876c.233.136.176.372.199.58-.056.062-.052.412-.192.064-.076-.185-.009-.427-.007-.644z"/><path fill="#C2A6A2" d="m28.575 74.566.053-.565c.051-.01.103-.016.154-.019l.046.584c-.03.087-.053.246-.092.25-.177.018-.112-.159-.161-.25z"/><path fill="#D0BCB8" d="m145.58 85.495-.178-.403c-.257-.278.113-.692-.207-.957-.295-.381-.129-.812-.194-1.283.854.796.565 1.75.579 2.643z"/><path fill="#C3A8A4" d="M142.856 77.141c.477.436.749.963.625 1.687l-.851-1.469c-.046-.2.026-.275.226-.218z"/><path fill="#CAB4B0" d="m142.856 77.141-.226.218-.52-.414c.291-.026.638-.277.746.196z"/><path fill="#BDA19B" d="M145.195 84.136c.062-.056.082-.431.194-.073.099.314.016.685.014 1.03l-.083.007-.082-.002c-.013-.321-.028-.641-.043-.962z"/><path fill="#CCB7B3" d="M145.742 92.942c-.222-.28-.088-.494-.129-.818.285.324.196.538.129.818z"/><path fill="#E4DAD8" d="m74.068 41.581-.58-.36c.251 0 .506-.021.754.009.132.016.358.07.253.272-.042.079-.278.055-.427.079z"/><path fill="#C3A9A5" d="M123.147 55.319c-.106-.072-.237-.125-.313-.221-.155-.196-.423-.463-.13-.662.288-.196.42.183.581.361.061.068.078.176.115.266.044.213-.046.291-.253.256z"/><path fill="#CEB7B4" d="m123.147 55.319.253-.256c.317.172.261.455.213.751-.337.006-.285-.358-.466-.495z"/><path fill="#C8AEAB" d="m100.302 50.133.21.193c-.25.162-.452.414-.787.411.007-.378.321-.463.577-.604z"/><path fill="#BD9E9A" d="M104.296 101.785c.196-.606-.544-1.322.209-1.924.351.358-.011.908.401 1.198.462-.217.312-.678.438-1.031.241.112.169.354.122.466-.304.716.064 1.13.636 1.407.963.468 1.061 1.507 1.57 2.272.074.032.15.144.216.09.093-.076.05-.195-.014-.291l-.21-.786c-.075-.209.02-.246.199-.196.139.259.335.46.599.594.25.53.11 1.061.003 1.59-.015.246-.094.507-.354.52-.386.019-.567-.31-.677-.617-.301-.844-.641-1.671-1.388-2.214-.513-.372-1.024-.726-1.358-1.278-.148.033-.157.338-.392.2z"/><path fill="#BE9E9A" d="M105.881 104.772c.643.431.541 1.187.775 1.795.039.103-.011.302-.17.286-.264-.026-.298-.299-.41-.483-.914-.489-.984-1.065-.195-1.598z"/><path fill="#CE9F9D" d="M105.881 104.772c-.813.64-.227 1.108.195 1.598-.395.449.305.735.163 1.14-1.01-.967-1.105-1.342-.888-3.536.263.223-.024.799.53.798z"/><path fill="#BF9E9A" d="M114.219 113.905c.407-.487.768-1.126 1.435-.237.139.185.555.306.342.545-.193.217-.729.229-.875-.056-.495-.964-.454.192-.696.148-.116-.109-.321-.172-.206-.4z"/><path fill="#C39E9A" d="m108.465 105.174-.003-1.59c.788.513 1.192 1.236 1.197 2.18.059.239.295.537-.198.592-.067-.715-.357-1.354-.633-2.042-.308.254-.029.682-.363.86z"/><path fill="#C69F9B" d="M113.629 113.113c-.777-.626-.327-1.436-.364-2.189.206.485.013 1.153.818 1.284.182.029.234.444-.149.438-.422-.008-.263.278-.309.469l.004-.002z"/><path fill="#C69E9B" d="M106.197 100.633c-.459-.664-.181-1.378-.194-2.066.313.662.637 1.323.194 2.066z"/><path fill="#CE9F9D" d="m114.219 113.905.205.4c-.672.632-.784-.033-.913-.439-.068-.217.071-.5.118-.753l-.004.002c.293.193.176.693.594.79z"/><path fill="#D69E9E" d="M104.296 101.785c.18.028.126-.397.392-.201-.077.789.097 1.561.157 2.346-.424-.657-.302-1.449-.549-2.145z"/><path fill="#CE9F9D" d="M109.131 103.425c-.85-.234-1.025-.727-1.29-1.136.502.187.796.568 1.29 1.136z"/><path fill="#D29F9D" d="M109.461 106.355c.232-.142.184-.378.198-.592.299.663.313 1.326-.004 1.988v.001c.064-.482-.092-.936-.194-1.397z"/><path fill="#D89F9E" d="M113.432 108.746c.297-.068.443.467.791.197.069.044.093.088.07.133-.023.045-.046.067-.069.067-.661.687-.764-.01-.99-.399.067-.095.132-.094.198.002z"/><path fill="#CD9E9C" d="M113.561 103.889c.605.376.693.694.62 1.256l-.62-1.256z"/><path fill="#C59E9A" d="M108.131 107.212c.112.175.186.262.227.361.068.163.06.317-.159.345-.13.017-.278-.026-.261-.187.015-.144.101-.282.193-.519z"/><path fill="#C79E9B" d="M116.211 107.554c-.355-.199-.521-.458-.284-.865.4.204.248.564.284.865z"/><path fill="#C49E9B" d="M112.624 111.295c-.019.107.034.288-.15.256-.083-.015-.169-.164-.201-.27-.036-.12.002-.264.169-.26.163.004.169.15.182.274z"/><path fill="#D99E9E" d="M107.874 103.973c.256.16.164.444.331.719-.41-.045-.414-.336-.533-.518l.202-.201z"/><path fill="#D59F9D" d="M99.523 92.855v-.201c.244.145.494.283.541.66-.306-.039-.424-.248-.541-.459z"/><path fill="#CE9F9D" d="m107.863 102.99-.199.196c-.196-.165-.333-.358-.322-.648.317.003.401.248.521.452z"/><path fill="#CA9F9C" d="M114.22 111.098c-.073-.11-.15-.176-.157-.248-.012-.132.048-.261.209-.213.057.017.112.146.11.223-.003.068-.086.132-.162.238z"/><path fill="#DA9F9E" d="M109.655 107.752c-.221.23-.453.429-.84.327.224-.321.533-.322.84-.327z"/><path fill="#D99E9E" d="M106.931 108.892c-.303-.129-.405-.316-.366-.62.294.116.364.322.366.62z"/><path fill="#CE9F9D" d="m113.432 108.746-.198-.002-.27-.354c.074-.042.169-.138.219-.117.203.081.235.278.249.473z"/><path fill="#C59E9A" d="m114.224 109.144-.001-.2c.116-.104.231-.208.354-.304.007-.005.11.072.105.101-.045.249-.191.399-.458.403z"/><path fill="#D59F9D" d="M103.725 96.674c.148-.118.214-.185.225-.177.098.073.215.144.27.244.051.095-.005.197-.145.133-.117-.055-.224-.128-.35-.2z"/><path fill="#C69F9B" d="M115.809 115.545c-.036-.055-.107-.119-.125-.196-.025-.106.056-.186.155-.149.065.023.126.118.146.192.023.093-.023.174-.176.153z"/><path fill="#C69E9B" d="M55.622 125.038c.022-.166.056-.376.277-.208.698.528 1.541.661 2.331.964-.975.132-1.783-.351-2.611-.76l.003.004z"/><path fill="#BC9E99" d="m71.11 126.424-.591.009c-.128-.139-.214-.318-.395-.406l-.608-.594c.069-.084.14-.084.21-.001l1.389.395-.005.597z"/><path fill="#C29E9A" d="M69.795 124.099c-.295-.245-.333-.262-.341-.287-.118-.385-.453-.729-.227-1.173.015-.03.19-.023.25.021.47.351.149.805.318 1.439z"/><path fill="#CC9F9B" d="M70.125 126.026c.261.01.39.147.395.405-.373.582-1.02.608-1.592.785-.068-.044-.091-.088-.067-.131.023-.042.047-.063.069-.063.302-.447 1.248-.122 1.195-.996z"/><path fill="#D99E9E" d="M49.862 121.066c.116.245.411.128.625.324l-1.68.227c.101-.538.685-.199.851-.552.069-.069.137-.072.204.001z"/><path fill="#C19E9A" d="M50.803 120.64c-.531.009-.888.142-1.178-.174.458-.15.458-.15 1.178.174z"/><path fill="#BE9E9A" d="M68.93 127.022c.001.064 0 .13-.002.194l-1.188-.001-.001-.192c.396-.586.794-.016 1.191-.001z"/><path fill="#C69E9B" d="M56.705 119.398c-.124-.34-.019-.519.199-.628.05-.024.22.057.219.085-.009.256-.061.499-.418.543z"/><path fill="#C79E9B" d="M45.179 120.174c-.01-.002.061-.543.421-.271.066.05.145.206.121.234-.229.281-.533.032-.542.037z"/><path fill="#D59F9D" d="M52.641 121.457c.384-.646.681-.04 1.226.06-.532.195-.924-.174-1.225.143-.069-.044-.093-.089-.07-.134.023-.047.045-.069.069-.069z"/><path fill="#C19E9A" d="m52.641 121.457.001.202h-.936c.319-.568.636-.317.935-.202z"/><path fill="#CE9F9D" d="m49.862 121.066-.204-.001c-.098-.009-.222.019-.288-.031-.246-.186.004-.161.09-.164.325-.01.65-.004 1.015-.004-.172.316-.423.145-.613.2z"/><path fill="#C19F9A" d="M44.496 121.261c-.442.055-.666-.167-.771-.757.383.24.616.45.771.757z"/><path fill="#CC9F9B" d="M44.504 120.353c-.354-.047-.563-.099-.685-.388.342-.156.507.005.685.388z"/><path fill="#D59F9C" d="M64.354 120.475c.412.293.489.532.596.984-.382-.282-.471-.53-.596-.984z"/><path fill="#C19E9A" d="M45.923 121.462c-.135-.095-.257-.135-.278-.205-.074-.243.172-.229.293-.305.082-.052.228-.025.207.085-.027.142-.136.269-.222.425z"/><path fill="#BF9E9A" d="M44.495 121.262c.248.008.519-.034.656.244.014.028-.098.159-.17.183-.384.123-.336-.268-.486-.427z"/><path fill="#CE9F9D" d="m69.727 125.432-.21.001c-.26-.129-.452-.315-.615-.757.443.229.659.463.825.756z"/><path fill="#C99F9B" d="M55.619 125.034c-.308.333-.409.03-.624-.184.336-.148.434.166.627.188l-.003-.004z"/><path fill="#CA9F9C" d="M43.146 118.791c.184 0 .268.093.294.221.023.116-.05.18-.165.132-.085-.035-.184-.084-.225-.156-.022-.039.065-.139.096-.197z"/><path fill="#D99E9E" d="M42.8 117.931c.102.063.255.108.309.206.07.129-.093.146-.158.118-.112-.048-.205-.14-.306-.214l.155-.11zM71.119 128.012c-.016-.341-.65-.555-.202-.989.274.03.533.122.796.197.265-.132.528-.265.793-.396-.296.437.365.456.338.789-.327.163-.68.302-.93.597-.299.066-.605.169-.795-.198z"/><path fill="#CE9F9D" d="M79.656 122.056c-.315.218-.765.177-1.053.505.44.231.777-.008 1.158-.079-.612.817-1.785.256-2.521.86l1.623-1.482c.298-.069.666-.422.793.196z"/><path fill="#CAAFAC" d="m71.119 128.012.794.197.22.022c-.304 1.131-1.038.433-1.621.382l-.177-.205c-.096-.341.151-.281.325-.258.174.024.32.009.45-.111l.009-.027z"/><path fill="#D99E9E" d="M79.656 122.056c-.197-.334-.572.049-.792-.196l-.006-.393c.295-.21.177-.523.202-.8.835.189.794.755.596 1.389z"/><path fill="#D59F9C" d="M76.141 123.712c.146-.417.293-.563.625-.628-.064.313-.256.426-.625.628z"/><path fill="#D29F9C" d="M73.66 88.406c-.136.088-.226.169-.33.2-.035.01-.155-.11-.154-.169.002-.13.094-.243.234-.229.071.007.134.102.25.198z"/><path fill="#D59F9C" d="M74.21 87.555c-.056.03-.125.091-.203.105-.097.018-.198-.031-.149-.147.029-.069.125-.135.202-.153.107-.027.165.048.15.195z"/><path fill="#C49F9A" d="M84.753 111.028c-.058.056-.131.171-.233.212-.141.055-.266-.037-.216-.188.034-.101.158-.195.264-.242.101-.045.168.046.185.218z"/><path fill="#C2A7A3" d="M41.505 115.903c.088.218.352.409.07.724-.294-.341-.554-.681-.655-1.123l.585.399z"/><path fill="#BFA29C" d="M38.746 107.166c.298-.195.068-.644.396-.825.052.463.068.918-.396 1.396v-.571z"/><path fill="#C19F9A" d="M86.123 116.265c-.478.741-.686 1.734-1.797 1.883.677-.555.99-1.451 1.797-1.883z"/><path fill="#D19F9C" d="M83.517 118.021c-.034-.381.163-.489.353-.609.207.341-.114.4-.353.609z"/><path fill="#D29F9C" d="M105.209 117.767c.015.146-.03.246-.142.219-.065-.017-.122-.128-.148-.209-.013-.038.054-.103.084-.155l.206.145z"/><path fill="#BE9E9A" d="M73.893 97.621c-.589.724-1.227 1.408-1.734 2.376.111-2.005.325-2.277 1.738-2.372l-.004-.004z"/><path fill="#D99F9E" d="M70.122 114.311c.035-.605.06-.654.399-.797-.035.314-.142.593-.399.797z"/><path fill="#E79F9F" d="M71.713 127.22c-.325.175-.613.2-.796-.197l.198-.199c.285.002.487.131.598.396z"/><path fill="#EACABD" d="m78.261 57.289.201.197c-.813.389-1.428 1.071-2.214 1.506.476-.803 1.213-1.29 2.013-1.703z"/><path fill="#ECDBD3" d="m76.479 56.695.197-.39c.348-.37.797-.138 1.196-.2a3.073 3.073 0 0 0-.001.192c-.542-.139-.946.206-1.392.398z"/><path fill="#EAC6B7" d="M77.479 55.689a2.764 2.764 0 0 1-.005-.182c.694-.063 1.225.206 1.6.791l-.41.001c-.267-.454-.709-.565-1.185-.61z"/><path fill="#C2A7A4" d="M41.531 122.268c.564.421.821.933 1.061 1.458-.631-.213-1.01-.627-1.061-1.458z"/><path fill="#CBB7B3" d="M41.116 122.859c-.454-.356-.522-.729-.627-1.087.36.193.593.463.627 1.087z"/><path fill="#C5ACA9" d="M41.325 121.08c.422.05.598.274.561.799l-.561-.799z"/><path fill="#E7DAD9" d="M71.11 128.039c-.011.644-.641-.015-.775.369-.164-.065-.208-.205-.224-.361l.999-.008z"/></svg>