<svg xmlns="http://www.w3.org/2000/svg" xmlns:xlink="http://www.w3.org/1999/xlink" xml:space="preserve" width="171" height="171">
  <defs>
    <circle id="a" cx="85.749" cy="85.742" r="85.107"/>
  </defs>
  <use xlink:href="#a" fill="#D2C8BD" overflow="visible"/>
  <clipPath id="b">
    <use xlink:href="#a" overflow="visible"/>
  </clipPath>
  <g clip-path="url(#b)" opacity=".2">
    <g fill="#603F1D">
      <g opacity=".1">
        <path d="M-17.398-28.046h10.884v10.884h-10.884zM-6.514-17.162H4.37v10.885H-6.514zM15.255 4.607h10.884v10.884H15.255zM26.14 15.491h10.884v10.885H26.14zM4.371-6.277h10.885V4.607H4.371z"/>
      </g>
      <g opacity=".1">
        <path d="M37.024 26.376h10.885V37.26H37.024zM47.909 37.26h10.884v10.884H47.909zM69.677 59.029h10.885v10.885H69.677zM80.562 69.914h10.884v10.884H80.562zM58.793 48.145h10.884v10.884H58.793z"/>
      </g>
      <g opacity=".1">
        <path d="M91.446 80.798h10.885v10.884H91.446zM102.331 91.682h10.885v10.885h-10.885zM124.1 113.451h10.885v10.885H124.1zM134.984 124.336h10.884v10.885h-10.884z"/>
        <path d="M113.216 102.566H124.1v10.885h-10.884z"/>
      </g>
      <g opacity=".1">
        <path d="M145.868 135.221h10.885v10.885h-10.885zM156.753 146.105h10.885v10.883h-10.885zM178.522 167.873h10.884v10.885h-10.884zM189.406 178.758h10.885v10.885h-10.885zM167.638 156.988h10.885v10.885h-10.885z"/>
      </g>
    </g>
    <g fill="#603F1D">
      <g opacity=".1">
        <path d="M-17.35-6.327h10.885V4.558H-17.35zM4.419 15.442h10.884v10.885H4.419zM15.304 26.327h10.885v10.884H15.304zM-6.465 4.558H4.419v10.884H-6.465z"/>
      </g>
      <g opacity=".1">
        <path d="M26.188 37.211h10.884v10.885H26.188zM37.073 48.096h10.885V58.98H37.073zM58.842 69.865h10.884v10.884H58.842zM69.726 80.749h10.885v10.884H69.726zM47.958 58.98h10.884v10.884H47.958z"/>
      </g>
      <g opacity=".1">
        <path d="M80.611 91.633h10.884v10.885H80.611zM91.495 102.518h10.885v10.885H91.495zM113.265 124.287h10.884v10.885h-10.884zM124.148 135.172h10.885v10.885h-10.885z"/>
        <path d="M102.38 113.402h10.885v10.885H102.38z"/>
      </g>
      <g opacity=".1">
        <path d="M135.033 146.057h10.884v10.883h-10.884zM145.917 156.939h10.885v10.885h-10.885zM167.687 178.709h10.885v10.885h-10.885zM156.802 167.824h10.885v10.885h-10.885z"/>
      </g>
    </g>
    <g fill="#603F1D">
      <g opacity=".1">
        <path d="M-6.489 26.352H4.395v10.884H-6.489zM4.395 37.236H15.28V48.12H4.395zM-17.374 15.467H-6.49v10.885h-10.884z"/>
      </g>
      <g opacity=".1">
        <path d="M15.28 48.12h10.884v10.885H15.28zM26.164 59.005h10.884v10.884H26.164zM47.933 80.773h10.884v10.885H47.933zM58.817 91.658h10.884v10.885H58.817zM37.048 69.889h10.885v10.884H37.048z"/>
      </g>
      <g opacity=".1">
        <path d="M69.702 102.543h10.885v10.883H69.702zM80.586 113.426H91.47v10.885H80.586zM102.355 135.195h10.884v10.885h-10.884zM113.239 146.08h10.885v10.885h-10.885z"/>
        <path d="M91.471 124.311h10.885v10.885H91.471z"/>
      </g>
      <g opacity=".1">
        <path d="M124.124 156.965h10.885v10.885h-10.885zM135.009 167.85h10.885v10.885h-10.885zM145.894 178.734h10.884v10.883h-10.884z"/>
      </g>
    </g>
    <g fill="#603F1D">
      <g opacity=".1">
        <path d="M-17.325 37.187H-6.44v10.885h-10.885zM-6.44 48.072H4.444v10.884H-6.44z"/>
      </g>
      <g opacity=".1">
        <path d="M4.444 58.956h10.884V69.84H4.444zM15.328 69.84h10.885v10.885H15.328zM37.097 91.609h10.884v10.885H37.097zM47.981 102.494h10.885v10.885H47.981zM26.213 80.725h10.884v10.884H26.213z"/>
      </g>
      <g opacity=".1">
        <path d="M58.866 113.379H69.75v10.883H58.866zM69.75 124.262h10.885v10.885H69.75zM91.52 146.031h10.884v10.885H91.52zM102.403 156.916h10.885v10.885h-10.885zM80.635 135.146h10.884v10.885H80.635z"/>
      </g>
      <g opacity=".1">
        <path d="M113.288 167.801h10.885v10.885h-10.885zM124.173 178.686h10.885v10.883h-10.885z"/>
      </g>
    </g>
    <path fill="#603F1D" d="M-17.35 58.98h10.885v10.884H-17.35z" opacity=".1"/>
    <g fill="#603F1D" opacity=".1">
      <path d="M-6.465 69.865H4.419v10.884H-6.465zM4.419 80.749h10.884v10.884H4.419zM26.188 102.518h10.884v10.885H26.188zM37.073 113.402h10.885v10.885H37.073zM15.304 91.633h10.885v10.885H15.304z"/>
    </g>
    <g fill="#603F1D" opacity=".1">
      <path d="M47.958 124.287h10.884v10.885H47.958zM58.842 135.172h10.884v10.885H58.842zM80.611 156.939h10.884v10.885H80.611zM91.495 167.824h10.885v10.885H91.495zM69.726 146.057h10.885v10.883H69.726z"/>
    </g>
    <path fill="#603F1D" d="M102.38 178.709h10.885v10.885H102.38z" opacity=".1"/>
    <g fill="#603F1D" opacity=".1">
      <path d="M-17.301 80.701h10.885v10.883h-10.885zM-6.416 91.584H4.468v10.885H-6.416zM15.353 113.354h10.885v10.885H15.353z"/>
      <path d="M26.237 124.238h10.884v10.885H26.237zM4.468 102.469h10.884v10.885H4.468z"/>
    </g>
    <g fill="#603F1D" opacity=".1">
      <path d="M37.122 135.123h10.884v10.885H37.122zM48.006 146.008h10.885v10.883H48.006zM69.775 167.775H80.66v10.885H69.775zM80.66 178.66h10.884v10.885H80.66zM58.891 156.891h10.884v10.885H58.891z"/>
    </g>
    <g fill="#603F1D" opacity=".1">
      <path d="M113.065-27.896h10.885v10.884h-10.885zM134.834-6.127h10.885V4.757h-10.885zM145.719 4.757h10.884v10.884h-10.884zM123.95-17.012h10.884v10.885H123.95z"/>
    </g>
    <g fill="#603F1D" opacity=".1">
      <path d="M156.603 15.641h10.885v10.885h-10.885zM167.487 26.526h10.885V37.41h-10.885zM189.257 48.294h10.884v10.885h-10.884zM178.372 37.41h10.885v10.884h-10.885z"/>
    </g>
    <g fill="#603F1D" opacity=".1">
      <path d="M91.346-27.945h10.884v10.885H91.346z"/>
      <path d="M102.229-17.061h10.885v10.884h-10.885zM123.999 4.708h10.884v10.885h-10.884zM134.883 15.593h10.885v10.884h-10.885zM113.114-6.176h10.885V4.708h-10.885z"/>
    </g>
    <g fill="#603F1D" opacity=".1">
      <path d="M145.768 26.477h10.884v10.884h-10.884z"/>
      <path d="M156.651 37.361h10.885v10.885h-10.885zM178.421 59.13h10.885v10.884h-10.885zM189.306 70.015h10.884V80.9h-10.884zM167.536 48.246h10.885V59.13h-10.885z"/>
    </g>
    <path fill="#603F1D" d="M69.552-27.921h10.885v10.884H69.552z" opacity=".1"/>
    <g fill="#603F1D" opacity=".1">
      <path d="M80.437-17.037h10.884v10.885H80.437z"/>
      <path d="M91.32-6.152h10.885V4.732H91.32zM113.09 15.617h10.884v10.885H113.09zM123.974 26.501h10.885v10.884h-10.885zM102.205 4.732h10.885v10.884h-10.885z"/>
    </g>
    <g fill="#603F1D" opacity=".1">
      <path d="M134.858 37.386h10.885V48.27h-10.885zM145.743 48.27h10.885v10.885h-10.885zM167.512 70.039h10.885v10.885h-10.885zM178.396 80.924h10.885v10.885h-10.885zM156.628 59.155h10.884v10.884h-10.884z"/>
    </g>
    <path fill="#603F1D" d="M189.281 91.809h10.884v10.883h-10.884zM178.366-27.891h10.885v10.884h-10.885zM189.251-17.006h10.884v10.884h-10.884z" opacity=".1"/>
    <g fill="#603F1D" opacity=".1">
      <path d="M156.646-27.939h10.885v10.884h-10.885zM167.53-17.055h10.885V-6.17H167.53z"/>
    </g>
    <g fill="#603F1D" opacity=".1">
      <path d="M178.415-6.17H189.3V4.714h-10.885zM189.3 4.714h10.884v10.884H189.3z"/>
    </g>
    <g fill="#603F1D" opacity=".1">
      <path d="M145.737-17.031h10.885v10.885h-10.885zM156.622-6.146h10.885V4.738h-10.885zM134.853-27.915h10.885v10.884h-10.885z"/>
    </g>
    <g fill="#603F1D" opacity=".1">
      <path d="M167.507 4.738h10.884v10.884h-10.884zM178.391 15.623h10.885v10.885h-10.885z"/>
      <path d="M189.275 26.507h10.884v10.884h-10.884z"/>
    </g>
    <g fill="#603F1D">
      <g opacity=".1">
        <path d="M47.832-27.97h10.885v10.884H47.832zM58.716-17.085H69.6V-6.2H58.716z"/>
      </g>
      <g opacity=".1">
        <path d="M69.601-6.201h10.884V4.683H69.601zM80.485 4.684h10.884v10.885H80.485zM102.254 26.453h10.885v10.884h-10.885zM113.139 37.337h10.884v10.885h-10.884zM91.369 15.568h10.885v10.884H91.369z"/>
      </g>
      <g opacity=".1">
        <path d="M124.022 48.222h10.885v10.884h-10.885zM134.907 59.106h10.885V69.99h-10.885zM156.677 80.875h10.884V91.76h-10.884zM167.561 91.76h10.885v10.883h-10.885zM145.792 69.99h10.885v10.885h-10.885z"/>
      </g>
      <g opacity=".1">
        <path d="M178.445 102.643h10.885v10.885h-10.885zM189.33 113.527h10.884v10.885H189.33z"/>
      </g>
    </g>
    <g fill="#603F1D">
      <g opacity=".1">
        <path d="M36.923-17.061h10.884v10.884H36.923zM47.807-6.176h10.885V4.708H47.807zM26.039-27.945h10.884v10.885H26.039z"/>
      </g>
      <g opacity=".1">
        <path d="M58.692 4.708h10.884v10.885H58.692zM69.576 15.593H80.46v10.884H69.576zM91.346 37.361h10.884v10.885H91.346zM102.229 48.246h10.885V59.13h-10.885zM80.46 26.477h10.885v10.884H80.46z"/>
      </g>
      <g opacity=".1">
        <path d="M113.114 59.13h10.885v10.884h-10.885zM123.999 70.015h10.884V80.9h-10.884zM145.768 91.783h10.884v10.885h-10.884zM156.651 102.668h10.885v10.885h-10.885zM134.883 80.899h10.885v10.884h-10.885z"/>
      </g>
      <g opacity=".1">
        <path d="M167.536 113.553h10.885v10.885h-10.885zM178.421 124.438h10.885v10.883h-10.885zM189.306 135.32h10.884v10.885h-10.884z"/>
      </g>
    </g>
    <g fill="#603F1D">
      <g opacity=".1">
        <path d="M4.318-27.994h10.884v10.884H4.318zM26.087-6.225h10.885V4.659H26.087zM36.972 4.659h10.884v10.885H36.972zM15.203-17.11h10.884v10.885H15.203z"/>
      </g>
      <g opacity=".1">
        <path d="M47.856 15.544h10.885v10.884H47.856zM58.741 26.428h10.884v10.884H58.741zM80.509 48.197h10.885v10.884H80.509zM91.395 59.082h10.884v10.884H91.395zM69.625 37.313h10.884v10.885H69.625z"/>
      </g>
      <g opacity=".1">
        <path d="M102.278 69.966h10.885v10.885h-10.885zM113.163 80.851h10.885v10.884h-10.885zM134.932 102.619h10.885v10.885h-10.885zM145.816 113.504H156.7v10.885h-10.884zM124.048 91.734h10.884v10.885h-10.884z"/>
      </g>
      <g opacity=".1">
        <path d="M156.7 124.389h10.885v10.885H156.7zM167.585 135.273h10.885v10.883h-10.885zM189.354 157.041h10.884v10.885h-10.884zM178.47 146.156h10.885v10.885H178.47z"/>
      </g>
    </g>
    <g fill="#603F1D" opacity=".1">
      <path d="M-17.41 102.578h10.884v10.885H-17.41zM4.358 124.348h10.885v10.885H4.358zM15.243 135.232h10.884v10.885H15.243zM-6.526 113.463H4.358v10.885H-6.526z"/>
    </g>
    <g fill="#603F1D" opacity=".1">
      <path d="M26.127 146.117h10.884v10.885H26.127zM37.012 157.002h10.885v10.883H37.012zM58.781 178.77h10.884v10.885H58.781z"/>
      <path d="M47.896 167.885H58.78v10.885H47.896z"/>
    </g>
    <g fill="#603F1D" opacity=".1">
      <path d="M-6.477 135.184H4.407v10.885H-6.477zM4.407 146.068h10.885v10.885H4.407zM-17.361 124.299h10.884v10.885h-10.884z"/>
    </g>
    <g fill="#603F1D" opacity=".1">
      <path d="M15.292 156.953h10.884v10.883H15.292zM26.176 167.836H37.06v10.885H26.176zM37.061 178.721h10.885v10.885H37.061z"/>
    </g>
    <g fill="#603F1D" opacity=".1">
      <path d="M-17.355 146.063h10.884v10.883h-10.884zM-6.471 156.945H4.414v10.885H-6.471z"/>
    </g>
    <g fill="#603F1D" opacity=".1">
      <path d="M4.414 167.83h10.884v10.885H4.414zM15.298 178.715h10.884V189.6H15.298z"/>
    </g>
    <path fill="#603F1D" d="M-17.307 167.781h10.884v10.885h-10.884zM-6.422 178.666H4.462v10.885H-6.422z" opacity=".1"/>
  </g>
  <path fill="#F3D69C" d="m116.78 109.889-.008 19.156c0 1.502 0 1.502-1.547 1.512-.133 0-.265.004-.397.006-.56.006-.826-.543-1.394-.646-2.877-.52-5.779.047-8.664-.332-1.936-.252-3.912-.213-5.871-.031v-3.906c.322.492.003.959.593 1.389-.279-.746-.168-1.318-.342-1.895-.47-1.561-.37-3.148-.063-4.73.101.146.201.295.301.443l.097-.246c.276-.264.509-.527.001-.791-.125-.197-.256-.215-.394-.014-.43-.689-.1-1.447-.198-2.166.297.055.596.111.789-.215.436-.17.396-.459.199-.789l-.203-.998-.008-.371c-.115-.473.329-1.08-.34-1.42-.357-.82-.772-1.631-.464-2.57.046-.045.089-.094.14-.131.02-.014.074-.016.088 0 .191.225-.218.551.157.775.443-.906.415-1.873.427-2.832.01-.287.014-.57-.378-.607-.165-.881.565-1.619.384-2.512-.396-1.951-.002-3.959-.411-5.908-.331-1.58-.625-3.148-1.775-4.434-.851-.951-1.726-1.883-2.554-2.857-.871-1.023-2.115-1.822-3.267-2.332-1.419-.627-3.085-.938-4.715-1.025-1.308-.285-2.625-.131-3.926.004-3.169.33-5.863 1.68-7.931 4.104-1.471 1.727-2.492 3.756-3.181 5.91-.181.564-.715.82-.803 1.42-.225 1.529-.09 3.086.031 4.574.202 2.473-.097 4.93.093 7.389.172 2.236-.229 4.463-.191 6.699.008.465-.07.99.228 1.342.393.463.258.92.146 1.365-.198.785-.146 1.574-.171 2.365-.055 1.656-.118 3.314-.177 4.971h-1.732c.337.459.8.313 1.113.621-2.688-.572-5.391-.865-8.172-.775.218.287.754-.018.782.467a.243.243 0 0 1-.252.254c-.308-.006-.79.207-.88-.107-.124-.436-.484-.434-.69-.471-1.012-.18-2.038-.285-3.063-.379a1.89 1.89 0 0 0-1.124.232c-.617.332-1.12.193-1.667-.467-.979-1.184-.009-2.666-.812-3.809-.013-.018-.003-.072.016-.094.967-1.072.676-2.203.21-3.377-.093-.234-.398-.59-.018-.879.337.014.03.566.55.484 0-.531.153-1.139-.036-1.609-.283-.707-.221-1.406-.328-2.105-.076-.498.444-.506.411-.928-.102-1.316.174-2.627.026-3.965-.083-.754-.333-1.586-.186-2.266.32-1.475-.188-2.971.291-4.408.043-.131.045-.287-.103-.33-.809-.24-.506-.871-.29-1.225.253-.412.101-.725.105-1.102.006-.498-.556-1.037-.005-1.48.35-.281.339-.605.342-.969a17.919 17.919 0 0 0-.637-4.92c-.08-.287-.154-.555-.111-.867.194-1.396.347-2.793-.026-4.189-.056-.209-.081-.52.032-.664.358-.459.376-.436.355-.77-.021-.328.008-.633.175-.951.306-.582.392-1.23.389-1.898-.422.076-.225.635-.623.703-.257-.256-.219-.613-.131-.842.565-1.481-.205-3.109.524-4.565.035-.07.016-.245-.029-.267-.591-.289-.285-.816-.302-1.225a16.813 16.813 0 0 0-.409-3.114l13.906-.003c-.44.528.057.887.323 1.336l-.914.088c.314.138.653.083.928.191.549.216.761.037.896-.495.168-.657-.604-.079-.601-.563.875.168 1.673.019 2.352-.566l7.149-.005c.06.182.206.444-.068.502-.949.2-1.897.689-2.869-.003-.328-.234-1.024-.222-1.118-.046-.544 1.018-1.518.593-2.454.85.336.105.563.26.751.222 1.219-.252 2.421-.12 3.631.061.42.063 1.092.179 1.246-.029.589-.792 1.352-.358 2.024-.51.922-.209 1.449.614 2.331.603a63.501 63.501 0 0 0 4.701-.247c2.33-.201 4.661.43 6.995.005.252-.046.533-.014.786.047 1.462.355 2.973.361 4.452.491 2.092.183 4.18-.326 6.268-.556.441-.049.744-.432 1.292-.341 1.753.289 3.536.497 5.307.315.987-.101 1.974-.225 2.952-.136.575.052 1.235-.092 1.735.376l-.011 2.377c-.289.262-.184.609-.186.924-.01 1.637-.01 3.273-.001 4.91.002.316-.103.664.186.926l.025.594.002 1.801c-.007 1.328.011 2.656-.027 3.984-.022.793.442 1.424.596 2.152-.331.387-.18.793-.149 1.289.348-.301.371-.586.354-.883.488.402.707.908.58 1.559-.346-.098-.023-.445-.266-.564-.993.498-.959.5-1.024 1.701-.175 3.27-.036 6.541-.072 9.811-.004.138-.004.279-.004.422zm-17.092 13.103c-.604.314-.282.602-.04 1.043.266-.459-.063-.746.036-1.049.272-.217.229-.443-.001-.652-.104-.094-.266-.105-.332.033-.16.34.229.412.337.625zM67.767 78.608c-.709-.208-1.302.038-1.559-.615-.077-.196-.479.058-.71.156-.221.094-.213.319-.131.51.119.275.402.261.599.193.493-.17 1.01-.153 1.801-.244zm-11.01-.998c.59.367.999.286 1.411.119-.397-.295-.815-.293-1.411-.119zm5.859 1.58c.366.406.741.276 1.112.186-.333-.105-.613-.423-1.112-.186zm11.134-1.265c-.372-.013-.668-.158-.814.222.334.196.531.046.814-.222z"/>
  <path fill="#E9AB9D" d="m68.68 77.295-13.906.003-1.602.007-16.677-.028 1.165-1.375c1.731-.202 2.875-1.396 3.981-2.527a68.103 68.103 0 0 1 4.221-4c.824-.711 1.713-1.385 2.38-2.228.688-.87 1.335-1.778 2.201-2.461.872-.688 1.762-1.331 2.344-2.303.353.275.573.03.795-.203.855-.468 1.125-1.456 1.796-2.063 2.638-2.383 4.715-5.291 7.3-7.718.404-.38.546-1.029 1.146-1.189.869-.232 1.194-.904 1.561-1.632.356-.709.775-1.646 1.531-1.789 1.295-.246 2.121-1.205 2.297-2.094.226-1.142.869-1.535 1.665-1.869 1.457-.611 2.468-1.68 3.373-2.902.288-.006.55-.135.628-.39.097-.316-.28-.275-.433-.41.19-.428.479-1.095.831-1.021 1.144.24 1.604-.55 2.194-1.181.572-.612 1.787-.663 1.66-1.908-.012-.123.236-.311.4-.407.867-.515 1.658-1.129 2.46-1.728 1.185-.883 1.411-2.458 2.701-3.14.202-.107-.193-.675.398-.454.585.219 1.344.114 1.616.882-.213-.043-.362-.327-.737.104.351.285.665.705 1.073.843 1.489.503 2.197 1.85 2.836 2.997.781 1.403 2.175 2.019 3.161 3.127 1.119 1.257 2.51 2.303 3.504 3.714.139.198.254.215.529.223 1.328.036 1.159 1.89 2.434 2.11.174.03.528.444.179.809-.201-.204-.396-.421-.757-.395.158.415.467.387.76.391 1.213 1.264 2.496 2.444 4.033 3.312.437.246.735.606 1.057.984.729.857 1.533 1.652 2.348 2.431.193.186.753.227.723.422-.15.977.695 1.138 1.178 1.595-.049.807.387 1.349.99 1.797.055.14.104.283.17.418.008.018.143.002.144-.007.032-.272-.118-.457-.31-.621.076-.193-.334-.546.195-.59.46.557.888 1.146 1.391 1.66.326.333.271.972.891 1.059.584.082.787.506.91 1.027.079.335.053.904.707.523.178-.103.286.07.407.183 1.313 1.227 2.474 2.636 4.141 3.437.308.148.515.386.707.668.901 1.32 1.882 2.509 3.287 3.416.76.49 1.647.774 2.333 1.313-.044.352-.631.136-.442.391.759 1.026 1.308 2.238 2.509 2.897 1.096.602 2.25 1.116 3.196 1.959.122.108.425.14.231.427-.16.241-.363.248-.592.106-.411-.678-1.115-.976-1.746-1.376.434.749 1.333 1.023 1.742 1.785 1.041.414 1.6 1.397 2.578 2.021-1.982.101-3.909-.449-5.56.85a.314.314 0 0 1-.181.072c-.285-.005-.596.409-.855-.065-.215-.392-.161-.687.242-.899.191.015.412-.033.539.152.553.8.638.005.883-.34h-1.421l-1.186.029c.22.81-.333.403-.597.354-.549-.102-1.105-.472-1.576.184-.076.105-.317.189-.399-.041-.19-.532-.505-.255-.793-.141-.19.076-.386.162-.541-.028-.405-.496-.961-.356-1.475-.356-.952 0-1.778.434-2.622.806-.332.146-.817.452-.982-.059-.285-.877-.678-.571-1.16-.256-.386.251-.792.47-1.189.702l-1.584-.007c.553-.589 1.455-.547 2.035-1.083-1.375-1.164-2.712-.521-4.049-.001.702.029 1.391-.221 2.211-.1-.786.556-1.622.651-2.447.791-.717.122-.699-.27-.512-.667-1.572-.339-3.121.422-4.737-.459.165.522.26.826.354 1.129-.052.414-.361.391-.66.392-.645.001-1.29.004-1.935.007-.253-.409.425-.448.347-.696-1.096-.716-2.156.342-3.231-.084-.112-.044-.349.044-.436.148-.591.705-1.405.738-2.169.595-1.082-.201-2.158-.165-3.236-.16-.705.003-1.371-.091-2.005-.398-.33-.151-.66-.386-.996-.01-.427.043-.883-.092-1.367.152.267.308.532.232.773.244.281-.012.563.046.807-.201.285-.287.443-.034.577.204l-.395.207h-5.169c-1.969-.274-3.949-.194-5.925-.2-.348-.001-.734-.128-1.031.187l-7.149.005-2.984.009zm28.226-8.756-.216.218c-.238-.432-.503-.853-.712-1.298-.634-1.351-3.448-2.545-4.793-1.894-1.145.555-2.25 1.227-3.172 2.14-.732.725-.613 1.567-.234 2.374.332.711 1.061.975 1.747.822.624-.139.985.083 1.4.418.497.401 1.078.855 1.702.511.734-.406 1.208-.123 1.769.276.834.593 2.084.613 2.667.102 1.026-.9 1.089-1.29.435-2.671.082-.162.23-.191.391-.194.666.429 1.226.169 1.455-.451.232-.626.787-1.441.042-1.992-.593-.438-1.352-.112-1.901.332-.382.306-.643.758-.58 1.307zM70.852 53.851c.045.523.564.606.852.902.365.376.862.39 1.287.186.421-.203.704-.578.673-1.117-.028-.494.02-.992-.023-1.484-.066-.749-.622-1.178-1.225-1.421-.637-.257-1.11.176-1.511.665-.407.497-.526 1.042-.404 1.657-.272.427.231.41.351.612zm11.533-.592c-1.152-1.131-2.58-1.4-4.096-1.179-1.116.163-2.374.182-3.189 1.065-.833.902-1.483 1.978-2.169 3.007-.266.399-.457.863-.601 1.324-.345 1.103.026 2.212 1.007 2.958.794.604 1.806.616 2.505.102.786-.577 1.388-.465 2.159-.184 1.073.391 1.982.128 2.684-.825.255-.347.378-.356.752-.24 1.155.359 2.312.647 3.479-.074.591-.364 1.444-1.546 1.411-2.212-.051-1.03-.795-1.92-1.758-2.194-.662-.188-1.25-.524-1.578-1.181-.114-.266-.306-.406-.606-.367zm-7.758-3.97c-.024.295.055.642.192.984.544 1.357 1.878 1.698 2.773.73.598-.646.36-1.343.225-2.046-.169-.879-1.085-1.717-1.814-1.667-.704.048-1.364.974-1.376 1.999zm12.332 3.363c.002-1.318-.492-2.155-1.253-2.122-1.003.043-2.115 1.378-2.132 2.559-.014.971.553 1.313 2.223 1.342.803.013 1.16-.533 1.162-1.779zM83 49.5c.036-.615-.188-1.178-.417-1.72-.226-.534-.771-.658-1.249-.516-.917.272-1.636 2.555-1.046 3.33.201.265.182.746.644.792 1.302.128 2.082-.585 2.068-1.886zm11.203 13.542c-.104-.547-.29-1.183-1.116-1.249-.667-.052-1.319.665-1.356 1.421-.051.993.381 1.705 1.053 1.737.827.039 1.381-.656 1.419-1.909zm-3.861 1.187c-.064-.533-.268-1.131-1.049-1.17-.634-.032-1.464.808-1.467 1.378-.006.864.702 1.866 1.313 1.858.545-.007 1.204-1.066 1.203-2.066zm5.048.827c-.016.718.402 1.11 1.177 1.105.716-.004 1.263-.808 1.302-1.928.02-.534-.229-.934-.76-.98-.671-.058-1.706 1.082-1.719 1.803zm20.705 10.935c.533.444.916.054 1.496.036-.602-.525-1.024-.206-1.496-.036zM69.598 45.093l.127.218c.284-.133.692-.102.73-.757l-.857.539zm19.13 31.312c-.36-.027-.589-.008-.785.252.29.02.545.126.785-.252z"/>
  <path fill="#F4DBA8" d="M91.537 76.698c.634.308 1.3.402 2.005.398 1.078-.005 2.154-.042 3.236.16.764.143 1.578.11 2.169-.595.087-.104.323-.192.436-.148 1.075.426 2.136-.632 3.231.084.078.249-.6.287-.347.696.497.551 1.225.401 1.841.578.834.239 1.023-.04.754-.976l-.354-1.129c1.616.881 3.165.12 4.737.459-.188.397-.205.79.512.667.825-.14 1.661-.235 2.447-.791-.82-.121-1.509.129-2.211.1 1.337-.521 2.674-1.163 4.049.001-.58.536-1.482.494-2.035 1.083-.395.058-.736.22-1.071.525 1.026.36 1.86.021 2.655-.518.397-.232.804-.451 1.189-.702.482-.314.875-.621 1.16.256.165.51.65.205.982.059.844-.372 1.67-.806 2.622-.806.514 0 1.069-.139 1.475.356.155.19.351.104.541.028.288-.114.603-.391.793.141.082.23.323.146.399.041.471-.656 1.027-.286 1.576-.184.264.049.816.455.597-.354l1.186-.029c.001.063.001.125-.001.188-.403.212-.457.508-.242.899.26.475.57.061.855.065a.314.314 0 0 0 .181-.072c1.65-1.299 3.577-.749 5.56-.85-.979-.624-1.537-1.607-2.578-2.021l.004-.409c.229.142.432.135.592-.106.193-.288-.109-.319-.231-.427-.946-.844-2.101-1.358-3.196-1.959-1.201-.659-1.75-1.871-2.509-2.897-.188-.254.398-.039.442-.391-.686-.539-1.573-.823-2.333-1.313-1.405-.906-2.386-2.096-3.287-3.416-.192-.282-.399-.52-.707-.668-1.667-.8-2.827-2.21-4.141-3.437-.121-.113-.229-.286-.407-.183-.654.38-.628-.188-.707-.523-.123-.521-.326-.945-.91-1.027-.619-.087-.564-.726-.891-1.059-.503-.514-.931-1.103-1.391-1.66-.172-.601-.719-.753-1.189-.997-.482-.458-1.328-.619-1.178-1.595.03-.196-.529-.237-.723-.422-.814-.778-1.619-1.574-2.348-2.431-.321-.378-.62-.738-1.057-.984-1.537-.867-2.82-2.047-4.033-3.312l-.003.004c.35-.364-.005-.779-.179-.809-1.274-.22-1.105-2.075-2.434-2.11-.275-.007-.391-.025-.529-.223-.994-1.412-2.385-2.457-3.504-3.714-.986-1.109-2.38-1.724-3.161-3.127-.639-1.147-1.347-2.494-2.836-2.997-.408-.138-.723-.558-1.073-.843.375-.43.524-.146.737-.104-.271-.768-1.03-.663-1.616-.882-.592-.221-.196.347-.398.454-1.291.682-1.516 2.256-2.701 3.14-.802.599-1.593 1.213-2.46 1.728-.164.097-.412.284-.4.407.127 1.245-1.088 1.296-1.66 1.908-.59.63-1.05 1.421-2.194 1.181-.352-.074-.64.594-.831 1.021-.237.225-.473.45-.195.8-.905 1.222-1.916 2.291-3.373 2.902-.795.333-1.438.727-1.665 1.869-.176.889-1.002 1.848-2.297 2.094-.755.143-1.174 1.08-1.531 1.789-.366.729-.692 1.4-1.561 1.632-.601.161-.742.81-1.146 1.189-2.585 2.428-4.663 5.335-7.3 7.718-.671.606-.941 1.594-1.796 2.063-.366-.328-.566-.003-.795.203-.582.972-1.472 1.615-2.344 2.303-.866.683-1.512 1.591-2.201 2.461-.667.843-1.556 1.517-2.38 2.228a68.103 68.103 0 0 0-4.221 4c-1.105 1.132-2.25 2.325-3.981 2.527h-.982c.389-.5.646-.901.97-1.235 1.718-1.767 3.275-3.694 5.222-5.233 1.953-1.545 3.477-3.52 5.217-5.278 1.308-1.321 2.694-2.552 3.884-4.036 1.204-1.5 2.684-2.895 4.228-4.159 1.357-1.11 2.6-2.377 3.756-3.72.659-.766 1.463-1.403 2.42-1.789.726-.293.908-1.055 1.343-1.579 1.583-1.908 3.322-3.647 5.175-5.283.455-.401.954-.697.998-1.488.024-.427.638-.934 1.164-1.132.719-.272 1.089-.817 1.426-1.431.209-.016.435.021.583-.187l.369-.629c.149-.119.083-.468.432-.381.465.116.797-.433.772-.544-.174-.775.483-1 .852-1.353 2.026-1.946 4.124-3.817 6.125-5.786.922-.908 2.1-1.498 2.929-2.504.109-.133.22-.293.482-.104.3.216.679.475.996-.064.104-.178.308-.006.432.074.986.645 2.086 1.135 2.81 2.131 1.366 1.88 3.279 3.258 4.693 5.094.945 1.228 2.131 2.213 3.212 3.302 1.31 1.318 2.995 2.327 3.94 3.921 1.004 1.696 2.921 2.416 3.89 4.131.406.719 1.304 1.205 2.055 1.671.524.326.969.732 1.274 1.202.973 1.49 2.507 2.304 3.83 3.373.458.371 1.205.551.965 1.416-.019.065.174.276.231.262 1.075-.257.976.576 1.101 1.181.154.752.777 1.191 1.142 1.786.712 1.165 1.846 1.815 2.808 2.671.33.293.572.636.84.967 1.196 1.486 2.793 2.534 4.182 3.808.732.671 1.45 1.34 2.057 2.12.51.654.949 1.333 1.948 1.282.385-.02.756.254.969.617.876 1.493 2.043 2.821 3.229 3.992 1.604 1.585 3.042 3.328 4.695 4.859.086.079.133.199.281.431-1.572-.062-3.008.098-4.447-.136-1.797-.292-3.589-.136-5.371.154-.271.044-.555.264-.645-.235-.025-.143-.26-.162-.437-.149-2.399.175-4.776.705-7.202.457-.377-.039-.353.229-.35.449.01 1.021-.049 2.052.076 3.059.164 1.325.01 2.537-.398 3.827-.297.938-.492 2.075.352 3.096.387.469-.029 1.328-.064 2.01-.017.326-.096.648-.147.973-.071.395.146.832-.181 1.188-.11-.391.003-.832-.606-1.039-.294-.102.052-.727.002-1.117.737-.535.374-1.191.198-1.826.035-.596-.084-1.141-.546-1.658l-.073.689c-.287-.262-.183-.609-.185-.926-.009-1.636-.009-3.273.001-4.91.002-.314-.104-.662.186-.924.12.473.31.943.154 1.441-.119.387-.238.766.113 1.095.094.088.227.188.346.082.349-.312.391-.736.373-1.171-.005-.129-.035-.259-.063-.386-.224-.985-.609-1.94-.523-2.98.023-.266-.103-.439-.39-.458-.5-.468-1.16-.324-1.735-.376-.979-.089-1.965.035-2.952.136-1.771.182-3.554-.027-5.307-.315-.548-.09-.851.292-1.292.341-2.088.23-4.176.739-6.268.556-1.479-.13-2.99-.136-4.452-.491-.253-.061-.534-.093-.786-.047-2.334.425-4.665-.206-6.995-.005a64.05 64.05 0 0 1-4.701.247c-.882.011-1.409-.812-2.331-.603-.672.152-1.435-.281-2.024.51-.154.208-.826.092-1.246.029-1.21-.181-2.412-.313-3.631-.061-.188.039-.415-.117-.751-.222.936-.256 1.909.168 2.454-.85.094-.175.79-.188 1.118.046.972.693 1.92.204 2.869.003.274-.058.128-.32.068-.502.296-.315.683-.188 1.031-.187 1.976.006 3.956-.075 5.923.199-.729.701-1.568.039-2.343.189-.243.047-.583-.055-.579.344.003.325.263.431.547.445.592.03 1.168-.001 1.746-.195.771-.258 1.541-.526 2.395-.314 1.187.295 2.328.11 3.404-.471l.396-.207c.16-.077.197-.223.203-.385zm33.607-8.982c.236.47.447.692.906.816-.19-.409-.418-.612-.906-.816z"/>
  <path fill="#F4DBA8" d="m53.172 77.306 1.602-.007c.237 1.025.366 2.061.409 3.114.017.409-.29.936.302 1.225.045.021.064.196.029.267-.729 1.456.042 3.084-.524 4.565-.087.229-.125.586.131.842.398-.068.201-.627.623-.703.003.668-.083 1.316-.389 1.898-.167.318-.196.623-.175.951.021.334.002.311-.355.77-.113.145-.088.455-.032.664.374 1.396.221 2.793.026 4.189-.043.313.031.58.111.867.444 1.609.649 3.25.637 4.92-.003.363.007.688-.342.969-.551.443.011.982.005 1.48-.004.377.148.689-.105 1.102-.216.354-.519.984.29 1.225.148.043.146.199.103.33-.478 1.438.03 2.934-.291 4.408-.148.68.102 1.512.186 2.266.148 1.338-.127 2.648-.026 3.965.033.422-.487.43-.411.928.107.699.045 1.398.328 2.105.188.471.036 1.078.036 1.609-.52.082-.213-.471-.55-.484-.381.289-.075.645.018.879.466 1.174.757 2.305-.21 3.377-.019.021-.029.076-.016.094.803 1.143-.168 2.625.812 3.809.548.66 1.05.799 1.667.467a1.88 1.88 0 0 1 1.124-.232c1.025.094 2.051.199 3.063.379.206.037.566.035.69.471.09.314.572.102.88.107a.243.243 0 0 0 .252-.254c-.028-.484-.564-.18-.782-.467 2.782-.09 5.484.203 8.172.775-.313-.309-.776-.162-1.113-.621h1.732c.001.063.001.125 0 .188-.151.332-.388.662-.014 1.002.133.248.234.504.175.795-.721-.068-1.451-.088-2.16-.219-.626-.115-1.052.365-1.6.416-1.254.113-2.545-.613-3.774.158-.296-1.033-1.4.492-1.72-.535-.015-.049-.335-.064-.473-.004-1.754.779-3.555.293-5.341.227a50.885 50.885 0 0 0-2.678-.035c-.501.008-.693-.156-.701-.684-.03-2.082.024-4.154.374-6.211.038-.223.157-.289.302-.424.196-.18.343-.492.198-.805-1.377-2.961-1.375-2.959-.917-6.246.045-.324.042-.66.021-.99-.118-1.938-.067-3.857.284-5.783.134-.736-.282-1.557-.246-2.33.075-1.609-.18-3.227.007-4.814.259-2.189-.193-4.383.215-6.572.138-.738-.125-1.564-.263-2.342a7.237 7.237 0 0 1-.002-2.633c.309-1.666-.351-3.266-.446-4.908-.026-.449-.124-.843.257-1.167.225-.19.271-.41.016-.565-.498-.306-.352-.667-.102-1.003.99-1.326.558-2.936.885-4.393.077-.344-.003-.362-1.104-.526.388-.457 1.015-.749.897-1.457l.003-.389z"/>
  <path fill="#B3A291" d="M71.239 131.537c.059-.291-.042-.547-.175-.795.151-.332.36-.664.014-1.002a5.891 5.891 0 0 0 0-.188c.06-1.656.123-3.314.178-4.971.026-.791-.026-1.58.171-2.365.112-.445.248-.902-.146-1.365-.298-.352-.219-.877-.228-1.342-.039-2.236.363-4.463.191-6.699-.189-2.459.109-4.916-.093-7.389-.121-1.488-.256-3.045-.031-4.574.088-.6.622-.855.803-1.42.689-2.154 1.71-4.184 3.181-5.91 2.068-2.424 4.762-3.773 7.931-4.104 1.302-.135 2.618-.289 3.926-.004-.065.133-.131.264-.197.396-.354.676-.946.475-1.522.451-1.775-.072-3.479.221-5.035 1.139-.359-.293-.722-.41-1.082-.004-.174.195-.339.4-.508.6-.398.727-1.136.975-1.829 1.281-.139.061-.352-.039-.443.143-.586 1.148-1.604 2.027-2.197 3.115-1.312 2.412-1.307 5.199-1.738 7.85-.325 1.994.535 3.939.202 6.016-.232 1.443.051 3.057.078 4.588.014.797.378 1.664-.051 2.416-.514.9.266 1.83-.255 2.828-.249.477-.056 1.563.069 2.346.242 1.516.063 3.037.142 4.553.043.82-.083 1.699-.152 2.551-.075.922.568 1.307 1.192 1.209a13.54 13.54 0 0 1 3.294-.119c.829.07 1.74.014 2.602-.053 2.134-.168 4.29-.318 6.403-.273 2.039.043 4.099-.051 6.127.168 1.159.123 2.305.09 3.455.123.82.021 1.618.098 2.383.412l.015.211c.053.109.104.221.156.33-2.783.34-5.57-.029-8.357.057-3.097.096-6.21.266-9.292.055-1.974-.137-3.924.092-5.881-.057a5.278 5.278 0 0 0-1.556.135c-.575.128-1.256.235-1.745-.339z"/>
  <path fill="#F4DBA9" d="m98.071 131.686-.156-.33c.776.1 1.095-.23.98-1.01-.037-.26.001-.527.004-.793 1.959-.182 3.936-.221 5.871.031 2.885.379 5.787-.188 8.664.332.567.104.834.652 1.394.646l.62.768c-1.174.322-2.335.258-3.482.137-.464-.049-.842-.148-1.299.146-.479.311-1.094.123-1.646.068-3.521-.34-7.049-.109-10.572-.111-.127 0-.252.076-.378.116z"/>
  <path fill="#F7ECD4" d="m53.172 77.306-.002.385c-1.652-.453-3.339-.094-5.005-.21-.292.83-.951.887-1.678.793-.117-.015-.23-.061-.441-.119.341-.438.921-.129 1.208-.625-.299-.017-.564-.046-.828-.046-2.97-.003-5.939.002-8.909-.008-.344-.001-.735.141-1.021-.198l16.676.028z"/>
  <path fill="#FCF5E7" d="M117.382 88.988c.176.635.539 1.291-.198 1.826a49.48 49.48 0 0 1-.393-.402l-.003-1.799c.861.236-.134.867.278 1.207.318-.187.287-.521.316-.832z"/>
  <path fill="#F5DEB4" d="M117.96 101.535c-.683.148-.531-.404-.577-.732-.042-.307.024-.504.445-.273.212.115.027-.34.238-.414.339.449.049.938.083 1.406l-.189.013z"/>
  <path fill="wheat" d="M117.788 92.971c.327-.355.109-.793.181-1.188l.44-.572c-.309 1.096-.268 2-.23 3.031-.401-.437-.424-.846-.391-1.271z"/>
  <path fill="#F6E3BC" d="m117.552 120.605.236 2.098c-.624-.816-.33-1.484-.403-2.098l.083.002.084-.002z"/>
  <path fill="#F6E1BA" d="m116.78 109.889.001-.426c.351-.248.048-.813.648-1.08-.393.521.124 1.234-.649 1.506z"/>
  <path fill="#F7EBD2" d="M117.963 102.914c.267.439.189.836-.183 1.279.041-.549-.178-1.041.185-1.471l-.002.192z"/>
  <path fill="#F9F2E1" d="M117.563 96.957c.018.297-.006.582-.354.883-.03-.496-.182-.902.149-1.289.019.162.039.32.205.406z"/>
  <path fill="#F6E4C0" d="M118.036 116.156c-.373-.361-.237-.641.031-1.02.131.387.159.671-.031 1.02z"/>
  <path fill="#F6E9CB" d="M118.354 114.459c-.664.064-.467-.416-.367-.689.136-.369.228.119.373.078l-.006.611z"/>
  <path fill="#F6E5C2" d="M73.063 39.354c-.148.208-.374.171-.583.187-.015-.414.255-.624.572-.801.066.203-.242.414.011.614z"/>
  <path fill="#F7EBD0" d="M51.198 78.863c-.343.003-.635.343-1.018.152l.628-.525.39.373z"/>
  <path fill="wheat" d="M117.509 93.77c-.174-.25-.421-.506-.101-.877.294.273.079.593.101.877z"/>
  <path fill="#F5E1B8" d="m117.552 120.605-.084.002-.083-.002.001-1.352.166-.006v1.358z"/>
  <path fill="#F9F2E2" d="M118.165 101.727c.697.164.246.875.578 1.213a1.084 1.084 0 0 0-.162-.014c-.404-.223-.039-.764-.416-.996v-.203z"/>
  <path fill="#F4DCAB" d="M118.581 102.926c.055 0 .109.006.162.014-.018.365.119.754-.256 1.07l.094-1.084z"/>
  <path fill="#F7E6C4" d="M117.963 108.887c.297.33.356.73.435 1.248-.454-.404-.431-.832-.428-1.254l-.007.006z"/>
  <path fill="#F7EBD1" d="M118.165 101.727v.203c-.058.33.143.713-.202.984l.002-.191-.005-1.188c.063-.004.126-.008.189-.014l.016.206z"/>
  <path fill="#FCF7EE" d="M73.063 39.354c-.253-.2.054-.411-.011-.614.118-.224.253-.033.38-.015-.122.21-.245.419-.369.629z"/>
  <path fill="#F6E1BA" d="m118.354 114.459.006-.611c.428.205.168.525.135.807l-.141-.196z"/>
  <path fill="#F4DDAE" d="M117.257 103.857c.173.293.137.561.055.877-.235-.298-.17-.566-.055-.877z"/>
  <path fill="#FAF2DF" d="M42.382 78.191c.242-.124.441-.268.732-.204-.173.352-.419.332-.732.204z"/>
  <path fill="#F4DCAB" d="M44.581 78.167c.314-.137.588-.116.917.001-.33.158-.603.183-.917-.001z"/>
  <path fill="#F7E8CD" d="M117.97 108.881c-.594-.104-.099-.393-.298-.826.376.406.26.631.291.832l.007-.006z"/>
  <path fill="#F5DEB1" d="M117.489 110.162c.093.172.162.273.204.387.032.088-.009.211-.112.16-.092-.047-.157-.178-.197-.285-.02-.049.049-.131.105-.262z"/>
  <path fill="#F7E8CC" d="M118.086 107.412c-.043-.117-.104-.199-.088-.26.021-.07.109-.121.169-.18.041.066.126.143.115.197-.015.075-.104.136-.196.243z"/>
  <path fill="#F9F3E1" d="M118.654 106.566c-.261-.094-.329-.252-.22-.512.19.128.316.262.22.512z"/>
  <path fill="#F6E9CB" d="M117.053 119.715c-.085-.332-.153-.531.036-.719.129.217.116.418-.036.719z"/>
  <path fill="wheat" d="M118.068 96.711c.117.152.349.332.173.48-.126.105-.226-.145-.245-.301-.007-.052.044-.113.072-.179z"/>
  <path fill="#FAF1DE" d="M117.321 123.785c.28.324.323.49.277.676-.002.008-.139.004-.145-.014-.038-.14-.059-.287-.132-.662z"/>
  <path fill="#F5E1B9" d="m51.198 78.863-.389-.373c.244-.007.532-.07.645.215.052.135-.137.153-.256.158z"/>
  <path fill="#A89785" d="M97.9 131.145c-.765-.314-1.563-.391-2.383-.412-1.15-.033-2.296 0-3.455-.123-2.028-.219-4.088-.125-6.127-.168-2.113-.045-4.27.105-6.403.273-.861.066-1.772.123-2.602.053a13.536 13.536 0 0 0-3.294.119c-.624.098-1.267-.287-1.192-1.209.069-.852.195-1.73.152-2.551-.08-1.516.1-3.037-.142-4.553-.125-.783-.318-1.869-.069-2.346.521-.998-.258-1.928.255-2.828.43-.752.065-1.619.051-2.416-.027-1.531-.31-3.145-.078-4.588.333-2.076-.526-4.021-.202-6.016.432-2.65.427-5.438 1.738-7.85.592-1.088 1.611-1.967 2.197-3.115.092-.182.304-.082.443-.143.692-.307 1.43-.555 1.829-1.281.604-.002 1.086-.328 1.589-.596 1.557-.918 3.26-1.211 5.035-1.139.576.023 1.169.225 1.522-.451.217.451.357.953 1.084.684.256-.094.631.043.922.15 1.523.568 3.037 1.162 4.554 1.746l.001.002c-.167.369-.557.002-.804.254.172.477.647 1.117.945.846.594-.541.678.229 1.01.189-.196.918.826 1.107 1.055 1.762.207.596.492.316.79.119l.184.209c.451.49-.122 1.178.397 1.713 1.289 1.328 1.801 2.918 1.422 4.777a1.02 1.02 0 0 0 .41 1.031l.148.418c-.33.355-.127.791-.182 1.189l-.011 3.592c.095.926-.204 1.877.176 2.785-.309.939.106 1.75.464 2.57-.254.354-.811.588-.463 1.178-.298.342-.169.756-.17 1.139-.01 4.67-.012 9.342 0 14.014.003.578.014 1.094-.796.973z"/>
  <path fill="#B3A291" d="M96.322 95.559c-.298.197-.583.477-.79-.119-.229-.654-1.251-.844-1.055-1.762-.332.039-.416-.73-1.01-.189-.298.271-.773-.369-.945-.846.247-.252.637.115.804-.254.254.027.369.486.772.211-.244-.219-.4-.549-.773-.213-1.517-.584-3.03-1.178-4.554-1.746-.291-.107-.666-.244-.922-.15-.727.27-.867-.232-1.084-.684l.197-.396c1.63.088 3.296.398 4.715 1.025 1.151.51 2.396 1.309 3.267 2.332.828.975 1.703 1.906 2.554 2.857 1.15 1.285 1.444 2.854 1.775 4.434.409 1.949.015 3.957.411 5.908.182.893-.549 1.631-.384 2.512l-.009.604c-.064-.002-.129-.004-.193-.008l-.021-.375c-.073-.17-.221-.207-.386-.211l.01-3.592c.261.221.157.531.199.807.032.295-.163.66.269.852.223-.342.09-.699.098-1.041-.232-.445-.176-.93-.191-1.406-.013-.35-.01-.701-.047-1.049-.01-.096-.123-.271-.26-.131-.066.066-.025.238-.033.361a1.02 1.02 0 0 1-.41-1.031c.379-1.859-.133-3.449-1.422-4.777-.52-.535.054-1.223-.397-1.713.113.01.271.191.323.012.035-.119-.063-.344-.172-.426-.195-.146-.265.061-.336.204z"/>
  <path fill="#D4BD97" d="M97.9 131.145c.81.121.799-.395.798-.971-.012-4.672-.01-9.344 0-14.014.001-.383-.128-.797.17-1.139l.024 2.004c.12.203.111.408.001.611.099.719-.231 1.477.198 2.166l-.005.607c-.307 1.582-.406 3.17.063 4.73.174.576.063 1.148.342 1.895-.59-.43-.271-.896-.593-1.389v3.906c-.003.266-.041.533-.004.793.114.779-.204 1.109-.98 1.01l-.014-.209z"/>
  <path fill="#FCFCF8" d="M116.775 78.883c.287.02.413.193.39.458-.086 1.041.3 1.995.523 2.98.027.127.058.257.063.386.018.435-.024.859-.373 1.171-.119.106-.252.006-.346-.082-.352-.329-.232-.708-.113-1.095.155-.498-.034-.969-.154-1.441l.01-2.377z"/>
  <path fill="#F4DAA7" d="m68.68 77.295 2.984-.009c-.678.585-1.477.735-2.352.566-.003.484.769-.094.601.563-.136.532-.348.711-.896.495-.275-.109-.614-.054-.928-.191l.914-.088c-.266-.449-.763-.808-.323-1.336z"/>
  <path fill="#C8B596" d="M99.099 109.074c.064.004.129.006.193.008.129 0 .258.002.387.004-.012.959.017 1.926-.427 2.832-.375-.225.034-.551-.157-.775-.014-.016-.068-.014-.088 0-.051.037-.094.086-.14.131-.38-.908-.081-1.859-.176-2.785.165.004.313.041.386.211-.3.236-.156.496-.017.756l.039-.382z"/>
  <path fill="#EDD19A" d="M98.893 117.025a669.48 669.48 0 0 1-.024-2.004c-.348-.59.209-.824.463-1.178.669.34.225.947.34 1.42-.457-.021-.76.061-.389.588.259.52.179.93-.39 1.174z"/>
  <path fill="#F4DAA5" d="M67.767 78.608c-.791.091-1.308.074-1.801.244-.197.068-.479.083-.599-.193-.083-.191-.09-.416.131-.51.231-.098.633-.353.71-.156.257.653.849.407 1.559.615z"/>
  <path fill="#FEF8F0" d="M117.382 88.988c-.029.311.002.645-.315.832-.412-.34.583-.971-.278-1.207l-.024-.594.072-.689c.461.518.58 1.063.545 1.658z"/>
  <path fill="#DFC698" d="M98.893 117.025c.569-.244.649-.654.39-1.174l.396-.217.203.998c-.69.105-.102.535-.199.789-.193.326-.492.27-.789.215a.584.584 0 0 0-.001-.611z"/>
  <path fill="#F3D9A4" d="M56.757 77.61c.596-.175 1.014-.177 1.411.119-.412.167-.821.248-1.411-.119z"/>
  <path fill="#F2D59C" d="m99.087 120.41.005-.607c.138-.201.269-.184.394.014l-.001.791-.097.246c-.1-.149-.2-.297-.301-.444z"/>
  <path fill="#F4DAA5" d="M62.616 79.19c.499-.237.779.082 1.112.186-.371.09-.746.22-1.112-.186z"/>
  <path fill="#DBC499" d="M99.684 122.986c-.099.303.229.59-.036 1.049-.242-.441-.563-.729.04-1.043l-.004-.006z"/>
  <path fill="#CCB897" d="M99.688 122.992c-.107-.213-.496-.285-.337-.625.066-.139.228-.127.332-.033.23.209.273.436.001.652l.004.006z"/>
  <path fill="#F4DBA8" d="M73.75 77.925c-.283.269-.48.418-.814.222.146-.38.442-.235.814-.222z"/>
  <path fill="#D4BD97" d="M99.683 117.422c.098-.254-.491-.684.199-.789.197.33.236.619-.199.789z"/>
  <path fill="#B7A695" d="m99.679 115.635-.396.217c-.371-.527-.068-.609.389-.588l.007.371z"/>
  <path fill="#DEC599" d="M99.679 109.086c-.129-.002-.258-.004-.387-.004l.009-.604c.391.038.387.321.378.608z"/>
  <path fill="#D3BE97" d="m99.484 120.607.001-.791c.508.264.276.528-.001.791z"/>
  <path fill="#988678" d="M82.993 53.626c.328.657.916.993 1.578 1.181.963.273 1.707 1.164 1.758 2.194.033.667-.82 1.848-1.411 2.212-1.167.721-2.325.433-3.479.074-.374-.116-.497-.107-.752.24-.702.953-1.611 1.216-2.684.825-.771-.281-1.374-.393-2.159.184-.7.514-1.711.502-2.505-.102-.98-.746-1.352-1.855-1.007-2.958.144-.46.335-.925.601-1.324.686-1.029 1.337-2.105 2.169-3.007.815-.883 2.073-.903 3.189-1.065 1.516-.221 2.943.048 4.096 1.179.108.276.091.762.606.367zm-4.971 3.988c-.194-.144.043-.642-.333-.55-.334.082.029.436-.061.66-.011.027 0 .063.002.095-.088.231-.316.46-.055.706.137.128.315.085.44-.032.305-.285.195-.585.007-.879zm3.739-3.77c-.064.048-.283-.049-.225.158.035.123.206.211.329.298.011.007.138-.106.171-.181.106-.247-.089-.244-.275-.275zm-3.925 2.304c-.433.203-.633.299-.673.604.316.004.426-.189.673-.604zm2.615-2.911c-.056-.037-.122-.108-.201-.126-.109-.026-.187.058-.151.157.023.065.121.125.197.144.093.022.177-.021.155-.175z"/>
  <path fill="#988778" d="M97.499 69.535c.654 1.382.592 1.771-.435 2.671-.583.512-1.833.492-2.667-.102-.561-.398-1.034-.682-1.769-.276-.624.345-1.205-.11-1.702-.511-.415-.335-.776-.558-1.4-.418-.687.153-1.415-.111-1.747-.822-.379-.807-.498-1.649.234-2.374.922-.913 2.027-1.584 3.172-2.14 1.345-.651 4.159.543 4.793 1.894.209.446.474.866.712 1.298.157.379.425.639.809.78zm-5.563.315c-.045-.186-.082-.417-.333-.372-.231.041-.378.241-.426.479-.05.239.104.39.304.416.369.047.331-.308.455-.523zm.458 1.578c-.215-.17-.396-.365-.743-.198.257.169.436.376.743.198zm-3.44-1.036c.304-.02.487-.003.617-.165-.2-.142-.38-.136-.617.165zm7.586-.157c.041.278.092.446.338.566.004-.249.021-.447-.338-.566z"/>
  <path fill="#998778" d="M74.627 49.289c.012-1.025.672-1.951 1.376-1.999.729-.05 1.645.788 1.814 1.667.136.703.373 1.4-.225 2.046-.895.968-2.229.627-2.773-.73-.137-.342-.216-.689-.192-.984zM86.959 52.652c-.002 1.246-.359 1.792-1.162 1.778-1.67-.029-2.237-.371-2.223-1.342.017-1.181 1.129-2.515 2.132-2.559.761-.032 1.255.805 1.253 2.123zM70.501 53.239c-.122-.615-.003-1.16.404-1.657.401-.489.874-.922 1.511-.665.603.243 1.158.673 1.225 1.421.043.492-.005.99.023 1.484.031.539-.252.914-.673 1.117-.425.205-.922.19-1.287-.186-.288-.296-.807-.379-.851-.902.011-.278.052-.572-.352-.612zM83 49.5c.013 1.302-.766 2.014-2.069 1.886-.462-.045-.442-.527-.644-.792-.59-.775.129-3.058 1.046-3.33.478-.142 1.023-.018 1.249.516.23.542.454 1.105.418 1.72zM94.203 63.042c-.038 1.253-.592 1.948-1.42 1.91-.672-.032-1.104-.744-1.053-1.737.037-.756.689-1.474 1.356-1.421.827.065 1.013.701 1.117 1.248z"/>
  <path fill="#9A8878" d="M90.342 64.229c.001 1-.658 2.059-1.203 2.066-.61.008-1.318-.995-1.313-1.858.003-.57.833-1.41 1.467-1.378.781.039.984.637 1.049 1.17z"/>
  <path fill="#998778" d="M96.906 68.539c-.063-.549.198-1.001.579-1.309.55-.444 1.309-.771 1.901-.332.745.551.19 1.366-.042 1.992-.229.62-.789.88-1.455.451-.35-.238-.765-.4-.983-.802zM95.39 65.056c.014-.72 1.049-1.861 1.719-1.803.531.046.779.446.76.98-.039 1.121-.586 1.924-1.302 1.928-.775.005-1.193-.388-1.177-1.105z"/>
  <path fill="#F3D59D" d="M90.937 77.293c-1.076.581-2.218.766-3.404.471-.854-.212-1.624.056-2.395.314-.578.193-1.154.225-1.746.195-.284-.015-.543-.121-.547-.445-.004-.399.336-.297.579-.344.775-.15 1.615.512 2.343-.189 1.723-.002 3.446-.002 5.17-.002z"/>
  <path fill="#F3D79E" d="M104.862 76.895c.27.936.08 1.215-.754.976-.616-.177-1.344-.026-1.841-.578.645-.002 1.29-.006 1.935-.007.299 0 .609.023.66-.391z"/>
  <path fill="#F4D69D" d="M113.591 77.292c-.795.54-1.629.878-2.655.518.335-.306.677-.468 1.071-.525l1.584.007z"/>
  <path fill="#F1D0A6" d="M109.024 53.837c.471.244 1.018.396 1.189.997-.529.043-.119.397-.195.59l-.004.21c-.603-.448-1.038-.989-.99-1.797zM129.89 73.9l-.004.409c-.409-.762-1.309-1.037-1.742-1.785.63.401 1.335.699 1.746 1.376z"/>
  <path fill="#F2D3A8" d="M126.11 76.287c.002-.063.002-.126.001-.188h1.421c-.245.345-.33 1.141-.883.34-.127-.185-.347-.137-.539-.152z"/>
  <path fill="#F3D8A8" d="M116.095 75.991c.473-.169.895-.489 1.496.036-.58.017-.963.408-1.496-.036z"/>
  <path fill="#F1CEA5" d="M91.537 76.698c-.006.162-.043.309-.205.389-.135-.238-.293-.49-.578-.204-.244.247-.525.188-.808.201l.595-.396c.336-.376.666-.142.996.01z"/>
  <path fill="#F3D6A7" d="M74.25 40.926c-.278-.35-.042-.575.195-.8.152.135.529.093.433.41-.078.255-.34.384-.628.39z"/>
  <path fill="#F2D4A7" d="m90.541 76.688-.595.396c-.24-.012-.506.064-.772-.244.484-.245.94-.109 1.367-.152z"/>
  <path fill="#CDA090" d="M96.906 68.539c.218.402.633.563.983.802-.16.002-.309.032-.391.194a1.344 1.344 0 0 1-.809-.778l.217-.218z"/>
  <path fill="#F2D0A7" d="m69.598 45.093.857-.539c-.038.655-.446.624-.73.757a24.556 24.556 0 0 1-.127-.218z"/>
  <path fill="#F2D5A8" d="M88.728 76.405c-.239.378-.494.272-.785.252.196-.26.424-.279.785-.252z"/>
  <path fill="#B49484" d="M82.993 53.626c-.515.395-.498-.091-.608-.367.3-.039.492.101.608.367z"/>
  <path fill="#EDBCA1" d="M52.786 62.384c.229-.207.429-.531.795-.203-.222.233-.442.479-.795.203z"/>
  <path fill="#B89687" d="M70.501 53.239c.403.04.363.334.351.612-.12-.202-.623-.185-.351-.612z"/>
  <path fill="#F1D0A6" d="M99.687 45.093c-.293-.004-.602.024-.76-.391.361-.027.556.19.757.395l.003-.004z"/>
  <path fill="#EFC6A3" d="m110.015 55.634.004-.21c.191.164.342.349.31.621-.001.009-.136.025-.144.007-.067-.135-.116-.278-.17-.418z"/>
  <path fill="#FBF4E6" d="M125.144 67.716c.488.204.717.407.906.816-.459-.124-.67-.346-.906-.816z"/>
  <path fill="#E0CBA3" d="M71.079 129.74c.346.338.137.67-.014 1.002-.375-.34-.138-.67.014-1.002z"/>
  <path fill="#AD9D8B" d="M80.208 91.396c-.503.268-.985.594-1.589.596.169-.199.334-.404.508-.6.359-.406.722-.288 1.081.004z"/>
  <path fill="#E2C999" d="M98.9 105.703c-.042-.275.062-.586-.199-.807.056-.398-.147-.834.183-1.189.008.16.034.313.191.4.016.477-.041.961.191 1.406-.12.063-.244.128-.366.19z"/>
  <path fill="#E6CD9B" d="M99.075 104.107c-.157-.088-.184-.24-.191-.4-.05-.139-.1-.277-.148-.418.008-.123-.033-.295.033-.361.137-.141.25.035.26.131.036.347.034.699.046 1.048z"/>
  <path fill="#DFC698" d="M96.322 95.559c.07-.143.141-.35.335-.205.109.082.207.307.172.426-.053.18-.21-.002-.323-.012a39.113 39.113 0 0 0-.184-.209z"/>
  <path fill="#ECD09B" d="m98.9 105.703.366-.189c-.008.342.125.699-.098 1.041-.431-.192-.235-.557-.268-.852z"/>
  <path fill="#E5CB99" d="M93.325 92.387c.373-.336.529-.006.773.213-.403.275-.519-.184-.772-.211l-.001-.002z"/>
  <path fill="#E6CD9B" d="m99.099 109.074-.038.381c-.14-.26-.283-.52.017-.756l.021.375z"/>
  <path fill="#E3AA9B" d="M78.022 57.614c.188.294.298.595-.006.878-.125.117-.303.16-.44.032-.261-.245-.033-.475.055-.706l.391-.204z"/>
  <path fill="#E6AA9B" d="M81.761 53.844c.187.03.381.027.275.274-.033.075-.16.188-.171.181-.123-.086-.293-.175-.329-.298-.058-.206.161-.109.225-.157z"/>
  <path fill="#AF9283" d="m78.022 57.614-.392.205c-.001-.032-.013-.068-.002-.095.09-.224-.273-.578.061-.66.376-.092.139.406.333.55z"/>
  <path fill="#B49485" d="M77.836 56.148c-.247.414-.356.607-.673.604.04-.304.24-.4.673-.604z"/>
  <path fill="#A78E7F" d="M80.451 53.237c.022.154-.062.197-.155.174-.076-.019-.173-.079-.197-.144-.036-.099.042-.183.151-.157.079.019.145.09.201.127z"/>
  <path fill="#C69C8C" d="M91.936 69.85c-.124.215-.086.57-.455.522-.199-.026-.354-.176-.304-.416.048-.237.194-.438.426-.479.251-.043.288.188.333.373z"/>
  <path fill="#B59585" d="M92.394 71.428c-.307.178-.485-.028-.743-.198.346-.167.528.027.743.198z"/>
  <path fill="#A78E7F" d="M88.954 70.392c.237-.301.417-.306.617-.165-.13.161-.313.145-.617.165z"/>
  <path fill="#B49485" d="M96.54 70.235c.359.119.342.316.338.566-.246-.12-.297-.287-.338-.566z"/>
</svg>
